<?xml version="1.0" encoding="UTF-8" standalone="no"?>
<!-- Created with Inkscape (http://www.inkscape.org/) -->

<svg
   width="1200"
   height="1200"
   viewBox="0 0 1200 1200"
   version="1.1"
   id="svg5"
   inkscape:version="1.1 (c68e22c387, 2021-05-23)"
   sodipodi:docname="Art-Signature.svg"
   xmlns:inkscape="http://www.inkscape.org/namespaces/inkscape"
   xmlns:sodipodi="http://sodipodi.sourceforge.net/DTD/sodipodi-0.dtd"
   xmlns="http://www.w3.org/2000/svg"
   xmlns:svg="http://www.w3.org/2000/svg">
  <sodipodi:namedview
     id="namedview7"
     pagecolor="#ffffff"
     bordercolor="#666666"
     borderopacity="1.0"
     inkscape:pageshadow="2"
     inkscape:pageopacity="0.0"
     inkscape:pagecheckerboard="0"
     inkscape:document-units="px"
     showgrid="false"
     units="px"
     showborder="false"
     inkscape:showpageshadow="false"
     inkscape:zoom="0.32458333"
     inkscape:cx="2865.2118"
     inkscape:cy="2453.9153"
     inkscape:window-width="1920"
     inkscape:window-height="1001"
     inkscape:window-x="-9"
     inkscape:window-y="-9"
     inkscape:window-maximized="1"
     inkscape:current-layer="layer1" />
  <defs
     id="defs2">
    <inkscape:path-effect
       effect="spiro"
       id="path-effect1397"
       is_visible="true"
       lpeversion="1" />
  </defs>
  <g
     inkscape:label="Layer 1"
     inkscape:groupmode="layer"
     id="layer1">
    <g
       id="g1947"
       inkscape:export-filename="C:\Users\cslau\Desktop\Personal\Art-Signature.png"
       inkscape:export-xdpi="95.9981"
       inkscape:export-ydpi="95.9981">
      <path
         style="fill:none;stroke:#000000;stroke-width:38.7;stroke-linecap:round;stroke-linejoin:miter;stroke-miterlimit:4;stroke-dasharray:none;stroke-opacity:1"
         d="m 2303.3644,2255.199 c -56.2019,-32.3501 -110.5748,29.0117 -133.571,75.1263 -42.3646,79.1735 -23.4061,182.0417 38.8149,244.9978 38.7901,25.0737 85.8812,47.1582 133.267,46.4997 69.7082,2.2504 132.6968,-50.1923 146.7445,-117.8424 16.6194,-59.3687 27.2423,-121.0021 34.8536,-181.8264 0.4077,-22.9307 0.9791,-92.3127 -2.99,-84.0137 4.6557,86.2399 3.6445,172.5378 -3.2084,258.678 4.6541,33.8877 -22.7233,128.4121 36.6285,111.4096 42.4556,-12.9684 89.7193,-6.3023 134.1601,-7.955 58.1132,2.6294 116.0001,3.981 173.8542,-3.2411 66.1917,-5.9645 132.0125,4.424 198.1346,-1.2069 74.66,0.7537 149.4262,0.1893 223.684,-6.663 53.0793,10.0094 15.6882,100.9534 27.0194,144.8855 4.1284,51.9559 13.5677,-42.0474 8.0471,-58.5738 -4.7028,-42.8866 -33.2272,-98.0334 33.2062,-89.9136 92.6431,-11.5376 186.1482,-18.1633 279.3239,-19.047 l -1.5397,-0.1393 1.4273,-0.01"
         id="path1888" />
      <path
         style="fill:#000000;stroke:#000000;stroke-width:20;stroke-linecap:round;stroke-miterlimit:4;stroke-dasharray:none;paint-order:fill markers stroke;stop-color:#000000"
         d="m 3266.1792,2492.0259 c -3.0493,-6.8654 -0.5411,-15.1905 4.8575,-20.1407 6.7611,-6.4517 16.7544,-8.0326 25.7265,-6.8207 9.4437,1.0868 19.0789,5.6142 24.0438,14.043 4.0204,6.562 4.2533,15.593 -0.5642,21.8183 -4.568,6.063 -12.7982,7.7523 -19.9865,6.9921 -6.5225,-0.7402 -12.9247,-2.3719 -19.2051,-4.2443 -6.0798,-1.9665 -12.1767,-5.5826 -14.872,-11.6477 z"
         id="path1890" />
      <path
         style="fill:#000000;stroke:#000000;stroke-width:20;stroke-linecap:round;stroke-miterlimit:4;stroke-dasharray:none;paint-order:fill markers stroke;stop-color:#000000"
         d="m 3178.3197,2513.0847 c -6.6605,-0.9816 -11.7261,-6.6355 -12.8423,-12.8075 -1.5883,-7.8464 2.0674,-15.765 7.3353,-21.6576 5.4022,-6.2898 13.4939,-11.1262 22.2636,-10.7993 6.9027,0.1428 13.831,4.1516 16.1915,10.4953 2.359,6.0892 -0.3595,12.7899 -4.4209,17.6084 -3.7233,4.349 -8.0611,8.1991 -12.5213,11.8503 -4.434,3.4635 -10.1211,6.1765 -16.0059,5.3104 z"
         id="path1892" />
    </g>
    <path
       style="fill:none;stroke:#000000;stroke-width:24.7;stroke-linecap:round;stroke-linejoin:miter;stroke-opacity:1;stroke-miterlimit:4;stroke-dasharray:none"
       d="m -55.455712,232.60591 c -21.640464,-8.65619 -8.294484,-4.90568 -29.268293,-7.70219 -15.351965,-2.04693 -3.090632,-1.54043 -18.485235,-1.54043 -1.02696,0 -2.08458,-0.24908 -3.08088,0 -3.1664,0.7916 -7.10587,5.09337 -9.24261,6.16174 -1.89362,0.94681 -4.33302,0.47368 -6.16175,1.54044 -10.53114,6.14317 -17.62862,14.54775 -26.18742,23.10655 -2.90763,2.90762 -13.85455,14.62632 -18.48524,18.48523 -1.42226,1.18522 -3.55961,1.56417 -4.62131,3.08088 -2.63373,3.76248 -3.83315,8.36489 -6.16174,12.32349 -1.71309,2.91225 -15.20956,22.22114 -16.9448,26.18742 -1.69717,3.87924 -1.96677,8.23843 -3.08088,12.32349 -1.96716,7.21292 -4.21809,14.34681 -6.16174,21.56611 -5.85739,21.75601 -11.14078,43.46086 -9.24262,66.23877 3.10162,37.21944 0.73624,7.83435 6.16174,27.72785 0.82182,3.01332 0.78291,6.21251 1.54044,9.24262 0.71361,2.85444 10.75015,35.34542 10.78306,35.43004 1.08519,2.79049 3.28232,5.0242 4.62131,7.70218 6.05014,12.10029 9.47813,26.4622 18.48523,36.97048 5.43986,6.34649 12.33372,11.2854 18.48524,16.9448 6.68547,6.15063 12.46702,13.44614 20.02567,18.48524 5.00072,3.33381 11.31736,4.05145 16.94481,6.16174 9.35159,3.50685 6.05276,2.6549 15.40436,6.16175 1.520377,0.57014 3.113684,0.93738 4.62131,1.54043 1.066052,0.42643 2.01482,1.11402 3.080873,1.54044 3.470815,1.38833 7.31224,1.69255 10.783055,3.08087 3.198157,1.27927 6.094976,3.22236 9.242619,4.62131 1.483813,0.65948 3.113683,0.93739 4.621309,1.54044 4.313271,1.72531 14.92492,6.85206 20.025674,7.70218 3.038954,0.50649 6.161746,0 9.242619,0 2.567394,0 5.134788,0 7.702182,0 4.621309,0 9.242619,0 13.863928,0 5.648267,0 11.3310803,0.62375 16.944801,0 3.7153185,-0.41281 7.1564857,-2.17423 10.783055,-3.08087 24.56965,-6.14241 -21.525705,7.85157 27.727856,-7.70218 13.409173,-4.23448 27.953283,-8.63145 38.510912,-18.48524 3.753814,-3.50356 6.034942,-8.3139 9.242619,-12.32349 2.957331,-3.69667 6.012496,-7.32221 9.242618,-10.78306 3.963826,-4.24695 8.69442,-7.78715 12.32349,-12.32349 5.08438,-6.35548 9.72896,-19.26866 12.32349,-26.18742 2.5674,-7.1887 5.13479,-14.37741 7.70219,-21.56611 0.51347,-2.05391 0.87094,-4.15326 1.54043,-6.16175 1.90057,-5.70169 4.39426,-11.20045 6.16175,-16.9448 0.30201,-0.98154 -0.21518,-2.07671 0,-3.08087 1.7744,-8.28053 4.50093,-16.34293 6.16174,-24.64698 1.12588,-5.62939 1.76599,-11.35654 3.08088,-16.9448 2.41019,-10.24332 3.65222,-7.25394 4.62131,-16.9448 0.25546,-2.55466 0,-5.13479 0,-7.70219 0.51348,-2.56739 1.17016,-5.11026 1.54043,-7.70218 0.65758,-4.60302 0.77603,-9.27744 1.54044,-13.86393 0.26694,-1.60167 1.22199,-3.02908 1.54044,-4.62131 0.71206,-3.56033 0.82837,-7.22272 1.54043,-10.78305 0.31845,-1.59223 1.1882,-3.03622 1.54044,-4.62131 0.94353,-5.6612 1.78908,-11.34706 3.08087,-16.9448 3.64123,-15.77864 2.75668,-8.1895 4.62131,-23.10655 0.38214,-3.05708 0,-6.16175 0,-9.24262 0,-4.10783 0,-8.21566 0,-12.32349 0,-13.86393 0,-27.72786 0,-41.59178 0,-4.10783 0,-8.21567 0,-12.3235 0,-2.56739 0.28352,-5.15049 0,-7.70218 -2.03858,-18.34725 -1.54044,5.84397 -1.54044,-12.32349 0,-15.35276 1.45234,-1.71663 -1.54043,-7.70218 -0.22964,-0.45927 0.51348,-1.54044 0,-1.54044 -0.51348,0 0,1.02696 0,1.54044 0,1.02696 0,2.05391 0,3.08087 0,2.5674 0,5.13479 0,7.70218 0,8.72914 0,17.45828 0,26.18742 0,1.54044 -0.19107,3.09277 0,4.62131 0.32475,2.59802 1.2513,5.09996 1.54043,7.70218 0.51034,4.59305 -0.32925,9.25437 0,13.86393 0.33129,4.63793 1.28252,9.22134 1.54044,13.86393 0.34179,6.15226 0,12.32349 0,18.48524 0,12.83697 0,25.67394 0,38.51091 0,8.21566 0,16.43132 0,24.64698 0,3.59435 0.35765,7.20654 0,10.78306 -0.31079,3.10787 -1.28105,6.13004 -1.54044,9.24262 -0.25585,3.07023 0.21951,6.16957 0,9.24262 -0.29494,4.12927 -1.22292,8.19588 -1.54043,12.32349 -0.19691,2.55983 0.25546,5.14753 0,7.70218 -0.26053,2.60524 -1.2513,5.09996 -1.54044,7.70218 -0.22682,2.04136 0,4.10783 0,6.16175 0,6.16174 0,12.32349 0,18.48524 0,2.56739 0.42208,5.16972 0,7.70218 -0.26694,1.60167 -1.33903,3.01008 -1.54043,4.62131 -0.76428,6.11416 0.5117,12.34477 0,18.48523 -0.21744,2.6092 -1.17017,5.11026 -1.54044,7.70219 -0.50832,3.55822 0,7.1887 0,10.78305 0,4.62131 0,9.24262 0,13.86393 0,2.56739 -0.23244,5.14533 0,7.70218 0.28278,3.11055 1.30088,6.12845 1.54044,9.24262 0.47258,6.1436 -0.61312,12.35407 0,18.48524 0.26052,2.60524 1.2513,5.09996 1.54043,7.70218 0.39693,3.57237 0,7.1887 0,10.78306 0,5.64826 0,11.29653 0,16.9448 0,1.02695 -0.45927,2.16233 0,3.08087 0.22964,0.45927 1.02696,0 1.54044,0 0.51348,0 1.02696,0 1.54043,0 4.95684,0 10.53584,0.44259 15.40437,0 15.36549,-1.39686 3.3367,-0.91001 16.9448,-4.62131 3.01331,-0.82181 6.13208,-1.25766 9.24262,-1.54044 2.55685,-0.23244 5.14753,0.25547 7.70218,0 2.60525,-0.26052 5.08974,-1.36627 7.70218,-1.54043 5.12342,-0.34156 10.27749,0.28482 15.40437,0 4.13342,-0.22964 8.19421,-1.24549 12.32349,-1.54044 3.07304,-0.2195 6.16175,0 9.24262,0 6.67522,0 13.35045,0 20.02567,0 16.43132,0 32.86265,0 49.29397,0 9.24262,0 18.48524,0 27.72786,0 4.6213,0 9.26343,-0.43814 13.86392,0 6.2186,0.59225 12.26199,2.53972 18.48524,3.08087 5.62703,0.48931 11.29653,0 16.9448,0 14.89089,0 29.79277,0.57231 44.67266,0 11.57363,-0.44514 34.04419,-2.84989 44.67266,-4.62131 7.25186,-1.20864 14.2997,-3.5034 21.56611,-4.6213 15.54206,-2.39109 32.20433,-2.39219 47.75353,0 8.26163,1.27102 16.32702,3.81615 24.64698,4.6213 7.66637,0.74191 15.40436,0 23.10655,0 39.49133,0 3.93965,0.55135 41.59178,-1.54043 9.96955,-0.55387 20.84512,0 30.80873,0 3.08087,0 6.16958,0.2195 9.24262,0 4.12928,-0.29495 8.18796,-1.35246 12.32349,-1.54044 7.18129,-0.32642 14.37741,0 21.56611,0 27.21438,0 54.42876,0 81.64313,0 9.24262,0 18.48524,0 27.72786,0 5.03176,0 10.40715,0.45429 15.40436,0 3.61594,-0.32872 7.16476,-1.23891 10.78306,-1.54043 12.74887,-1.06241 3.15828,1.86555 18.48524,-1.54044 1.12083,-0.24907 2.05391,-1.02696 3.08087,-1.54044 2.56739,-0.51348 5.10416,-1.21568 7.70218,-1.54043 3.05708,-0.38214 6.16175,0 9.24262,0 7.1887,0 14.37741,0 21.56611,0 4.62131,0 9.24262,0 13.86393,0 2.56739,0 5.26654,-0.81189 7.70218,0 0.48713,0.16237 -0.45927,1.3108 0,1.54043 0.99659,0.4983 5.6084,-0.55335 6.16175,0 0.36308,0.36309 0,1.02696 0,1.54044 0,5.13479 -0.39382,10.2847 0,15.40436 0.31751,4.12761 1.22293,8.19589 1.54043,12.3235 0.19691,2.55983 -0.31844,5.15461 0,7.70218 0.20141,1.61122 1.2735,3.01964 1.54044,4.62131 0.25325,1.51947 0,3.08087 0,4.62131 0,3.08087 0,6.16174 0,9.24262 0,5.13478 0,10.26957 0,15.40436 0,20.53915 0,41.07831 0,61.61746 0,9.24262 0,18.48524 0,27.72785 0,6.01764 -0.45927,0.16263 1.54044,6.16175 0.16237,0.48713 -0.51348,1.54044 0,1.54044 0.51348,0 -0.22964,-1.08117 0,-1.54044 3.52498,-7.04997 -0.63847,6.53671 3.08087,-4.62131 1.78951,-5.36853 1.54044,-4.91266 1.54044,-9.24262 0,-1.54043 -0.30211,-3.11079 0,-4.62131 0.22517,-1.12587 1.31526,-1.95499 1.54043,-3.08087 0.60421,-3.02104 -0.60421,-6.22157 0,-9.24262 0.22518,-1.12588 1.17735,-1.99162 1.54044,-3.08087 0.50278,-1.50833 0,-4.43406 0,-6.16175 0,-4.62131 0,-9.24262 0,-13.86393 0,-2.34251 0.492,-10.35547 0,-12.32349 -0.27847,-1.11389 -1.31526,-1.95499 -1.54044,-3.08087 -0.3021,-1.51052 0,-3.08087 0,-4.62131 0,-4.33863 0.53152,-9.61178 0,-13.86393 -0.26259,-2.10078 -1.24103,-4.06589 -1.54043,-6.16174 -0.36761,-2.57322 0.65829,-10.34862 0,-12.3235 -0.22964,-0.6889 -1.21569,-0.89093 -1.54044,-1.54043 -0.6889,-1.37781 0.48713,-3.15993 0,-4.62131 -0.22963,-0.68891 -1.39802,-0.82837 -1.54044,-1.54044 -0.4028,-2.01403 0.25476,-4.12369 0,-6.16174 -0.26259,-2.10078 -1.12523,-4.08574 -1.54043,-6.16175 -0.1007,-0.50351 0.22963,-1.08117 0,-1.54044 -0.32476,-0.6495 -1.02696,-1.02695 -1.54044,-1.54043 0,-1.02696 0.32475,-2.10662 0,-3.08088 -0.22963,-0.6889 -1.3108,-0.85153 -1.54044,-1.54043 -1.71159,-5.13479 2.5674,-1.2837 0,-7.70218 -0.53938,-1.34847 -2.43136,-1.78187 -3.08087,-3.08088 -0.92138,-1.84277 0.71963,-7.08374 0,-9.24262 -0.36308,-1.08925 -1.26196,-1.96698 -1.54044,-3.08087 -0.37361,-1.49444 0,-3.08087 0,-4.62131 0,-0.51348 -0.36308,-1.17735 0,-1.54043 0.36309,-0.36309 1.04229,0.12453 1.54044,0 1.57528,-0.39382 3.06002,-1.09436 4.62131,-1.54044 10.68057,-3.05159 21.32679,-3.3966 32.34917,-4.62131 22.4425,-2.49361 -0.21449,0.0495 20.0257,-4.62131 3.5378,-0.81643 7.2107,-0.89093 10.783,-1.54044 2.083,-0.37872 4.0533,-1.34876 6.1618,-1.54043 3.5796,-0.32542 7.1887,0 10.783,0 5.1348,0 10.2696,0 15.4044,0 2.0539,0 4.118,0.20437 6.1617,0 3.1079,-0.31079 6.1507,-1.09873 9.2427,-1.54044 13.2463,-1.89234 26.7185,-3.51024 40.0513,-4.62131 5.6288,-0.46906 11.3132,0.4332 16.9448,0 2.6105,-0.20081 5.0969,-1.27991 7.7022,-1.54043 2.5546,-0.25547 5.1453,0.23244 7.7022,0 6.2211,-0.56556 12.26,-2.56211 18.4852,-3.08088 3.0702,-0.25585 6.1649,0.1399 9.2426,0 8.2232,-0.37378 16.4256,-1.12936 24.647,-1.54043 13.2828,-0.66414 26.7432,0 40.0514,0 9.2426,0 18.4852,0 27.7278,0 3.0809,0 6.177,0.30655 9.2426,0 16.6498,-1.66498 1.6218,-1.54044 7.7022,-1.54044"
       id="path72" />
    <path
       style="fill:none;stroke:#000000;stroke-width:24.7;stroke-linecap:round;stroke-linejoin:miter;stroke-miterlimit:4;stroke-dasharray:none;stroke-opacity:1"
       d="m -9.2426183,1387.9333 c -48.1981907,-29.3992 -90.9597217,13.958 -118.7280417,49.2204 -29.24522,43.9474 -43.69697,100.1076 -36.18707,152.9122 13.86781,50.4395 34.39492,110.1222 86.130665,135.6818 35.895944,10.2177 68.7265331,33.4744 107.295358,28.8094 44.587872,0.7219 94.477597,-20.5758 124.775347,-64.6983 36.55166,-68.639 40.23691,-147.3496 56.99615,-221.8229 -0.9276,-34.1058 2.41127,-76.8965 -3.08087,-103.2092 -0.30181,14.3356 0.0277,44.0976 1.54043,63.1579 6.42616,83.0044 -5.59328,165.4237 -6.16174,248.0103 1.88426,36.9684 -8.55286,91.3816 47.75353,60.077 73.37823,-5.6913 147.66083,-3.0452 221.05675,0.2146 69.10597,-6.5583 136.35798,-12.8343 205.56363,-4.8217 82.44462,-6.7154 165.79436,0.932 248.09079,-6.176 21.45263,-4.2705 51.76182,-5.1578 69.31964,0 4.78292,53.5247 2.62303,107.7491 3.1012,161.7528 8.35255,4.668 11.49365,-48.5542 7.68185,-66.2457 2.5817,-34.2676 -10.31917,-62.5588 -13.86393,-93.9666 41.97223,-9.2981 84.25853,-13.5192 127.04463,-16.7685 63.7162,-6.6284 127.5417,-11.0955 191.8257,-9.4189 l 7.8146,-1.3946 -1.5397,-0.1393 1.4273,-0.01"
       id="path1028" />
    <path
       style="fill:none;stroke:#000000;stroke-width:24.7;stroke-linecap:round;stroke-linejoin:miter;stroke-miterlimit:4;stroke-dasharray:none;stroke-opacity:1"
       d="m 24.646984,2255.199 c -56.201926,-32.3501 -110.574842,29.0117 -133.570984,75.1263 -42.36464,79.1735 -23.40609,182.0417 38.814892,244.9978 38.790126,25.0737 85.881204,47.1582 133.267003,46.4997 69.708185,2.2504 132.696755,-50.1923 146.744455,-117.8424 16.61949,-59.3687 27.2423,-121.0021 34.8536,-181.8264 0.40774,-22.9307 0.97916,-92.3127 -2.98994,-84.0137 4.65564,86.2399 3.6445,172.5378 -3.20839,258.678 4.65406,33.8877 -22.72334,128.4121 36.62852,111.4096 42.45553,-12.9684 89.71923,-6.3023 134.16004,-7.955 58.11322,2.6294 116.00008,3.981 173.85418,-3.2411 66.19174,-5.9645 132.01251,4.424 198.13463,-1.2069 74.65997,0.7537 149.42623,0.1893 223.68401,-6.663 53.0793,10.0094 15.6882,100.9534 27.0194,144.8855 4.1284,51.9559 13.5677,-42.0474 8.0471,-58.5738 -4.7028,-42.8866 -33.2272,-98.0334 33.2062,-89.9136 92.6431,-11.5376 186.1482,-18.1633 279.3239,-19.047 l -1.5397,-0.1393 1.4273,-0.01"
       id="path1048" />
    <path
       style="fill:none;stroke:#000000;stroke-width:24.7;stroke-linecap:round;stroke-linejoin:miter;stroke-miterlimit:4;stroke-dasharray:none;stroke-opacity:1"
       d="m 24.646984,3016.1746 c -56.201926,-32.3501 -110.574842,29.0117 -133.570984,75.1263 -42.36464,79.1735 -23.40609,182.0417 38.814892,244.9978 38.790126,25.0737 85.881204,47.1582 133.267003,46.4997 69.708185,2.2504 132.696755,-50.1923 146.744455,-117.8424 16.61949,-59.3687 27.2423,-121.0021 34.8536,-181.8264 0.40774,-22.9307 0.97916,-92.3127 -2.98994,-84.0137 4.65564,86.2399 3.6445,172.5378 -3.20839,258.678 4.65406,33.8877 -22.72334,128.4121 36.62852,111.4096 42.45553,-12.9684 89.71923,-6.3023 134.16004,-7.955 58.11322,2.6294 116.00008,3.981 173.85418,-3.2411 66.19174,-5.9645 132.01251,4.424 198.13463,-1.2069 74.65997,0.7537 149.42623,0.1893 223.68401,-6.663 53.0793,10.0094 15.6882,100.9534 27.0194,144.8855 4.1284,51.9559 13.5677,-42.0474 8.0471,-58.5738 -4.7028,-42.8866 -33.2272,-98.0334 33.2062,-89.9136 92.6431,-11.5376 186.1482,-18.1633 279.3239,-19.047 l -1.5397,-0.1393 1.4273,-0.01"
       id="path1212" />
    <path
       style="fill:#000000;stroke-width:34.0338;stroke-linecap:round;stroke-miterlimit:4;stroke-dasharray:none;paint-order:fill markers stroke;stop-color:#000000"
       d="m 993.62345,2505.8898 c -3.04929,-6.8654 -0.54108,-15.1905 4.85756,-20.1407 6.76109,-6.4517 16.75439,-8.0326 25.72649,-6.8207 9.4437,1.0868 19.0789,5.6142 24.0438,14.043 4.0204,6.562 4.2533,15.593 -0.5642,21.8183 -4.568,6.063 -12.7982,7.7523 -19.9865,6.9921 -6.5225,-0.7402 -12.9247,-2.3719 -19.2051,-4.2443 -6.0798,-1.9665 -12.17669,-5.5826 -14.87205,-11.6477 z"
       id="path1596" />
    <path
       style="fill:#000000;stroke-width:29.8092;stroke-linecap:round;stroke-miterlimit:4;stroke-dasharray:none;paint-order:fill markers stroke;stop-color:#000000"
       d="m 905.76396,2526.9486 c -6.6605,-0.9816 -11.72606,-6.6355 -12.84229,-12.8075 -1.58827,-7.8464 2.06747,-15.765 7.3353,-21.6576 5.40226,-6.2898 13.49388,-11.1262 22.26365,-10.7993 6.90272,0.1428 13.83097,4.1516 16.19144,10.4953 2.35904,6.0892 -0.35943,12.7899 -4.42089,17.6084 -3.72332,4.349 -8.06104,8.1991 -12.52131,11.8503 -4.43394,3.4635 -10.12108,6.1765 -16.0059,5.3104 z"
       id="path1875" />
  </g>
</svg>
