<?xml version="1.0" encoding="UTF-8" standalone="no"?>
<!-- Created with Inkscape (http://www.inkscape.org/) -->

<svg
   width="3.9057627in"
   height="3.1673784in"
   viewBox="0 0 374.95321 304.06835"
   version="1.1"
   id="svg5"
   inkscape:version="1.3 (0e150ed6c4, 2023-07-21)"
   sodipodi:docname="Green-neuron.svg"
   xml:space="preserve"
   xmlns:inkscape="http://www.inkscape.org/namespaces/inkscape"
   xmlns:sodipodi="http://sodipodi.sourceforge.net/DTD/sodipodi-0.dtd"
   xmlns="http://www.w3.org/2000/svg"
   xmlns:svg="http://www.w3.org/2000/svg"><sodipodi:namedview
     id="namedview7"
     pagecolor="#ffffff"
     bordercolor="#e0e0e0"
     borderopacity="1"
     inkscape:pageshadow="2"
     inkscape:pageopacity="0.0"
     inkscape:pagecheckerboard="false"
     inkscape:document-units="px"
     showgrid="false"
     units="px"
     showborder="true"
     inkscape:showpageshadow="true"
     inkscape:deskcolor="#ffffff"
     inkscape:zoom="0.64322916"
     inkscape:cx="-93.279353"
     inkscape:cy="20.987854"
     inkscape:window-width="1920"
     inkscape:window-height="991"
     inkscape:window-x="-9"
     inkscape:window-y="-9"
     inkscape:window-maximized="1"
     inkscape:current-layer="layer1" /><defs
     id="defs2" /><g
     inkscape:label="Layer 1"
     inkscape:groupmode="layer"
     id="layer1"
     transform="translate(-1108.6395,191.98639)"><rect
       style="fill:#ffffff;fill-opacity:1;stroke:none;stroke-width:1.12306;paint-order:markers fill stroke"
       id="rect17"
       width="374.95322"
       height="304.06833"
       x="1108.6395"
       y="-191.98639" /><g
       id="g1"
       transform="matrix(1.0058593,0,0,1.0058593,-8.6928162,0.79697203)"><path
         style="fill:#55b323;fill-opacity:1;stroke:none;stroke-width:0.486663;stroke-linecap:round;stroke-dasharray:0.486663, 1.45999;paint-order:markers fill stroke"
         d="m 1447.9647,-107.82592 c 0.938,-0.2734 -13.5848,-28.19245 -13.5848,-28.19245 h -11.327 c 0,0 23.9737,28.46587 24.9118,28.19245 z"
         id="path16-4"
         sodipodi:nodetypes="zccz" /><path
         id="path132993-8"
         style="display:inline;fill:#b8de29;fill-opacity:1;stroke:none;stroke-width:0.993388;stroke-linecap:butt;stroke-linejoin:miter;stroke-miterlimit:4;stroke-dasharray:none;stroke-dashoffset:0;stroke-opacity:1;paint-order:markers fill stroke;stop-color:#000000"
         d="m 1464.206,-136.01837 c 0.1228,0.51269 0.1464,1.01618 0.091,1.45137 -0.069,0.54759 -0.2181,0.96797 -0.2629,1.23526 0,0.004 -10e-5,0.007 0,0.0109 -0.043,0.18218 -0.087,0.37258 -0.1292,0.54771 -0.4577,1.92651 -0.9911,3.64009 -1.2586,4.72437 -0.4538,1.43016 -0.9281,3.04506 -1.2007,4.23616 -1.2664,8.97369 -5.9685,21.11325 -16.968,20.11493 -3.6919,0.18781 -13.2105,-5.20737 -19.577,-7.79546 -1.0928,-1.35022 -1.904,-2.99693 -2.2914,-4.79254 -0.5113,-2.36925 -0.1741,-4.32094 -0.016,-5.50649 0.1063,-0.79655 0.086,-1.39097 0.1291,-1.67257 -0.1699,0.2048 -0.6555,0.63655 -1.0068,1.41727 -0.5171,1.14856 -1.0197,3.39298 -0.503,6.04865 0.2324,1.19486 0.6444,2.32648 1.1905,3.3696 -2.6208,-1.701 -4.955,-3.851 -7.7426,-5.78471 -0.4922,-0.29558 -0.9488,-0.55794 -1.3659,-0.86653 -0.3737,-0.27628 -0.6594,-0.55003 -0.8686,-0.84062 -0.049,-0.0676 -0.095,-0.13875 -0.1399,-0.21311 -0.2192,-0.36506 -0.3682,-0.79161 -0.4612,-1.29323 -0.09,-0.48378 -0.1179,-0.99121 -0.1343,-1.49153 -0.033,-1.17062 0.018,-2.20517 -0.023,-2.7512 -0.029,-0.3938 -0.1466,-0.67046 -0.1729,-0.80607 -0.066,0.11834 -0.268,0.35222 -0.3931,0.73585 -0.1785,0.54727 -0.3308,1.58801 -0.3519,2.82651 -0.011,0.51982 0.01,1.09142 0.099,1.65634 0.098,0.59234 0.2757,1.14219 0.5615,1.63802 0.058,0.10041 0.1186,0.19528 0.1805,0.28524 0.2685,0.38982 0.5937,0.75024 0.9998,1.11272 0.4395,0.39229 0.9205,0.73961 1.3726,1.06542 1.0571,0.72048 2.0524,1.44361 2.9597,2.11348 -0.1158,0.005 -0.2305,0.0141 -0.3448,0.0259 -1.6801,-0.4294 -3.3838,-0.62353 -5.0361,-0.58889 -0.1314,0.003 -0.2639,0.006 -0.3987,0.0123 -1.5256,0.0574 -2.8598,0.29115 -4.5296,0.48008 -4.6559,0.4624 -8.1689,-0.23068 -9.8551,-0.46024 -0.6875,-0.0936 -1.0814,-0.068 -1.2983,-0.0875 v 0 c 0.1767,0.0902 0.5337,0.34076 1.1814,0.56956 1.539,0.54369 5.3335,1.40939 10.0661,1.02523 1.5611,-0.10591 3.2114,-0.35398 4.4858,-0.42311 0.1269,-0.006 0.2524,-0.0112 0.3764,-0.0147 0.9599,-0.0279 1.9404,0.0141 2.9276,0.13226 -0.013,0.007 -0.028,0.0138 -0.041,0.0229 -0.3724,0.2117 -0.704,0.4651 -1.0125,0.7206 -0.334,0.27666 -0.6453,0.55747 -0.9606,0.80754 -1.1964,0.91024 -2.6142,1.47849 -4.0989,1.82924 -0.6798,0.16061 -1.3749,0.27604 -2.0698,0.35701 -0.8636,0.10056 -1.7698,0.15547 -2.7237,0.17087 -1.114,0.0799 -1.9757,0.12374 -2.53,0.12968 0.5301,0.081 1.4697,0.23647 2.5926,0.3209 0.9714,0.0211 1.9042,-0.004 2.7949,-0.0829 0.7174,-0.0636 1.4403,-0.16375 2.1517,-0.31429 1.5517,-0.32822 3.0682,-0.89708 4.3633,-1.85263 0.3528,-0.25033 0.681,-0.52544 1.0099,-0.78767 0.3058,-0.24391 0.6073,-0.47209 0.9332,-0.66217 0.02,-0.0115 0.039,-0.0244 0.061,-0.0356 0.2858,-0.1592 0.6173,-0.29437 0.9887,-0.39156 1.2512,0.24581 2.5018,0.61822 3.7271,1.12947 0.362,0.25609 1.0449,0.4363 1.4096,0.79384 6.7143,5.30132 13.0607,11.37597 15.3382,19.951212 1.9933,8.973077 -2.8691,15.777558 -11.1839,17.700342 -2.5303,0.586635 -5.9922,2.030104 -9.2712,1.031342 -0.844,-0.227098 -1.6526,-0.548032 -2.5763,-0.933687 -0.8872,-0.370408 -1.7693,-0.751804 -2.6968,-1.050145 -0.6719,-0.208149 -1.3037,-0.35378 -1.9025,-0.455636 -0.6908,-0.117515 -1.4328,-0.179974 -2.202,-0.138345 -1.4987,0.08115 -2.8807,0.555436 -3.9442,1.356302 -0.3907,0.308977 -0.68,0.629294 -0.8661,0.898609 -0.2937,0.425082 -0.3814,0.844258 -0.4384,1.022147 0.1368,-0.119395 0.496,-0.346758 0.862,-0.621949 0.2415,-0.181502 0.535,-0.408865 0.9083,-0.639253 0.9664,-0.633495 2.1826,-1.017388 3.5191,-1.056756 0.686,-0.02027 1.3524,0.0498 1.9782,0.174452 0.5403,0.107556 1.1146,0.279715 1.7159,0.516685 0.8525,0.324459 1.6563,0.729299 2.5452,1.156408 0.9013,0.433072 1.7809,0.832536 2.7192,1.109137 0.01,0.0029 0.018,0.005 0.028,0.0079 -0.045,0.104647 -0.09,0.228772 -0.1551,0.365119 -0.098,0.205387 -0.2443,0.435276 -0.4719,0.627561 -0.2049,0.174275 -0.4699,0.307654 -0.7852,0.406338 -0.3345,0.104529 -0.7074,0.163228 -1.0201,0.196808 0,0 -0.037,0.0029 -0.037,0.0029 -0.3394,0.03094 -0.5394,0.06537 -0.9012,0.118984 -0.1567,0.06657 -0.9903,-0.764142 -1.4539,-1.11372 -0.6636,-0.40014 -1.2244,-0.680384 -1.8379,-0.894497 -0.069,-0.02409 -0.1406,-0.04689 -0.2136,-0.06866 -0.3587,-0.107321 -0.7532,-0.177301 -1.1579,-0.174921 -0.4069,0.0029 -0.7967,0.07756 -1.1503,0.229331 -0.2864,0.139196 -0.494,0.312326 -0.6123,0.451111 -0.1256,0.147217 -0.1715,0.299869 -0.1989,0.362064 0.061,-0.0285 0.2103,-0.07042 0.3677,-0.136317 0.157,-0.06566 0.3557,-0.156207 0.6149,-0.220664 0.2992,-0.09296 0.6226,-0.124948 0.9606,-0.09968 0.3374,0.02527 0.666,0.106293 0.9652,0.219166 0.061,0.02321 0.1216,0.04715 0.18,0.07221 0.5065,0.217198 0.9865,0.571007 1.5485,1.025203 0.2535,0.213995 0.4952,0.422232 0.7079,0.587899 -0.2593,0.07406 -0.5173,0.162788 -0.7704,0.274074 -0.5022,0.217903 -0.9627,0.508871 -1.339,0.880307 -0.4506,0.444736 -0.7198,0.948494 -0.8264,1.411739 -0.02,0.09125 -0.031,0.177653 -0.037,0.258328 -0.032,0.493064 0.2016,0.882421 0.2782,1.034897 0.037,-0.21614 0.1752,-0.503934 0.3443,-0.897581 0.025,-0.05885 0.052,-0.121481 0.082,-0.186643 0.1415,-0.331922 0.3574,-0.706766 0.7135,-1.059811 0.2983,-0.295698 0.6673,-0.54859 1.0944,-0.745017 0.4152,-0.188054 0.8581,-0.312737 1.3161,-0.399698 0.4586,-0.08708 0.9296,-0.135084 1.3878,-0.16887 -10e-5,1.47e-4 0.036,-0.0029 0.036,-0.0029 0.3122,-0.01704 0.698,-0.0038 1.132,-0.04424 0.3926,-0.03661 0.828,-0.123802 1.2348,-0.339208 0.4645,-0.247633 0.8119,-0.617571 1.0186,-1.009954 0.1305,-0.247957 0.1943,-0.483487 0.2151,-0.683997 1.1242,0.0282 3.5,-0.267553 4.5733,-0.307655 4.9564,0.0188 14.8354,-0.416562 17.9272,2.113011 6.3348,5.182919 3.997,17.615583 0.6108,23.821677 -14.1009,33.416116 -23.9499,55.7210257 -41.5262,82.633264 -0.2201,0.227627 -0.4462,0.448673 -0.66,0.623477 -0.5361,0.402049 -1.8998,0.929163 -2.7431,0.970793 -0.7622,0.02976 -1.5486,-0.03581 -2.3642,-0.188142 -0.8732,-0.163082 -1.7402,-0.415798 -2.5768,-0.709938 -1.4788,-0.520211 -3.1651,-1.291228 -4.2037,-1.777888 -0.3563,-0.166959 -0.7087,-0.328131 -1.0618,-0.484103 -1.9078,-0.889855 -3.825,-1.569004 -5.7267,-1.948255 -2.1466,-0.42802 -4.1649,-0.451611 -6.041,-0.06102 -0.092,0.0191 -0.1802,0.04292 -0.2706,0.0641 -0.544,-0.0035 -1.3626,0.04809 -2.1465,-0.121041 -0.5171,-0.111551 -0.9719,-0.288206 -1.3619,-0.489216 -0.4825,-0.24872 -0.9529,-0.52212 -1.3776,-0.868584 -0.3965,-0.318995 -0.7298,-0.683203 -0.9591,-1.071033 -0.3928,-0.664137 -0.515,-1.319695 -0.5747,-1.703059 0,0.409011 0.078,1.032018 0.3275,1.812936 0.1426,0.445323 0.3194,0.950962 0.6143,1.456982 0.3206,0.542656 0.7602,1.055052 1.3283,1.43865 0.3502,0.23647 0.7712,0.459867 1.2516,0.628031 -0.3513,0.185733 -0.6853,0.382159 -0.9968,0.5869 -0.3527,0.231799 -0.6908,0.481842 -1.0125,0.747015 -2.0046,1.652439 -2.9309,3.500689 -3.362,4.473156 0.5966,-0.928047 1.8224,-2.453776 3.8889,-3.746413 0.3296,-0.20618 0.6674,-0.397877 1.013,-0.576206 1.1128,-0.57418 2.4246,-1.052349 3.8817,-1.261173 1.6863,-0.244784 3.4946,-0.139285 5.4338,0.335623 1.7223,0.421821 3.4776,1.117628 5.242,2.030633 0.3216,0.175215 0.6454,0.358069 0.976,0.549236 1.065,0.615927 2.3851,1.531164 3.9941,2.453688 0.8411,0.482165 1.7829,0.967179 2.8,1.360884 0.9889,0.382777 2.0557,0.682587 3.1876,0.81723 0.066,0.0079 0.1305,0.0088 0.1962,0.01528 -0.4965,0.429665 -0.9934,0.870171 -1.4681,1.321223 -0.6348,0.60303 -1.2867,1.273336 -1.9071,1.991941 -0.1664,0.06954 -0.3322,0.13811 -0.4999,0.206504 -0.338,0.137875 -0.6441,0.258798 -1.047,0.415974 -0.4881,0.190316 -1.2048,0.464479 -1.7998,0.717049 -0.3532,0.14992 -0.7239,0.319347 -1.0959,0.508047 -0.01,-0.02321 -0.013,-0.04789 -0.021,-0.06763 -0.1232,-0.09701 -0.2415,-0.192078 -0.357,-0.284798 -0.3889,-0.312326 -0.7875,-0.641633 -1.1915,-0.987627 -0.5222,-0.447116 -1.0217,-0.89479 -1.578,-1.412738 -0.5083,-0.473234 -1.0352,-0.979518 -1.5943,-1.503195 0,0 0,-0.0029 0,-0.0029 -0.4797,-0.449261 -1.0585,-0.964976 -1.7204,-1.423932 -1.6154,-1.131318 -3.4883,-1.73708 -5.2975,-1.815492 -1.1579,-0.05018 -2.1492,0.120454 -2.8692,0.327486 -1.2036,0.345994 -2.0301,0.903427 -2.4166,1.160521 0.445,-0.194723 1.3344,-0.505785 2.5204,-0.70891 0.7069,-0.12107 1.6433,-0.224719 2.7237,-0.130207 0.9038,0.07909 1.8165,0.29226 2.6917,0.640281 -0.2165,0.245196 -0.4042,0.504111 -0.569,0.766875 -0.2476,0.394704 -0.4509,0.804509 -0.6367,1.198625 -0.2073,0.439654 -0.3923,0.858331 -0.6067,1.259675 -0.168,0.314588 -0.3478,0.632702 -0.5528,0.934686 -0.5902,0.835592 -1.3692,1.478606 -2.1949,1.914205 -0.2481,0.130883 -0.4907,0.237909 -0.7196,0.323901 -0.9426,0.354132 -1.7515,0.411421 -2.2345,0.41192 0.4684,0.08073 1.3001,0.169428 2.3413,-0.02908 0.2544,-0.04845 0.5297,-0.114254 0.8193,-0.204946 0.9544,-0.298753 1.9722,-0.838118 2.827,-1.703089 0.308,-0.301544 0.5784,-0.623859 0.8157,-0.936743 0.2927,-0.38592 0.5892,-0.799426 0.8589,-1.167601 0.2553,-0.348433 0.4939,-0.666576 0.7415,-0.97235 0.243,-0.300193 0.4825,-0.573239 0.7303,-0.826896 0,-0.0094 0.01,-0.02027 0.01,-0.03355 3e-4,-0.02468 -0.01,-0.06651 -0.025,-0.113931 0.1878,0.121217 0.3718,0.249279 0.5517,0.385479 0.5882,0.450201 1.0999,0.959071 1.5241,1.425959 v 0.0029 c 0.4868,0.536046 0.9269,1.119538 1.3471,1.670537 0.4555,0.597213 0.9105,1.182526 1.427,1.715839 0.3749,0.387125 0.7832,0.742256 1.2342,1.044035 -0.3761,0.269903 -0.7377,0.568685 -1.0679,0.912329 -0.4439,0.470002 -0.7958,0.978754 -1.0848,1.470203 -0.2286,0.388887 -0.4248,0.778303 -0.5939,1.13455 -0.064,0.133909 -0.1255,0.269433 -0.1867,0.406338 h 1.6869 c 0.1403,-0.215023 0.2767,-0.431604 0.4383,-0.640252 0.2986,-0.38545 0.6281,-0.741462 0.9993,-1.045591 0.4226,-0.354573 0.9069,-0.648185 1.4387,-0.911272 0.5409,-0.26767 1.1167,-0.496589 1.6939,-0.720632 0.1101,-0.04272 0.2144,-0.08461 0.3225,-0.126623 -0.4701,0.891764 -0.8498,1.863057 -1.1717,2.961735 -0.046,0.15797 -0.072,0.32396 -0.1154,0.482635 h 1.5856 c 0.3843,-1.045415 0.801,-1.914939 1.2846,-2.671913 0.067,-0.104589 0.1344,-0.205211 0.2024,-0.303571 0.4795,-0.694192 1.0469,-1.314995 1.6497,-1.880125 0.7255,-0.680149 1.5184,-1.295253 2.293,-1.873956 1.0787,-0.805978 2.1273,-1.553375 3.0894,-2.401834 -0.042,0.399434 -0.071,0.805214 -0.067,1.220512 -0.01,1.434831 0.2714,2.808408 0.7043,4.092261 0.4058,1.203326 0.9507,2.325478 1.5266,3.347214 -0.162,0.126652 -0.3284,0.308771 -0.4937,0.471412 h 4.2468 c -0.2894,-0.560724 -0.5932,-1.105847 -0.8498,-1.679703 -0.4543,-1.017153 -0.8347,-2.062362 -1.074,-3.108776 -0.1973,-0.862591 -0.2629,-1.684668 -0.24,-2.483683 0.1597,-0.618159 0.2643,-1.217487 0.7546,-1.95181 0.596,-0.892498 1.1915,-1.785995 1.7875,-2.679522 17.3306,-29.5566826 28.3299,-49.2189105 44.0033,-89.659261 0.2983,-0.667075 0.6325,-1.348134 0.9602,-1.868932 0.2636,-0.419118 0.7135,-0.956309 1.2205,-1.511862 0.1931,-0.204653 0.3696,-0.407073 0.5726,-0.612313 0.3246,-0.337827 0.6455,-0.657615 0.9535,-0.960628 7.0411,-6.637521 18.1067,-10.736186 27.8306,-9.205669 1.1724,0.184558 2.3042,0.503641 3.4001,0.877222 v -4.611942 c -0.9973,-0.96527 -2.0002,-1.947902 -2.9953,-3.030423 -3.9082,-4.251405 -1.5057,-12.505436 2.9953,-20.373782 v -11.189489 c -4.9825,1.86497 -9.861,3.00146 -12.5076,1.64107 -9.8588,-5.0676 -10.4935,-14.91826 -8.2257,-24.13853 0.2251,-0.74155 0.4343,-2.08927 0.7292,-2.85444 0.7551,-2.12479 1.534,-4.8304 1.8623,-7.28797 0.061,-0.27654 0.1313,-0.52285 0.1983,-0.77856 z" /><path
         style="fill:#55b323;fill-opacity:1;stroke:none;stroke-width:0.486663;stroke-linecap:round;stroke-dasharray:0.486663, 1.45999;paint-order:markers fill stroke"
         d="m 1459.1135,-74.201472 c -0.928,0.560871 24.4793,54.646819 24.4793,54.646819 v -21.551872 c 0,0 -23.5514,-33.655788 -24.4793,-33.094947 z"
         id="path33-9"
         sodipodi:nodetypes="zccz" /><path
         id="path1-5"
         style="fill:#84c826;fill-opacity:1;stroke-width:1.79658;paint-order:markers fill stroke"
         d="m 1463.9387,-82.728667 c -3.0411,3.768712 -9.9448,7.764963 -13.8196,4.638266 -3.8749,-3.126727 -3.2535,-12.192435 -0.2125,-15.961129 3.0411,-3.768682 9.7654,-4.101162 13.6403,-0.974436 3.8748,3.126738 3.4328,8.528617 0.3918,12.297299 z"
         sodipodi:nodetypes="sssss" /></g></g></svg>
