<?xml version="1.0" encoding="UTF-8" standalone="no"?>
<!-- Created with Inkscape (http://www.inkscape.org/) -->

<svg
   width="3.9057627in"
   height="3.1673784in"
   viewBox="0 0 374.95321 304.06835"
   version="1.1"
   id="svg5"
   inkscape:version="1.3 (0e150ed6c4, 2023-07-21)"
   sodipodi:docname="Green-neuron2.svg"
   xml:space="preserve"
   xmlns:inkscape="http://www.inkscape.org/namespaces/inkscape"
   xmlns:sodipodi="http://sodipodi.sourceforge.net/DTD/sodipodi-0.dtd"
   xmlns="http://www.w3.org/2000/svg"
   xmlns:svg="http://www.w3.org/2000/svg"><sodipodi:namedview
     id="namedview7"
     pagecolor="#ffffff"
     bordercolor="#e0e0e0"
     borderopacity="1"
     inkscape:pageshadow="2"
     inkscape:pageopacity="0.0"
     inkscape:pagecheckerboard="false"
     inkscape:document-units="px"
     showgrid="false"
     units="px"
     showborder="true"
     inkscape:showpageshadow="true"
     inkscape:deskcolor="#ffffff"
     inkscape:zoom="1.8193268"
     inkscape:cx="129.99314"
     inkscape:cy="232.77841"
     inkscape:window-width="1920"
     inkscape:window-height="991"
     inkscape:window-x="-9"
     inkscape:window-y="-9"
     inkscape:window-maximized="1"
     inkscape:current-layer="layer1" /><defs
     id="defs2" /><g
     inkscape:label="Layer 1"
     inkscape:groupmode="layer"
     id="layer1"
     transform="translate(-1108.6395,191.98639)"><rect
       style="fill:#ffffff;fill-opacity:1;stroke:none;stroke-width:1.12306;paint-order:markers fill stroke"
       id="rect17"
       width="374.95322"
       height="304.06833"
       x="1108.6395"
       y="-191.98639" /><path
       id="path111"
       style="display:inline;fill:#b8de29;fill-opacity:1;stroke:none;stroke-width:0.950736;stroke-linecap:butt;stroke-linejoin:miter;stroke-miterlimit:4;stroke-dasharray:none;stroke-dashoffset:0;stroke-opacity:1;paint-order:markers fill stroke;stop-color:#000000"
       d="m 1395.2663,-102.0049 c 0.2075,0.0186 0.5844,-0.005 1.2424,0.0835 1.6139,0.21971 4.976,0.88323 9.432,0.44068 1.5981,-0.18085 2.8749,-0.4047 4.3349,-0.45961 0.1292,-0.005 0.2559,-0.008 0.3815,-0.0124 1.5815,-0.0331 3.2118,0.15235 4.8198,0.56324 0.1097,-0.0106 0.2196,-0.0198 0.3304,-0.0244 -0.8684,-0.64115 -1.8211,-1.33333 -2.8329,-2.02287 -0.4327,-0.31183 -0.8928,-0.64444 -1.3135,-1.01989 -0.3888,-0.34692 -0.7004,-0.69194 -0.9572,-1.06497 -0.06,-0.0862 -0.1168,-0.177 -0.1716,-0.27311 -0.2736,-0.47453 -0.4436,-1.00051 -0.5378,-1.56745 -0.09,-0.54063 -0.1047,-1.08794 -0.095,-1.58541 0.019,-1.18532 0.1663,-2.18118 0.3371,-2.70495 0.1203,-0.36716 0.3128,-0.59075 0.3763,-0.704 0.025,0.12986 0.138,0.39422 0.1646,0.7711 0.039,0.52258 -0.018,1.51285 0.021,2.63318 0.018,0.47883 0.042,0.96425 0.1292,1.4273 0.089,0.48006 0.2314,0.88872 0.4412,1.23811 0.042,0.0711 0.087,0.1389 0.1345,0.20351 0.2003,0.27814 0.4737,0.5402 0.8315,0.80463 0.3991,0.29532 0.836,0.54661 1.307,0.82953 2.6678,1.85064 4.9017,3.90826 7.4099,5.536184 -0.5225,-0.99834 -0.9165,-2.081524 -1.139,-3.225104 -0.4944,-2.54163 -0.018,-4.68967 0.4816,-5.7889 0.3361,-0.74724 0.8009,-1.16019 0.9635,-1.35624 -0.041,0.26956 -0.023,0.83834 -0.1238,1.6007 -0.1522,1.1346 -0.4739,3.00265 0.018,5.27021 0.3709,1.7185 1.1469,3.294454 2.1927,4.586714 6.0933,2.47697 15.2032,7.64023 18.7364,7.46048 10.5273,0.95547 15.0273,-10.662714 16.2395,-19.251114 0.2608,-1.13994 0.7148,-2.68524 1.149,-4.05402 0.256,-1.03772 0.7667,-2.67784 1.205,-4.52162 0.041,-0.16757 0.083,-0.34981 0.1238,-0.52416 -2e-4,-0.003 0,-0.007 0,-0.0106 0.042,-0.25578 0.1855,-0.65847 0.2515,-1.18251 0.062,-0.48694 0.053,-1.05833 -0.1345,-1.63517 -0.083,-0.28753 -0.2002,-0.56964 -0.3427,-0.87449 -0.1522,-0.325 -0.3166,-0.64777 -0.4542,-0.92985 0,-0.0124 -0.018,-0.0253 -0.019,-0.0383 -0.4242,-0.83841 -0.7074,-1.78372 -0.7883,-2.75861 -0.084,-1.01197 0.056,-1.98907 0.4112,-2.86095 0.089,-0.16685 0.1842,-0.30725 0.2758,-0.40911 0.1381,-0.15269 0.3164,-0.24228 0.3864,-0.28979 0,0.0791 0.018,0.28521 -0.018,0.46854 -0.018,0.12403 -0.055,0.28017 -0.094,0.44349 -0.2839,0.79233 -0.3821,1.67155 -0.2817,2.58299 0.097,0.87941 0.3721,1.72815 0.7721,2.47693 0,0.0124 0.018,0.0234 0.018,0.0352 0.1558,0.27373 0.3256,0.50639 0.553,0.84706 0.1362,0.2036 0.2733,0.42082 0.3949,0.65368 0.1167,-0.33818 0.2414,-0.66617 0.3788,-0.98539 0.018,-0.0237 0.019,-0.0472 0.03,-0.0711 0.6877,-1.56917 1.7739,-3.09228 3.2885,-4.26164 1.5042,-1.1614 3.0322,-1.65337 3.8887,-1.74635 0.5636,-0.0612 0.9698,0.0706 1.1466,0.0958 -0.1716,0.0793 -0.4908,0.3145 -0.9859,0.52661 -0.6731,0.28843 -1.7595,0.65987 -2.9623,1.45503 0.06,-0.0142 0.1221,-0.027 0.1842,-0.0391 0.4369,-0.0856 0.8523,-0.11607 1.2366,-0.12014 0.6366,-0.007 1.283,0.085 1.8984,0.28869 0.2912,0.10581 0.5472,0.23331 0.7479,0.3676 0.3105,0.20788 0.5229,0.48198 0.6329,0.6043 -0.138,-0.041 -0.5116,-0.10295 -0.824,-0.17962 -0.2147,-0.0527 -0.4678,-0.1219 -0.7366,-0.18081 -0.5625,-0.14243 -1.1358,-0.20255 -1.6993,-0.177 -0.3392,0.016 -0.7028,0.073 -1.0749,0.17534 -0.8125,0.22321 -1.5476,0.67254 -1.9796,0.84339 -0.1168,0.046 -0.3915,0.2284 -0.5513,0.34386 -0.7132,0.78735 -1.0707,1.41316 -1.4686,2.3281 -0.018,0.0221 -0.019,0.0433 -0.028,0.0653 -0.2923,0.68711 -0.5078,1.44191 -0.6989,2.31141 -0.3142,2.35203 -1.0597,4.94141 -1.7823,6.97496 -0.2822,0.73235 -0.4823,2.02243 -0.6978,2.73213 -2.1705,8.82439 -1.5631,18.252014 7.8724,23.102034 5.0941,2.618421 18.823,-4.41445 24.6396,-7.38771 0.8613,-0.83365 2.9523,-2.48411 5.2838,-4.51315 0.5509,-0.464714 1.1141,-0.916694 1.6643,-1.365564 0.1275,-0.10348 0.2635,-0.21522 0.3795,-0.31088 0.4201,-0.34629 0.9083,-0.72833 1.4554,-1.04756 0.7381,-0.4307 1.5022,-0.69506 2.2499,-0.73167 0.2716,-0.007 0.5103,0.0197 0.701,0.0665 0.4385,0.1081 0.7246,0.36833 0.8584,0.46472 -0.1575,0.003 -0.5302,0.086 -0.9005,0.13306 -0.1699,0.0216 -0.3655,0.0423 -0.5878,0.0816 -0.6083,0.0925 -1.2369,0.32392 -1.8908,0.71497 -0.4859,0.29056 -0.935,0.63714 -1.3385,0.97581 -0.115,0.0973 -0.2346,0.20197 -0.3584,0.3142 -0.4958,0.449684 -1.0431,0.996954 -1.5589,1.469994 -0.4539,0.40389 -0.894,0.78283 -1.3241,1.14739 0.5006,0.005 1.2102,0.13093 1.9648,0.35734 0.5974,0.17622 1.19,0.39742 1.7425,0.59582 0.3053,0.10953 0.5859,0.20769 0.8628,0.29547 0.2565,0.0814 0.5364,0.16579 0.8262,0.24184 0.9334,0.23624 1.7388,0.32972 2.8233,0.53058 0.994,0.18407 1.9493,0.42231 2.8325,0.88214 0.8757,0.49108 1.4341,1.09745 1.6902,1.44904 0.1769,0.24238 0.2512,0.44956 0.2914,0.53291 -0.078,-0.0628 -0.2497,-0.16986 -0.4812,-0.34952 -0.3415,-0.26507 -0.9235,-0.72156 -1.7744,-1.06766 -0.821,-0.36745 -1.7076,-0.54358 -2.6824,-0.67925 -1.0181,-0.14173 -1.9388,-0.22065 -2.9039,-0.43578 -0.2048,-0.0439 -0.3993,-0.0934 -0.587,-0.14368 -0.032,0.32222 -0.2276,0.85952 -0.3381,1.51835 -0.1116,0.66257 -0.1239,1.33888 0,1.99621 0.065,0.31454 0.1591,0.59829 0.2649,0.84175 0.1944,0.44861 0.4659,0.87882 0.7974,1.27304 0.5977,0.7108 1.1285,1.0315 1.4811,1.33899 0.1716,0.14952 0.2577,0.30384 0.3137,0.36273 -0.078,4.9e-4 -0.2608,0.0444 -0.4943,-0.0198 -0.4279,-0.11748 -1.1371,-0.53551 -1.7859,-1.25985 -0.3845,-0.42923 -0.6966,-0.90546 -0.9425,-1.40148 -0.1327,-0.26904 -0.2693,-0.58052 -0.3825,-0.93461 -0.2404,-0.7297 -0.3505,-1.52698 -0.2756,-2.3261 0.069,-0.72486 0.2817,-1.31581 0.5036,-1.63842 -0.115,-0.0354 -0.2249,-0.0671 -0.3475,-0.10506 -0.5769,-0.17893 -1.1431,-0.35783 -1.7157,-0.50765 -0.9738,-0.24944 -1.9446,-0.40966 -2.27,-0.61491 -0.058,-0.0365 -0.1004,-0.083 -0.1379,-0.13112 -1.5683,1.29163 -2.8785,2.24644 -3.5991,2.64901 -9.0083,7.08224 -22.791,27.826863 -15.8516,35.3756 4.7252,5.140181 9.7023,8.926829 12.6884,11.084966 0,0.0013 0,10e-4 0.018,0.0018 0.8699,0.412493 1.9096,0.4976 2.7365,0.659356 0.5072,0.09678 0.9429,0.149335 1.3655,0.119786 0.021,-0.0015 0.042,-0.0035 0.066,-0.0053 0.2109,-0.01787 0.4282,-0.0568 0.6943,-0.112532 0.247,-0.05166 0.5544,-0.122086 0.8504,-0.166321 0.7831,-0.119786 1.5765,-0.07856 2.3265,0.101212 0.7975,0.19111 1.5143,0.53113 2.1127,0.965882 0.716,0.520196 1.2209,1.143633 1.5503,1.706541 0.3309,0.565225 0.4848,1.063143 0.538,1.381435 0.073,0.432506 -0.042,0.704936 -0.06,0.81492 -0.069,-0.114302 -0.2491,-0.276801 -0.4544,-0.637328 -0.1415,-0.24987 -0.3565,-0.667105 -0.692,-1.122967 -0.3374,-0.458743 -0.8006,-0.959883 -1.4199,-1.373384 -0.5165,-0.344939 -1.1253,-0.616839 -1.7993,-0.767235 -0.6341,-0.14155 -1.2979,-0.168622 -1.9465,-0.06617 -0.097,0.01593 -0.1956,0.03557 -0.2938,0.05556 0.084,0.07662 0.168,0.166321 0.2481,0.270058 0.3095,0.402869 0.5166,0.951374 0.5458,1.553172 0.018,0.235521 0,0.462638 -0.027,0.656791 0,0.07466 -0.018,0.140311 -0.019,0.208838 -0.018,0.116071 -0.018,0.239538 -0.019,0.359997 0,0.418226 0.078,0.849032 0.2229,1.290066 0.1451,0.437601 0.346,0.855685 0.571,1.245212 0.6401,1.099399 1.4367,1.876117 1.7146,2.243509 0.1664,0.220747 0.1791,0.387386 0.2184,0.464336 -0.078,-0.01239 -0.2581,0.02442 -0.5147,-0.101561 -0.449,-0.220569 -1.3667,-0.957654 -2.1378,-2.166488 -0.2682,-0.417572 -0.5146,-0.888755 -0.6942,-1.39706 -0.1816,-0.514214 -0.2847,-1.039311 -0.2952,-1.567185 0,-0.147388 0,-0.297413 0,-0.414847 0,-0.06972 0,-0.139603 0,-0.208378 0,-0.191535 0,-0.36718 -0.028,-0.533236 -0.053,-0.411856 -0.2069,-0.764403 -0.3749,-1.06732 -0.071,-0.128633 -0.1557,-0.264007 -0.2276,-0.392658 -0.044,-0.07873 -0.085,-0.164551 -0.1256,-0.250154 -0.1204,0.02087 -0.241,0.03981 -0.3635,0.05308 -0.029,0.0035 -0.057,0.0053 -0.085,0.0089 -0.5519,0.04707 -1.0893,-0.01239 -1.6335,-0.104215 -0.1398,0.0018 -0.5885,-0.01415 -0.7612,0.0053 0.1557,0.295555 0.2887,0.624747 0.3777,0.988158 0.1115,0.463735 0.1416,0.941606 0.1221,1.427333 -0.019,0.466407 -0.085,0.923312 -0.1592,1.35042 -0.079,0.457294 -0.1681,0.883977 -0.2277,1.266445 0,0.06175 -0.019,0.123502 -0.026,0.182882 -0.045,0.324485 -0.083,0.677934 -0.09,1.03701 -0.021,1.084306 0.2322,2.142319 0.7359,3.036966 0.4017,0.702015 0.9327,1.233287 1.4375,1.618709 0.5235,0.399648 1.0036,0.632851 1.2955,0.786822 0.3494,0.184333 0.5349,0.343718 0.6505,0.403823 -0.1114,0.01415 -0.3862,0.105102 -0.7957,0.0368 -0.3513,-0.05857 -0.9255,-0.237909 -1.5584,-0.638671 -0.6072,-0.384502 -1.2553,-0.967669 -1.7545,-1.775475 -0.638,-1.019122 -0.9438,-2.243916 -0.9429,-3.477999 0,-0.406584 0.031,-0.799685 0.063,-1.141846 0,-0.06334 0.018,-0.126333 0.019,-0.191729 0.037,-0.379548 0.089,-0.860197 0.1168,-1.275965 0.028,-0.412316 0.041,-0.819023 0.018,-1.213611 -0.023,-0.408796 -0.081,-0.770755 -0.1752,-1.105114 -0.1574,-0.57508 -0.4425,-1.048068 -0.7229,-1.417195 -0.2581,-0.352971 -0.368,-0.575983 -0.8389,-0.933802 -2.4776,-1.094746 -7.1182,-4.451826 -12.4156,-5.285659 -9.3064,-1.464827 -19.8968,2.457868 -26.6358,8.810387 -0.2948,0.29 -0.6016,0.596295 -0.9121,0.91963 -0.1943,0.196436 -0.3636,0.389934 -0.5485,0.585803 -0.4851,0.531714 -0.9155,1.04584 -1.168,1.446991 -0.3135,0.498414 -0.6332,1.15034 -0.9188,1.788746 -15.0006,38.70403023 -25.5273,57.521996 -42.1139,85.809652 -0.5704,0.855137 -1.1405,1.71031 -1.7108,2.564491 -0.4692,0.702777 -0.5691,1.276194 -0.7221,1.867801 -0.021,0.764704 0.041,1.551331 0.2297,2.376919 0.229,1.001446 0.5931,2.001778 1.028,2.975215 0.4567,1.021528 0.996,2.03444 1.5125,2.990165 0.5226,0.967139 0.9421,1.730074 1.3909,2.613255 0.083,0.165613 0.1663,0.332802 0.2481,0.501298 1.0259,2.049144 1.7992,4.276216 2.1638,6.553679 0.3691,2.308674 0.3143,4.643041 -0.2974,6.875952 -0.7114,2.362499 -2.0094,4.373301 -3.6406,5.824574 -1.186,1.055217 -2.5082,1.772396 -3.7892,2.199398 -0.7523,0.250773 -1.5369,0.415218 -2.337,0.473661 -0.2158,-0.08051 -0.4141,-0.14615 -0.5003,-0.182564 0.089,-0.04972 0.2617,-0.133056 0.4514,-0.261867 0.7534,-0.112355 1.4795,-0.325971 2.1607,-0.620518 1.1642,-0.50335 2.305,-1.29794 3.2615,-2.367418 1.3154,-1.470789 2.2342,-3.390486 2.6277,-5.501168 0.4266,-1.968886 0.3727,-4.018171 -0.05,-6.055354 -0.4168,-2.014357 -1.1889,-3.994584 -2.1833,-5.829156 -0.083,-0.149689 -0.1698,-0.299272 -0.2569,-0.448412 -0.4487,-0.770684 -0.9382,-1.518297 -1.5284,-2.408626 -0.1947,-0.293769 -0.4107,-0.623792 -0.6221,-0.946242 -0.6643,0.802692 -1.555,1.82162 -2.2473,3.159193 -0.9257,1.78818 -1.346,3.815578 -1.1087,5.681875 0.041,0.319991 0.099,0.644405 0.1734,0.970729 0.213,0.956859 0.5635,1.878647 0.943,2.869796 0.392,1.02305 0.7515,1.967983 0.9787,2.974878 0.1645,0.752726 0.2274,1.442639 0.2244,2.024355 0,1.181444 -0.2725,2.114894 -0.4069,2.592218 0.036,-0.530494 0.021,-1.418258 -0.1344,-2.558016 -0.074,-0.5513 -0.1822,-1.190113 -0.3767,-1.887706 -0.2541,-0.939482 -0.6212,-1.825495 -1.0529,-2.835576 -0.413,-0.966696 -0.8267,-1.918758 -1.1287,-2.93091 -0.1026,-0.350529 -0.1883,-0.699484 -0.2591,-1.045679 -0.115,-0.561015 -0.2032,-1.148358 -0.262,-1.751767 -0.1115,0.05768 -0.2302,0.111117 -0.3531,0.15429 -0.5786,0.203035 -1.4618,0.340675 -2.3774,0.758246 -0.5568,0.253904 -1.1007,0.597711 -1.5737,1.048123 -0.3901,0.371585 -0.781,0.829338 -1.1159,1.38048 -0.031,0.04812 -0.058,0.0982 -0.089,0.147388 0.1132,0.02494 0.2283,0.06387 0.3399,0.131996 0.4093,0.24934 0.9006,0.871539 1.3104,1.659863 0.4277,0.822564 0.6823,1.638668 0.891,2.404381 0,0.0018 0.018,0.06741 0.019,0.06919 0.4071,1.492217 0.4033,2.882181 0.2718,3.986782 -0.076,0.639414 -0.1922,1.135423 -0.2631,1.408171 0.037,-0.279455 0.094,-0.784292 0.087,-1.417797 -0.018,-1.107502 -0.2179,-2.409476 -0.7531,-3.759789 0,-0.02053 -0.018,-0.04069 -0.024,-0.06158 -0.2817,-0.682712 -0.7131,-1.357178 -1.2124,-2.009527 -0.4643,-0.606647 -0.9592,-1.150392 -1.137,-1.51191 -0.026,0.05556 -0.053,0.109701 -0.078,0.166674 -0.1966,0.42672 -0.3869,0.87322 -0.5907,1.304575 -0.2202,0.465699 -0.448,0.893461 -0.7111,1.284988 -0.1451,0.21627 -0.2943,0.410229 -0.448,0.586157 -0.1573,0.17998 -0.33,0.352618 -0.5219,0.510924 -0.4584,0.334764 -0.8823,0.499989 -1.1214,0.576708 0.2208,-0.126332 0.5949,-0.364437 0.9493,-0.766403 0.1645,-0.164375 0.31,-0.341151 0.439,-0.523043 0.1256,-0.177769 0.2453,-0.373373 0.3586,-0.590068 0.2049,-0.391721 0.3746,-0.820209 0.5327,-1.290155 0.1469,-0.437724 0.2828,-0.899706 0.4336,-1.360185 0.1557,-0.475341 0.3237,-0.934989 0.5405,-1.377614 0.3326,-0.655323 0.7416,-1.211471 1.1662,-1.666677 0.5131,-0.549867 1.08,-1.037205 1.7048,-1.426431 1.0437,-0.650298 2.1052,-0.931255 2.8444,-0.865399 0.1504,0.01415 0.289,0.04759 0.4174,0.09148 -0.04,-1.260128 0.083,-2.584112 0.471,-3.926534 0.6271,-2.165711 1.8048,-3.809721 2.8599,-4.634549 -0.5512,-0.97786 -1.0729,-2.051957 -1.4614,-3.203641 -0.4142,-1.228721 -0.6793,-2.543381 -0.6738,-3.916643 0,-0.397436 0.023,-0.785388 0.063,-1.167697 -0.9208,0.812054 -1.9243,1.527216 -2.9568,2.29859 -0.7413,0.553884 -1.5002,1.142466 -2.1947,1.793452 -0.5768,0.540861 -1.1198,1.134786 -1.5786,1.799185 -0.066,0.09413 -0.1292,0.190826 -0.1936,0.29092 -0.4628,0.724557 -0.8617,1.556728 -1.2295,2.557466 -0.3313,0.901317 -0.5995,1.829742 -0.8828,2.836708 -0.2767,0.983364 -0.5479,1.963648 -0.8823,2.92822 -0.3604,1.040072 -0.7644,1.973734 -1.2665,2.828552 -0.7615,1.275044 -1.6224,2.148476 -2.2005,2.639582 -0.6566,0.557954 -1.2433,0.853846 -1.4781,0.98531 0.1895,-0.181821 0.6388,-0.671653 1.1607,-1.299709 0.4709,-0.566428 1.1799,-1.472381 1.7732,-2.723999 0.4012,-0.829056 0.7142,-1.729472 0.9872,-2.745392 0.2552,-0.948683 0.4523,-1.908744 0.6639,-2.917161 0.2142,-1.021139 0.4308,-2.014357 0.718,-2.994624 0.3081,-1.05152 0.6713,-1.9809 1.1213,-2.834374 -0.1025,0.04016 -0.2034,0.08016 -0.3086,0.121026 -0.5524,0.214412 -1.1034,0.433796 -1.6211,0.689948 -0.5091,0.251799 -0.9725,0.532386 -1.377,0.871769 -0.3552,0.291062 -0.6704,0.631966 -0.9561,1.000844 -0.2256,0.29108 -0.4291,0.595147 -0.6112,0.893161 -0.069,0.113418 -0.1379,0.22986 -0.2069,0.349009 -0.5276,0.907563 -1.0004,1.861767 -1.6185,2.737801 -1.0427,1.641002 -2.3837,2.799798 -3.6007,3.557124 -0.7231,0.450093 -1.3973,0.757309 -1.9542,0.962485 -1.2823,0.47251 -2.3331,0.5197 -2.7733,0.54916 0.4371,-0.11094 1.4075,-0.428135 2.5705,-1.016415 0.5069,-0.256435 1.1175,-0.60302 1.7658,-1.076273 1.0935,-0.798464 2.268,-1.941637 3.1486,-3.485183 0.4234,-0.84215 0.8068,-1.873675 1.2427,-2.85012 0.06,-0.133587 0.1203,-0.265848 0.1817,-0.396569 0.1609,-0.340958 0.3497,-0.7138 0.5686,-1.085986 0.2764,-0.470353 0.6131,-0.957566 1.0379,-1.407376 0.316,-0.328891 0.6621,-0.614856 1.0222,-0.873166 -0.4318,-0.28885 -0.8226,-0.628375 -1.1814,-0.998899 -0.4942,-0.510428 -0.9293,-1.070646 -1.3652,-1.642223 -0.4023,-0.527362 -0.8235,-1.085934 -1.2894,-1.598999 v -0.0035 c -0.4061,-0.446836 -0.8958,-0.933661 -1.4589,-1.364521 -0.1716,-0.130402 -0.3483,-0.253338 -0.5281,-0.369339 0.018,0.0453 0.025,0.08563 0.025,0.109347 0,0.01239 0,0.02318 0,0.03185 -0.2371,0.242776 -0.4662,0.504289 -0.6989,0.791599 -0.2369,0.292672 -0.4652,0.596808 -0.7095,0.930264 -0.2582,0.352371 -0.5419,0.748515 -0.822,1.117871 -0.2273,0.299466 -0.4858,0.607832 -0.7807,0.896399 -0.818,0.827835 -1.7926,1.344102 -2.7059,1.630068 -0.2773,0.0867 -0.5406,0.149865 -0.784,0.196206 -0.9965,0.189888 -1.7924,0.104743 -2.2406,0.0276 0.4622,-4.96e-4 1.2363,-0.05555 2.1385,-0.394411 0.2189,-0.08227 0.451,-0.184457 0.6885,-0.309746 0.7904,-0.416864 1.5359,-1.032286 2.1008,-1.832007 0.1961,-0.289026 0.3683,-0.593783 0.5292,-0.894859 0.205,-0.384112 0.382,-0.784379 0.5804,-1.205136 0.1779,-0.377212 0.3725,-0.769499 0.6095,-1.14726 0.1574,-0.251481 0.3371,-0.499635 0.5445,-0.734324 -0.8376,-0.333067 -1.7113,-0.536704 -2.5763,-0.612398 -1.0341,-0.09041 -1.9299,0.0089 -2.6065,0.124388 -1.1351,0.1944 -1.9863,0.492221 -2.4119,0.678536 0.3697,-0.246014 1.1606,-0.779391 2.3126,-1.110528 0.6891,-0.198152 1.6376,-0.361748 2.7458,-0.31371 1.7315,0.07502 3.524,0.654969 5.0701,1.737734 0.6335,0.439212 1.1878,0.932618 1.6467,1.362576 0,0 0,0.0035 0,0.0035 0.5351,0.501244 1.0392,0.985609 1.5257,1.438569 0.5325,0.495671 1.0106,0.924266 1.5104,1.352223 0.3866,0.331086 0.7681,0.646139 1.1402,0.945057 0.1096,0.08883 0.2238,0.17975 0.3419,0.272572 0,0.01893 0.018,0.04229 0.019,0.06441 0.3562,-0.180582 0.7108,-0.342497 1.0489,-0.486011 0.5694,-0.241714 1.2551,-0.504146 1.7223,-0.686285 0.3856,-0.150397 0.6785,-0.266274 1.0022,-0.398233 0.1609,-0.06547 0.3193,-0.130756 0.4786,-0.197285 0.5937,-0.687772 1.2172,-1.329293 1.8249,-1.906408 0.4544,-0.431673 0.93,-0.853492 1.4052,-1.264693 -0.063,-0.0071 -0.1256,-0.0071 -0.1881,-0.01415 -1.0832,-0.128809 -2.1041,-0.415943 -3.0505,-0.782292 -0.9733,-0.376787 -1.8749,-0.840716 -2.68,-1.30215 -1.5398,-0.882934 -2.803,-1.759197 -3.8223,-2.348681 -0.3161,-0.182952 -0.6264,-0.357979 -0.934,-0.52568 -1.6887,-0.873804 -3.3687,-1.539653 -5.0171,-1.943352 -1.8561,-0.454534 -3.5861,-0.5556 -5.2002,-0.321318 -1.3944,0.199867 -2.65,0.657498 -3.7151,1.207065 -0.3308,0.170744 -0.654,0.35451 -0.9695,0.551813 -1.9778,1.237162 -3.1512,2.696946 -3.7222,3.585153 0.4126,-0.930725 1.2994,-2.699441 3.2178,-4.280923 0.3081,-0.253798 0.6315,-0.492999 0.9691,-0.714843 0.2981,-0.19594 0.6176,-0.384113 0.9539,-0.561846 -0.4597,-0.161013 -0.8625,-0.374505 -1.1976,-0.600807 -0.5438,-0.367127 -0.9644,-0.85788 -1.2712,-1.377243 -0.2823,-0.484278 -0.452,-0.96804 -0.5883,-1.394247 -0.2393,-0.747364 -0.3108,-1.343659 -0.3132,-1.735133 0.056,0.366949 0.1733,0.99451 0.5497,1.630138 0.2195,0.371144 0.5386,0.719622 0.918,1.024891 0.4066,0.331616 0.8566,0.593305 1.3185,0.831356 0.3733,0.192384 0.8088,0.361342 1.3036,0.468106 0.7502,0.161897 1.5338,0.112531 2.0543,0.11607 0.087,-0.02017 0.1716,-0.04334 0.2588,-0.06175 1.7956,-0.37385 3.7274,-0.351043 5.7818,0.05857 1.82,0.362951 3.6548,1.013036 5.4806,1.864687 0.338,0.149336 0.6752,0.303589 1.0161,0.463399 0.9941,0.465733 2.6083,1.203455 4.0234,1.70132 0.8008,0.281525 1.6307,0.523309 2.4664,0.679386 0.7804,0.145796 1.5328,0.208714 2.2623,0.180228 0.8071,-0.03982 2.1125,-0.544401 2.6256,-0.929168 0.2046,-0.167205 0.4207,-0.378999 0.6313,-0.596862 16.8217,-25.756747 26.2477,-47.1036578 39.7432,-79.085034 3.2408,-5.939654 5.4782,-17.838195 -0.5844,-22.798608 -2.9591,-2.420942 -12.4137,-2.004343 -17.1572,-2.022408 -1.0273,0.0384 -3.3013,0.321317 -4.3771,0.294316 -0.02,0.191906 -0.081,0.417324 -0.206,0.654614 -0.1978,0.375532 -0.53,0.729778 -0.9746,0.966767 -0.3893,0.206132 -0.8062,0.289522 -1.1818,0.324538 -0.4155,0.03857 -0.7848,0.02583 -1.0834,0.04229 0,1.7e-5 -0.034,0.0018 -0.034,0.0018 -0.4387,0.03239 -0.8892,0.0782 -1.3283,0.161544 -0.4382,0.08316 -0.862,0.202734 -1.2593,0.382696 -0.4089,0.187997 -0.7618,0.430188 -1.0474,0.713199 -0.3407,0.337879 -0.5476,0.696407 -0.6829,1.014079 -0.029,0.06229 -0.055,0.122264 -0.078,0.178494 -0.1609,0.376752 -0.2941,0.652473 -0.3292,0.859331 -0.073,-0.145974 -0.2972,-0.518443 -0.2662,-0.990335 0,-0.07715 0.018,-0.159951 0.035,-0.247216 0.1026,-0.44337 0.3596,-0.925753 0.7908,-1.351393 0.3602,-0.355537 0.8007,-0.633753 1.2813,-0.842274 0.2423,-0.106515 0.4893,-0.191835 0.7376,-0.262715 -0.2037,-0.158536 -0.4351,-0.357679 -0.6777,-0.562466 -0.5379,-0.434716 -0.9974,-0.773091 -1.482,-0.980957 -0.056,-0.02407 -0.1132,-0.04707 -0.1717,-0.06919 -0.2864,-0.108108 -0.601,-0.185784 -0.9239,-0.209989 -0.3236,-0.02424 -0.6328,0.0071 -0.9192,0.09573 -0.2481,0.06175 -0.4383,0.148273 -0.5885,0.211068 -0.1504,0.06299 -0.2937,0.102798 -0.352,0.130226 0.026,-0.05963 0.071,-0.205354 0.1905,-0.346266 0.1132,-0.13288 0.3117,-0.298847 0.5858,-0.432028 0.3385,-0.145265 0.7111,-0.216941 1.1008,-0.219101 0.3872,-0.0018 0.7648,0.06441 1.1081,0.167207 0.069,0.02087 0.138,0.04264 0.2047,0.06582 0.5872,0.204894 1.1237,0.473024 1.759,0.856022 0.4436,0.3345 1.2414,1.129796 1.3915,1.066116 0.3461,-0.05131 0.5376,-0.08422 0.8624,-0.11377 0,0 0.036,-0.0035 0.036,-0.0035 0.2992,-0.03203 0.6563,-0.0883 0.9765,-0.188278 0.3017,-0.09448 0.5557,-0.22218 0.7517,-0.389015 0.2178,-0.184014 0.3571,-0.404124 0.4511,-0.600683 0.062,-0.130579 0.1063,-0.24895 0.1487,-0.34915 0,-0.0018 -0.018,-0.0053 -0.026,-0.0071 -0.8979,-0.264717 -1.7397,-0.64683 -2.6023,-1.061305 -0.8507,-0.408778 -1.6201,-0.796446 -2.4359,-1.106989 -0.5756,-0.226763 -1.1251,-0.391402 -1.6422,-0.494362 -0.5988,-0.119255 -1.2369,-0.186261 -1.8934,-0.166852 -1.279,0.03769 -2.4429,0.405186 -3.3678,1.011532 -0.3572,0.220481 -0.6382,0.438078 -0.8695,0.611813 -0.3502,0.263389 -0.6938,0.480862 -0.8247,0.595145 0.055,-0.170213 0.138,-0.571577 0.4192,-0.978461 0.1782,-0.257745 0.4553,-0.564466 0.8291,-0.860215 1.018,-0.766457 2.3403,-1.219999 3.7746,-1.297639 0.7363,-0.03982 1.4466,0.01964 2.1079,0.131995 0.573,0.09749 1.1775,0.236919 1.8204,0.436131 0.888,0.285506 1.7323,0.650722 2.5814,1.005233 0.884,0.369109 1.6579,0.675953 2.4654,0.893321 3.1384,0.955884 6.4517,-0.425623 8.8733,-0.987044 7.9579,-1.840234 12.6113,-8.352084 10.7036,-16.939919 -2.1797,-8.207037 -8.2532,-14.020787 -14.6794,-19.094507 -0.3491,-0.34219 -1.0027,-0.51478 -1.3493,-0.75985 -1.1726,-0.4893 -2.3698,-0.845724 -3.5673,-1.080954 -0.3554,0.0931 -0.6723,0.2225 -0.9456,0.37488 -0.019,0.0106 -0.039,0.0228 -0.058,0.0338 -0.3119,0.181904 -0.6006,0.400484 -0.8931,0.633904 -0.315,0.25098 -0.6291,0.51435 -0.9667,0.75396 -1.2393,0.91449 -2.6908,1.45873 -4.176,1.7729 -0.6807,0.14403 -1.3723,0.23962 -2.059,0.30053 -0.8525,0.0756 -1.7455,0.0998 -2.6753,0.0796 -1.0747,-0.0808 -1.9737,-0.22988 -2.481,-0.3074 0.5306,-0.005 1.3551,-0.0472 2.4214,-0.12369 0.913,-0.0142 1.7803,-0.0674 2.6069,-0.16367 0.6649,-0.0775 1.3299,-0.18829 1.9807,-0.34197 1.4208,-0.33571 2.7777,-0.87953 3.9227,-1.75066 0.3018,-0.23936 0.6,-0.50791 0.9197,-0.772704 0.2951,-0.24454 0.6122,-0.48707 0.9687,-0.68969 0.018,-0.008 0.026,-0.0142 0.039,-0.0218 -0.9449,-0.11306 -1.883,-0.1534 -2.8018,-0.1265 -0.1186,0.003 -0.2389,0.007 -0.3605,0.0142 -1.2196,0.0662 -2.7987,0.30358 -4.2929,0.40497 -4.5294,0.36765 -8.1609,-0.46064 -9.634,-0.98095 -0.62,-0.21898 -0.9615,-0.45926 -1.1306,-0.54554 z"
       sodipodi:nodetypes="csccsccccccscscscscccccsscsscccccccscsccscccscsccscccsscccsscscscsssccccccsccccscscscssccccsscscscccsccscssscssscscscsccscccccscsssscscssccccsscscscscscsscsccsccccscssccsscssccsscscccscccsccscscsscsccscccsccscsscsscscscscscscsssccssccscsscscsssscccsssscssscscscccsscssscscscsssccscssccsscsscsssccssccccccssscsccsscssscsscsscscsssccssscsccscscscsscsscscscscssccscscsccccsccsccccscscccscscccscscscscsccccsccccccscsccccscsscsccccccccscsscccsscsscsccscc" /><path
       style="fill:#55b323;fill-opacity:1;stroke:none;stroke-width:0.489515;stroke-linecap:round;stroke-dasharray:0.489515, 1.46854;paint-order:markers fill stroke"
       d="m 1447.7559,-92.820076 c 0.9435,-0.275 -36.6191,-84.898484 -36.6191,-84.898484 l -18.5268,0.38867 c 0,0 54.2023,84.784834 55.1459,84.509814 z"
       id="path16-4"
       sodipodi:nodetypes="zccz" /><path
       style="fill:#55b323;fill-opacity:1;stroke:none;stroke-width:0.489515;stroke-linecap:round;stroke-dasharray:0.489515, 1.46854;paint-order:markers fill stroke"
       d="m 1458.9701,-58.998615 c -0.9335,0.564158 24.6227,54.9670112 24.6227,54.9670112 V -25.709754 c 0,0 -23.6894,-33.852988 -24.6227,-33.288861 z"
       id="path33-9"
       sodipodi:nodetypes="zccz" /><path
       id="path1-5"
       style="fill:#55b323;fill-opacity:1;stroke-width:1.80711;paint-order:markers fill stroke"
       d="m 1463.8235,-67.575773 c -3.0589,3.790794 -10.003,7.81046 -13.9005,4.665443 -3.8976,-3.145047 -3.2726,-12.263874 -0.2138,-16.05465 3.0589,-3.790764 9.8226,-4.125192 13.7202,-0.980146 3.8975,3.145059 3.453,8.578589 0.3941,12.369353 z"
       sodipodi:nodetypes="sssss" /></g></svg>
