<?xml version="1.0" encoding="UTF-8" standalone="no"?>
<!-- Created with Inkscape (http://www.inkscape.org/) -->

<svg
   width="12.997963in"
   height="6.6469789in"
   viewBox="0 0 1247.8044 638.11"
   version="1.1"
   id="svg5"
   inkscape:version="1.3 (0e150ed6c4, 2023-07-21)"
   sodipodi:docname="Green-neuron.svg"
   xml:space="preserve"
   xmlns:inkscape="http://www.inkscape.org/namespaces/inkscape"
   xmlns:sodipodi="http://sodipodi.sourceforge.net/DTD/sodipodi-0.dtd"
   xmlns="http://www.w3.org/2000/svg"
   xmlns:svg="http://www.w3.org/2000/svg"><sodipodi:namedview
     id="namedview7"
     pagecolor="#ffffff"
     bordercolor="#e0e0e0"
     borderopacity="1"
     inkscape:pageshadow="2"
     inkscape:pageopacity="0.0"
     inkscape:pagecheckerboard="false"
     inkscape:document-units="px"
     showgrid="false"
     units="px"
     showborder="true"
     inkscape:showpageshadow="true"
     inkscape:deskcolor="#ffffff"
     inkscape:zoom="0.32161458"
     inkscape:cx="225.4251"
     inkscape:cy="-296.93927"
     inkscape:window-width="1920"
     inkscape:window-height="991"
     inkscape:window-x="-9"
     inkscape:window-y="-9"
     inkscape:window-maximized="1"
     inkscape:current-layer="layer1" /><defs
     id="defs2" /><g
     inkscape:label="Layer 1"
     inkscape:groupmode="layer"
     id="layer1"
     transform="translate(-235.78833,543.12924)"><g
       id="g1"><rect
         style="fill:#ffffff;fill-opacity:1;stroke:none;stroke-width:2.9679;paint-order:markers fill stroke"
         id="rect17"
         width="1247.8044"
         height="638.10992"
         x="235.78833"
         y="-543.12921" /><g
         id="g16"
         transform="translate(-9.3319571,-1399.1903)"><path
           style="fill:#55b323;fill-opacity:1;stroke:none;stroke-width:1.65651;stroke-linecap:round;stroke-dasharray:1.65651, 4.96953;paint-order:markers fill stroke"
           d="m 1371.6532,952.02436 c 3.1929,-0.9306 -46.24,-95.9619 -46.24,-95.9619 h -38.555 c 0,0 81.602,96.8926 84.795,95.9619 z"
           id="path16-4"
           sodipodi:nodetypes="zccz" /><path
           id="path132993-8"
           style="display:inline;fill:#b8de29;fill-opacity:1;stroke:none;stroke-width:3.38131;stroke-linecap:butt;stroke-linejoin:miter;stroke-miterlimit:4;stroke-dasharray:none;stroke-dashoffset:0;stroke-opacity:1;paint-order:markers fill stroke;stop-color:#000000"
           d="m 1426.9356,856.06246 c 0.4181,1.7451 0.4984,3.4589 0.3116,4.9402 -0.2345,1.8639 -0.7425,3.2948 -0.895,4.2046 0.011,0.012 -3e-4,0.023 0,0.037 -0.1452,0.6201 -0.2959,1.2682 -0.4396,1.8643 -1.5581,6.5575 -3.3736,12.3902 -4.2842,16.0809 -1.5445,4.868 -3.1591,10.3648 -4.0869,14.4191 -4.3107,30.5448 -20.3158,71.8656 -57.7561,68.4675 -12.5663,0.6393 -44.966,-17.7249 -66.6362,-26.5343 -3.7197,-4.5959 -6.481,-10.201 -7.7998,-16.3129 -1.7403,-8.0645 -0.5923,-14.7077 -0.054,-18.7431 0.3617,-2.7113 0.2927,-4.7346 0.4396,-5.6931 -0.5786,0.6971 -2.2312,2.1667 -3.4272,4.8241 -1.76,3.9095 -3.4707,11.5491 -1.7119,20.5885 0.7911,4.0671 2.1934,7.9189 4.0522,11.4695 -8.9208,-5.7899 -16.8661,-13.1081 -26.3543,-19.6901 -1.6754,-1.0061 -3.2298,-1.8991 -4.6494,-2.9495 -1.2719,-0.9404 -2.2446,-1.8722 -2.9566,-2.8613 -0.1657,-0.23 -0.3244,-0.4723 -0.476,-0.7254 -0.7464,-1.2426 -1.2535,-2.6945 -1.5701,-4.4019 -0.3049,-1.6467 -0.4011,-3.3739 -0.4569,-5.0769 -0.1109,-3.9846 0.06,-7.506 -0.077,-9.3646 -0.098,-1.3404 -0.4989,-2.2821 -0.5886,-2.7437 -0.2253,0.4028 -0.9122,1.1989 -1.338,2.5047 -0.6076,1.8628 -1.1261,5.4053 -1.1978,9.6209 -0.036,1.7694 0.019,3.715 0.3374,5.6379 0.3345,2.0162 0.9382,3.8878 1.9111,5.5755 0.1972,0.3418 0.4036,0.6647 0.6144,0.9709 0.9138,1.3269 2.0208,2.5537 3.4032,3.7875 1.496,1.3353 3.1331,2.5175 4.6719,3.6265 3.5983,2.4524 6.9862,4.9138 10.0745,7.1939 -0.3941,0.016 -0.7848,0.048 -1.1738,0.088 -5.7187,-1.4616 -11.5177,-2.1224 -17.1419,-2.0045 -0.4473,0.01 -0.8984,0.022 -1.3571,0.042 -5.1928,0.1953 -9.7343,0.991 -15.4179,1.6341 -15.8479,1.5739 -27.8053,-0.7852 -33.5448,-1.5666 -2.3402,-0.3186 -3.681,-0.2316 -4.4192,-0.2978 h -0.01 c 0.6014,0.3069 1.8165,1.1599 4.0212,1.9387 5.2386,1.8506 18.1542,4.7973 34.2631,3.4897 5.3138,-0.3605 10.9313,-1.2049 15.269,-1.4402 0.432,-0.022 0.8592,-0.038 1.281,-0.05 3.2674,-0.095 6.605,0.048 9.9652,0.4502 -0.045,0.025 -0.096,0.047 -0.1385,0.078 -1.2677,0.7206 -2.3962,1.5831 -3.4464,2.4528 -1.1368,0.9417 -2.1966,1.8975 -3.2698,2.7487 -4.0723,3.0983 -8.8981,5.0325 -13.9518,6.2264 -2.314,0.5467 -4.6798,0.9396 -7.0451,1.2152 -2.9397,0.3423 -6.0243,0.5292 -9.2711,0.5816 -3.792,0.2719 -6.7248,0.4212 -8.6117,0.4414 1.8044,0.2758 5.0025,0.8049 8.8246,1.0923 3.3067,0.072 6.4818,-0.013 9.5135,-0.2822 2.442,-0.2166 4.9026,-0.5574 7.3238,-1.0698 5.282,-1.1172 10.4439,-3.0535 14.8519,-6.306 1.2011,-0.8521 2.3181,-1.7885 3.4378,-2.6811 1.0407,-0.8302 2.0671,-1.6069 3.1763,-2.2539 0.069,-0.039 0.1342,-0.083 0.206,-0.1212 0.9727,-0.5419 2.1012,-1.002 3.3651,-1.3328 4.2591,0.8367 8.5159,2.1043 12.6864,3.8445 1.2323,0.8717 3.5567,1.4851 4.7982,2.7021 22.8541,18.0447 44.4563,38.7217 52.2085,67.91024 6.7847,30.5427 -9.7659,53.7039 -38.068,60.2487 -8.6129,1.9968 -20.3963,6.9101 -31.5576,3.5105 -2.8726,-0.773 -5.6252,-1.8654 -8.7692,-3.1781 -3.02,-1.2608 -6.0224,-2.559 -9.1795,-3.5745 -2.2869,-0.7085 -4.4374,-1.2042 -6.4756,-1.5509 -2.3515,-0.4 -4.8772,-0.6126 -7.4952,-0.4709 -5.1014,0.2762 -9.8053,1.8906 -13.4254,4.6166 -1.3299,1.0517 -2.3147,2.142 -2.948,3.0587 -0.9997,1.4469 -1.2984,2.8737 -1.4921,3.4792 0.4654,-0.4064 1.688,-1.1803 2.934,-2.117 0.822,-0.6178 1.8211,-1.3917 3.0916,-2.1759 3.2894,-2.1563 7.4293,-3.463 11.9784,-3.597 2.3351,-0.069 4.6033,0.1695 6.7335,0.5938 1.8389,0.3661 3.7939,0.9521 5.8404,1.7587 2.902,1.1044 5.638,2.4824 8.6636,3.9362 3.0678,1.4741 6.0616,2.8338 9.2556,3.7753 0.031,0.01 0.063,0.017 0.095,0.027 -0.1521,0.3562 -0.3057,0.7787 -0.5279,1.2428 -0.3348,0.6991 -0.8316,1.4816 -1.6064,2.1361 -0.6973,0.5932 -1.5994,1.0472 -2.6726,1.3831 -1.1387,0.3558 -2.408,0.5556 -3.4724,0.6699 0,0 -0.1245,0.01 -0.1245,0.01 -1.1552,0.1053 -1.8361,0.2225 -3.0674,0.405 -0.5334,0.2266 -3.371,-2.601 -4.9488,-3.7909 -2.259,-1.362 -4.1676,-2.3159 -6.2559,-3.0447 -0.2355,-0.082 -0.4788,-0.1596 -0.727,-0.2337 -1.221,-0.3653 -2.5637,-0.6035 -3.9414,-0.5954 -1.3851,0.01 -2.7119,0.264 -3.9155,0.7806 -0.9746,0.4738 -1.6814,1.0631 -2.0842,1.5355 -0.4273,0.5011 -0.5835,1.0207 -0.6768,1.2324 0.207,-0.097 0.7158,-0.2397 1.2515,-0.464 0.5343,-0.2235 1.2109,-0.5317 2.0929,-0.7511 1.0186,-0.3164 2.1192,-0.4253 3.2698,-0.3393 1.1484,0.086 2.2668,0.3618 3.2853,0.746 0.209,0.079 0.4139,0.1605 0.6128,0.2458 1.724,0.7393 3.3578,1.9436 5.2709,3.4896 0.8627,0.7284 1.6854,1.4372 2.4095,2.0011 -0.8828,0.2521 -1.7609,0.5541 -2.6225,0.9329 -1.7093,0.7417 -3.2767,1.7321 -4.5576,2.9964 -1.5336,1.5138 -2.4501,3.2285 -2.8129,4.8053 -0.067,0.3106 -0.1053,0.6047 -0.1246,0.8793 -0.1103,1.6783 0.6861,3.0036 0.9469,3.5226 0.125,-0.7357 0.5963,-1.7153 1.1719,-3.0552 0.086,-0.2003 0.1784,-0.4135 0.2786,-0.6353 0.4815,-1.1298 1.2164,-2.4057 2.4285,-3.6074 1.0155,-1.0065 2.2714,-1.8673 3.7252,-2.5359 1.4132,-0.6401 2.9207,-1.0645 4.4797,-1.3605 1.5612,-0.2964 3.1642,-0.4598 4.7239,-0.5748 -2e-4,5e-4 0.1217,-0.01 0.1213,-0.01 1.0626,-0.058 2.3757,-0.013 3.853,-0.1506 1.3362,-0.1246 2.8183,-0.4214 4.2029,-1.1546 1.5813,-0.8429 2.7638,-2.1021 3.4672,-3.4377 0.4444,-0.844 0.6613,-1.6457 0.7322,-2.3282 3.8264,0.096 11.9133,-0.9107 15.5668,-1.0472 16.8707,0.064 50.497,-1.4179 61.0208,7.1923 21.5623,17.6417 13.605,59.9602 2.0789,81.0846 -47.9967,113.7423 -81.5209,189.6641 -141.3473,281.2684 -0.7492,0.7748 -1.5188,1.5272 -2.2468,2.1222 -1.8248,1.3685 -6.4663,3.1627 -9.337,3.3044 -2.5944,0.1013 -5.2711,-0.1219 -8.0473,-0.6404 -2.9721,-0.5551 -5.9231,-1.4153 -8.7709,-2.4165 -5.0336,-1.7707 -10.7733,-4.3951 -14.3084,-6.0516 -1.2129,-0.5683 -2.4125,-1.1169 -3.6143,-1.6478 -6.4939,-3.0289 -13.0195,-5.3406 -19.4927,-6.6315 -7.3065,-1.4569 -14.1765,-1.5372 -20.5624,-0.2077 -0.3122,0.065 -0.6134,0.1461 -0.9209,0.2182 -1.8517,-0.012 -4.6382,0.1637 -7.3065,-0.412 -1.76,-0.3797 -3.3082,-0.981 -4.6355,-1.6652 -1.6425,-0.8466 -3.2435,-1.7772 -4.6893,-2.9565 -1.3494,-1.0858 -2.4841,-2.3255 -3.2646,-3.6456 -1.3369,-2.2606 -1.7527,-4.492 -1.956,-5.7969 0.01,1.3922 0.264,3.5128 1.1147,6.1709 0.4852,1.5158 1.0873,3.2369 2.091,4.9593 1.0913,1.8471 2.5875,3.5912 4.5214,4.8969 1.192,0.8049 2.6247,1.5653 4.2599,2.1377 -1.1957,0.6322 -2.3324,1.3008 -3.3927,1.9977 -1.2005,0.789 -2.3514,1.6401 -3.4464,2.5427 -6.8233,5.6246 -9.9764,11.9157 -11.4436,15.2258 2.0306,-3.1589 6.203,-8.3522 13.2369,-12.7521 1.1219,-0.7018 2.2718,-1.3543 3.4481,-1.9613 3.788,-1.9544 8.2531,-3.582 13.2127,-4.2928 5.74,-0.8332 11.8948,-0.4741 18.4956,1.1424 5.8625,1.4358 11.8371,3.8042 17.843,6.9119 1.0946,0.5964 2.1967,1.2188 3.3218,1.8695 3.6252,2.0965 8.1187,5.2118 13.5952,8.3519 2.8632,1.6412 6.0688,3.2921 9.5308,4.6322 3.366,1.3029 6.9974,2.3234 10.8499,2.7817 0.2243,0.027 0.4442,0.03 0.6681,0.052 -1.6903,1.4625 -3.3815,2.9619 -4.9973,4.4972 -2.1608,2.0526 -4.3797,4.3342 -6.4913,6.7802 -0.5666,0.2367 -1.1309,0.4701 -1.7015,0.7029 -1.1507,0.4693 -2.1926,0.8809 -3.5641,1.4159 -1.6611,0.6478 -4.1009,1.581 -6.126,2.4407 -1.2023,0.5103 -2.4639,1.087 -3.7303,1.7293 -0.022,-0.079 -0.045,-0.163 -0.071,-0.2302 -0.4196,-0.3302 -0.8221,-0.6538 -1.2152,-0.9694 -1.3237,-1.0631 -2.6807,-2.184 -4.0557,-3.3617 -1.7774,-1.5219 -3.4776,-3.0457 -5.3712,-4.8087 -1.7303,-1.6108 -3.5237,-3.3341 -5.4267,-5.1166 0,0 -0.014,-0.01 -0.014,-0.01 -1.6329,-1.5292 -3.603,-3.2846 -5.8559,-4.8468 -5.4985,-3.8508 -11.8734,-5.9127 -18.0317,-6.1796 -3.9413,-0.1708 -7.3155,0.41 -9.7663,1.1147 -4.0969,1.1777 -6.91,3.0751 -8.2256,3.9502 1.5146,-0.6628 4.5419,-1.7216 8.5788,-2.413 2.4062,-0.4121 5.5937,-0.7649 9.2711,-0.4432 3.0765,0.2692 6.1832,0.9948 9.1622,2.1794 -0.7372,0.8346 -1.3761,1.7159 -1.937,2.6103 -0.8426,1.3435 -1.5346,2.7384 -2.1672,4.0799 -0.7056,1.4965 -1.3354,2.9216 -2.0651,4.2877 -0.5719,1.0708 -1.1836,2.1536 -1.8816,3.1815 -2.009,2.8442 -4.6603,5.0329 -7.4709,6.5156 -0.8447,0.4455 -1.6704,0.8098 -2.4494,1.1025 -3.2084,1.2054 -5.9617,1.4004 -7.6059,1.4021 1.5943,0.2748 4.4253,0.5767 7.9695,-0.099 0.8659,-0.1649 1.803,-0.3889 2.7886,-0.6976 3.2486,-1.0169 6.7129,-2.8528 9.6225,-5.797 1.0486,-1.0264 1.9688,-2.1235 2.7765,-3.1885 0.9963,-1.3136 2.0057,-2.7211 2.9237,-3.9743 0.8688,-1.186 1.681,-2.2689 2.5238,-3.3097 0.8273,-1.0218 1.6424,-1.9512 2.4857,-2.8146 0.014,-0.032 0.021,-0.069 0.019,-0.1142 8e-4,-0.084 -0.035,-0.2264 -0.086,-0.3878 0.6392,0.4126 1.2658,0.8485 1.8781,1.3121 2.0021,1.5324 3.7438,3.2645 5.1878,4.8537 l 0.014,0.01 c 1.6571,1.8246 3.1552,3.8107 4.5854,5.6862 1.5504,2.0328 3.0992,4.0251 4.8572,5.8404 1.2761,1.3177 2.666,2.5265 4.2011,3.5537 -1.2802,0.9187 -2.511,1.9357 -3.6351,3.1054 -1.5109,1.5998 -2.7088,3.3315 -3.6922,5.0043 -0.7782,1.3237 -1.4461,2.6492 -2.0218,3.8618 -0.2164,0.4558 -0.4271,0.9171 -0.6353,1.3831 h 5.7417 c 0.4776,-0.7319 0.9419,-1.4691 1.4922,-2.1793 1.0162,-1.312 2.1377,-2.5238 3.4013,-3.559 1.4384,-1.2069 3.087,-2.2063 4.897,-3.1018 1.8412,-0.9111 3.801,-1.6903 5.7659,-2.4529 0.3745,-0.1454 0.7296,-0.288 1.0975,-0.431 -1.6,3.0354 -2.8925,6.3415 -3.9882,10.0812 -0.1575,0.5377 -0.2465,1.1027 -0.3929,1.6428 h 5.3972 c 1.3082,-3.5584 2.7264,-6.5181 4.3725,-9.0947 0.2278,-0.356 0.4576,-0.6985 0.6889,-1.0333 1.6322,-2.3629 3.5637,-4.476 5.6153,-6.3996 2.4696,-2.3151 5.1683,-4.4088 7.805,-6.3786 3.6718,-2.7434 7.2408,-5.2874 10.5158,-8.1754 -0.1441,1.3596 -0.2403,2.7408 -0.2268,4.1544 -0.018,4.8839 0.9239,9.5593 2.3974,13.9293 1.3812,4.0959 3.2361,7.9155 5.1964,11.3933 -0.5514,0.4311 -1.118,1.051 -1.6807,1.6046 h 14.4554 c -0.9851,-1.9086 -2.0193,-3.7641 -2.8925,-5.7174 -1.5465,-3.4622 -2.8413,-7.0199 -3.6558,-10.5817 -0.6715,-2.9361 -0.8949,-5.7343 -0.817,-8.454 0.5437,-2.1041 0.8999,-4.1441 2.5688,-6.6436 2.0284,-3.0379 4.0555,-6.0792 6.0843,-9.1206 58.9901,-100.6055 96.4295,-167.5321 149.7791,-305.1836 1.0151,-2.2706 2.1528,-4.5888 3.2682,-6.3615 0.8973,-1.4266 2.4285,-3.2551 4.1543,-5.1461 0.6573,-0.6966 1.2582,-1.3856 1.9491,-2.0842 1.1048,-1.1499 2.1972,-2.2384 3.2456,-3.2698 23.9667,-22.5929 61.6318,-36.544 94.7301,-31.3344 3.9909,0.6282 7.843,1.7143 11.5734,2.9859 v -15.6982 c -3.3947,-3.2856 -6.8083,-6.6303 -10.1955,-10.315 -13.3028,-14.471 -5.1251,-42.5662 10.1955,-69.3486 v -38.08694 c -16.9595,6.348 -33.5649,10.2164 -42.5737,5.5859 -33.5575,-17.2492 -35.7177,-50.779 -27.9987,-82.1631 0.7664,-2.5241 1.4784,-7.1115 2.4822,-9.716 2.57,-7.2324 5.2215,-16.4418 6.3388,-24.8069 0.207,-0.9413 0.4469,-1.7797 0.6751,-2.6501 z" /><path
           style="fill:#55b323;fill-opacity:1;stroke:none;stroke-width:1.65651;stroke-linecap:round;stroke-dasharray:1.65651, 4.96953;paint-order:markers fill stroke"
           d="m 1409.6016,1066.4758 c -3.1585,1.9091 83.3231,186.0077 83.3231,186.0077 v -73.3586 c 0,0 -80.1646,-114.5581 -83.3231,-112.6491 z"
           id="path33-9"
           sodipodi:nodetypes="zccz" /><path
           id="path1-5"
           style="fill:#84c826;fill-opacity:1;stroke-width:6.11524;paint-order:markers fill stroke"
           d="m 1426.0257,1037.4508 c -10.3511,12.828 -33.8501,26.4305 -47.0393,15.7878 -13.1892,-10.6428 -11.0743,-41.5008 -0.7232,-54.32874 10.3513,-12.8279 33.2396,-13.9596 46.4289,-3.3168 13.1892,10.64284 11.6849,29.02984 1.3336,41.85774 z"
           sodipodi:nodetypes="sssss" /></g></g></g></svg>
