<?xml version="1.0" encoding="UTF-8" standalone="no"?>
<!-- Created with Inkscape (http://www.inkscape.org/) -->

<svg
   width="1247.8044"
   height="638.10992"
   viewBox="0 0 1247.8044 638.10993"
   version="1.1"
   id="svg5"
   inkscape:version="1.3.2 (091e20e, 2023-11-25, custom)"
   sodipodi:docname="insulin.svg"
   xmlns:inkscape="http://www.inkscape.org/namespaces/inkscape"
   xmlns:sodipodi="http://sodipodi.sourceforge.net/DTD/sodipodi-0.dtd"
   xmlns="http://www.w3.org/2000/svg"
   xmlns:svg="http://www.w3.org/2000/svg">
  <sodipodi:namedview
     id="namedview7"
     pagecolor="#ffffff"
     bordercolor="#e0e0e0"
     borderopacity="1"
     inkscape:pageshadow="2"
     inkscape:pageopacity="0.0"
     inkscape:pagecheckerboard="false"
     inkscape:document-units="px"
     showgrid="false"
     units="px"
     showborder="true"
     inkscape:showpageshadow="true"
     inkscape:deskcolor="#ffffff"
     inkscape:zoom="7.0277777"
     inkscape:cx="93.343875"
     inkscape:cy="399.77076"
     inkscape:window-width="1920"
     inkscape:window-height="1111"
     inkscape:window-x="-9"
     inkscape:window-y="-9"
     inkscape:window-maximized="1"
     inkscape:current-layer="layer1" />
  <defs
     id="defs2">
    <inkscape:path-effect
       effect="powerstroke"
       id="path-effect3"
       is_visible="true"
       lpeversion="1.3"
       scale_width="1"
       interpolator_type="CentripetalCatmullRom"
       interpolator_beta="0.2"
       start_linecap_type="zerowidth"
       end_linecap_type="zerowidth"
       offset_points="0.2702426,0.54884147 | 1.2589587,1.2656231 | 1.8439302,0.36933086"
       linejoin_type="round"
       miter_limit="4"
       not_jump="false"
       sort_points="true"
       message="&lt;b&gt;Ctrl + click&lt;/b&gt; on existing node and move it" />
    <inkscape:path-effect
       effect="powerstroke"
       id="path-effect2"
       is_visible="true"
       lpeversion="1.3"
       scale_width="1"
       interpolator_type="CentripetalCatmullRom"
       interpolator_beta="0.2"
       start_linecap_type="zerowidth"
       end_linecap_type="zerowidth"
       offset_points="0.2,1.187 | 1,1.187 | 1.7240234,0.69803241"
       linejoin_type="round"
       miter_limit="4"
       not_jump="false"
       sort_points="true"
       message="&lt;b&gt;Ctrl + click&lt;/b&gt; on existing node and move it" />
  </defs>
  <g
     inkscape:label="Layer 1"
     inkscape:groupmode="layer"
     id="layer1"
     transform="translate(-273.18604,-45.683529)">
    <rect
       style="fill:#ffffff;fill-opacity:1;stroke:none;stroke-width:2.9679;paint-order:markers fill stroke"
       id="rect17"
       width="1247.8044"
       height="638.10992"
       x="273.18604"
       y="45.683529" />
    <path
       style="fill:#0093fb;fill-opacity:1;stroke:none;stroke-width:0.105434"
       d="m 333.26061,428.77651 c -0.46432,-0.59954 -0.88074,-1.15786 -0.92543,-1.24072 -0.15461,-0.28653 6.86214,-1.28399 11.95719,-4.71686 2.60225,-1.75328 5.253,-3.58073 5.89062,-4.06097 2.35104,-1.77075 3.91956,-3.25795 4.86613,-4.61377 1.98578,-2.84441 1.32409,-4.15925 -4.95382,-9.84376 -4.93912,-4.47227 -6.35549,-6.60604 -6.29688,-9.48621 0.05,-2.45298 0.9604,-4.41776 4.27316,-9.22173 3.71281,-5.384 4.43048,-7.17207 4.28132,-10.66654 -0.0651,-1.52091 -0.51756,-3.87326 -1.13042,-5.87325 -0.42631,-1.39156 -0.50381,-1.79399 -0.34937,-1.81474 0.34624,-0.0465 -0.003,-0.51793 -1.83758,-2.48162 -2.55311,-2.73254 -3.6883,-4.03361 -5.29822,-6.07255 -0.70671,-0.89503 -2.61635,-3.21275 -4.24362,-5.1504 -1.62729,-1.93771 -2.96401,-3.56255 -2.97047,-3.61077 -0.006,-0.0483 0.30151,-0.16159 0.68416,-0.25234 0.38278,-0.0906 1.1063,-0.27322 1.60783,-0.40585 l 0.91186,-0.24117 -0.20619,-0.99389 c -1.13935,-5.49209 -2.36927,-10.77368 -3.66577,-15.74165 -2.42849,-9.30559 -3.18181,-13.7039 -3.1524,-18.40594 0.011,-1.74254 0.35368,-6.96548 0.48059,-7.32226 0.0932,-0.26205 0.16894,-0.98883 0.23931,-2.29548 0.009,-0.14732 0.0362,-0.5341 0.0628,-0.85947 0.0517,-0.63433 -0.24003,-3.19922 -0.37587,-3.30296 -0.045,-0.0344 -0.60158,0.32606 -1.2368,0.80098 -0.63522,0.47495 -2.64635,1.82919 -4.46903,3.00965 -3.09845,2.00649 -5.99167,4.01254 -6.47175,4.48725 l -0.20886,0.20649 0.47156,0.6663 c 1.65757,2.34291 2.91982,6.25168 3.35303,10.38551 0.43921,4.19117 -0.0878,6.4595 -1.99774,8.59976 -0.69534,0.77917 -2.48476,3.0327 -2.43297,3.06392 0.015,0.009 0.36862,0.16442 0.78542,0.34504 1.27817,0.55384 2.47547,1.27861 4.11381,2.49017 2.32126,1.71657 2.92967,2.42279 3.69144,4.28476 0.908,2.2194 2.34595,8.78751 2.45826,11.22857 0.11314,2.45966 -0.64664,4.74364 -2.41786,7.26828 l -0.55603,0.79253 0.47671,0.41433 c 1.24687,1.0837 2.54258,2.72443 4.97559,6.30045 2.8324,4.16306 3.45871,5.45506 3.77658,7.79046 0.29978,2.20376 0.025,3.55356 -1.13402,5.56679 -1.61859,2.81158 -7.27193,8.03724 -10.08583,9.32277 -1.22109,0.55791 -2.61048,0.93031 -4.43559,1.18906 -1.22968,0.17429 -1.78495,0.21519 -1.88532,0.13881 -0.10608,-0.0808 -0.1421,-0.30085 -0.14155,-0.86456 3.6e-4,-0.41596 -0.0303,-0.77015 -0.0685,-0.78713 -0.11763,-0.0526 -2.43092,0.13186 -2.4227,0.19311 0.0218,0.16233 2.11464,4.74686 3.09543,6.78079 0.70312,1.45811 1.11315,2.42233 1.09575,2.57669 -0.0623,0.55208 -1.6802,2.10177 -3.85191,3.68965 -1.1785,0.86182 -1.25499,0.94007 -1.44157,1.47765 -0.30311,0.87344 -1.26671,2.91802 -1.94696,4.13129 -1.13156,2.01804 -4.23708,5.81984 -5.78146,7.07769 -1.46118,1.19006 -3.58237,2.17164 -5.80904,2.68812 -3.75539,0.87102 -8.95822,0.98739 -12.90588,0.28868 l -0.5103,-0.0903 -0.8224,0.82217 c -1.40089,1.40056 -2.57678,1.96685 -4.32698,2.08375 -1.70841,0.1141 -3.16758,-0.14637 -5.83764,-1.04192 -4.3877,-1.47171 -9.29564,-4.55497 -12.42289,-7.80429 -1.15738,-1.20256 -1.16778,-1.21533 -2.00713,-2.46581 -0.63079,-0.9396 -1.18207,-1.92716 -1.61739,-2.89707 -0.37202,-0.82882 -1.1058,-2.69449 -1.23197,-3.13234 -0.065,-0.22527 -0.15001,-0.50111 -0.18897,-0.61291 -0.25594,-0.73361 -0.6467,-2.20101 -1.10764,-4.15961 -0.31295,-1.32991 -0.72544,-3.82883 -1.13373,-6.86888 -0.38385,-2.85798 -0.44548,-3.54077 -0.38892,-4.30936 0.0934,-1.26955 0.46022,-3.52874 0.71779,-4.42085 0.0553,-0.19183 0.0938,-0.4124 0.0853,-0.4902 -0.008,-0.0779 0.0502,-0.34169 0.1304,-0.5865 0.0802,-0.2448 0.13937,-0.50474 0.13155,-0.57763 -0.008,-0.0731 0.0218,-0.22046 0.0659,-0.32798 0.1331,-0.32504 0.63483,-3.21824 0.63724,-3.67449 l 0.003,-0.42581 -2.08421,-1.38495 c -6.00843,-3.99261 -8.19929,-6.4259 -8.48936,-9.42874 -0.0503,-0.51983 -0.0598,-1.06904 -0.0213,-1.22051 0.26886,-1.05755 0.27045,-1.05202 -0.62634,-2.2291 -1.21706,-1.59754 -2.05955,-3.30159 -2.55252,-5.16295 -0.2994,-1.13037 -0.6611,-4.41482 -0.59406,-5.39452 0.01,-0.14525 0.0186,-0.4576 0.0193,-0.69405 0.002,-0.44574 0.12487,-1.43536 0.23423,-1.87581 0.0345,-0.13903 0.0531,-0.32575 0.0411,-0.41492 -0.0119,-0.0892 0.0305,-0.34397 0.0944,-0.56618 0.0639,-0.2222 0.13944,-0.50286 0.16795,-0.62374 0.12041,-0.51083 0.2313,-0.9017 0.34519,-1.21653 0.0667,-0.1845 0.18906,-0.53603 0.27193,-0.78118 0.14591,-0.43195 0.6036,-1.40922 0.71771,-1.53254 0.0308,-0.0336 0.24555,-0.38588 0.47692,-0.78334 l 0.42078,-0.72256 -0.19245,-0.42508 c -0.10586,-0.2338 -0.24438,-0.5378 -0.3078,-0.67552 -0.0634,-0.13781 -0.2023,-0.4542 -0.30865,-0.70322 -0.1063,-0.24899 -0.27704,-0.63298 -0.37939,-0.85327 -0.10237,-0.22031 -0.25902,-0.55827 -0.34816,-0.75109 -0.0891,-0.19283 -0.19829,-0.46541 -0.24269,-0.60572 -0.0444,-0.14027 -0.24213,-0.70153 -0.43932,-1.24723 -0.19742,-0.5456 -0.41598,-1.16257 -0.48629,-1.37082 -0.148,-0.43965 -0.49029,-2.91331 -0.43671,-3.15629 0.02,-0.0904 0.055,-0.31056 0.078,-0.48916 0.18921,-1.47269 2.2734,-3.04182 5.16972,-3.89226 0.19701,-0.0579 0.59809,-0.18106 0.89126,-0.27382 1.06693,-0.33756 3.72077,-0.83916 4.95665,-0.93682 2.32364,-0.18359 4.11443,0.18206 5.01726,1.0245 0.97909,0.91362 1.52743,2.16004 1.78107,4.04954 0.3806,2.83377 -0.49322,6.12732 -2.28135,8.59864 l -0.5261,0.72706 0.51907,0.92278 c 1.2984,2.30834 2.64111,3.80435 4.37229,4.87149 1.47352,0.90832 5.94,3.08683 6.24478,3.04589 0.20082,-0.0268 1.45619,-1.25653 2.2698,-2.22306 0.89784,-1.06662 2.72766,-3.61836 3.58492,-4.99928 0.74944,-1.20724 1.58043,-2.87699 1.5489,-3.11213 -0.0102,-0.0746 0.0346,-0.28366 0.0994,-0.46433 0.24977,-0.69785 0.22041,-1.8081 -0.10226,-3.86502 -0.17085,-1.08876 -0.34897,-2.11797 -0.39602,-2.28719 -0.0471,-0.16922 -0.16726,-0.67966 -0.26721,-1.13429 -0.24891,-1.13194 -0.54579,-2.24108 -1.20928,-4.51832 -0.53213,-1.82621 -0.86366,-3.69879 -0.75253,-4.25037 0.14913,-0.74044 0.40261,-0.89079 2.07955,-1.23342 1.03291,-0.21107 2.01159,-0.33626 3.2674,-0.41799 2.19395,-0.14278 4.83499,-0.24917 5.76652,-0.23221 0.38124,0.008 0.9317,0.006 1.22324,-0.002 0.76765,-0.0196 1.05983,0.004 1.63014,0.1339 0.68468,0.15564 0.79955,0.31194 0.7069,0.96214 -0.0407,0.2858 -0.0776,0.7778 -0.0819,1.09325 -0.005,0.41664 -0.0806,0.67411 -0.27388,0.94102 -0.16286,0.22499 -0.28471,0.57621 -0.31418,0.90583 -0.0265,0.29607 0.11314,2.09643 0.31038,4.00076 0.19719,1.90432 0.36337,3.81887 0.36927,4.25457 0.006,0.43571 0.0347,0.82144 0.0641,0.85724 0.17463,0.21296 3.4914,1.40457 5.63769,2.02548 1.43537,0.41529 4.6614,1.15511 4.89818,1.12327 0.10785,-0.0144 0.0574,-0.56426 -0.24803,-2.70596 -0.28446,-1.99382 -0.36155,-2.79198 -0.29864,-3.09122 0.0814,-0.38707 0.1085,-0.40925 0.67101,-0.54841 2.90329,-0.71827 4.11465,-1.35129 6.11544,-3.19557 2.04996,-1.88961 2.55561,-2.31639 3.51977,-2.97098 0.32334,-0.21972 0.35729,-0.29495 0.35789,-0.79451 2.8e-4,-0.30357 0.005,-0.64641 0.0112,-0.76188 0.006,-0.1155 0.0136,-0.40274 0.0169,-0.63832 0.003,-0.2356 0.0175,-0.45484 0.0314,-0.48718 0.0138,-0.0322 0.0249,-0.27425 0.0249,-0.53753 -6e-5,-0.26327 0.0235,-0.63831 0.0522,-0.83342 0.0287,-0.19509 0.0487,-0.37805 0.0441,-0.40661 -0.004,-0.0285 0.003,-0.18417 0.0154,-0.34584 0.0129,-0.16165 0.0288,-0.39041 0.0353,-0.50829 0.006,-0.11787 0.0691,-0.59476 0.13934,-1.05968 0.0754,-0.49941 0.0838,-0.87401 0.0209,-0.91528 -0.0586,-0.0386 -0.97335,-0.1799 -2.03263,-0.31432 -1.05926,-0.13442 -2.99067,-0.43581 -4.29199,-0.66975 -1.30129,-0.23393 -2.70553,-0.45818 -3.12047,-0.49827 -1.01611,-0.0983 -3.6349,0.25757 -4.9875,0.6777 -1.49903,0.46557 -1.85531,0.49066 -2.223,0.1564 -0.57031,-0.5184 -1.09497,-1.68262 -1.83156,-4.06408 -0.73509,-2.37656 -1.01422,-3.62094 -1.33194,-5.93798 -0.44259,-3.22735 -0.30946,-3.59607 1.42998,-3.96129 5.29389,-1.11151 8.74956,-3.20098 11.74603,-7.10225 0.97231,-1.26597 1.4006,-2.16522 1.41456,-2.97024 0.0102,-0.58541 0.14713,-1.47033 0.28782,-1.85909 0.0642,-0.17757 0.11132,-0.36619 0.10455,-0.4192 -0.0406,-0.31897 1.39531,-3.73342 1.68703,-4.0115 0.0358,-0.034 0.17787,-0.26855 0.31586,-0.52113 0.13799,-0.25254 0.4375,-0.72362 0.66559,-1.04682 0.22814,-0.32315 0.57311,-0.82427 0.76668,-1.11357 0.79315,-1.18527 3.64482,-4.82434 4.51875,-5.76634 0.46847,-0.505 1.17153,-1.28782 1.25001,-1.39187 0.0248,-0.0331 0.21445,-0.22512 0.42136,-0.42711 0.40488,-0.39533 0.66119,-0.6625 0.82691,-0.86212 0.0574,-0.0689 0.38634,-0.40781 0.73112,-0.75286 0.79548,-0.79604 1.89536,-1.93946 2.32265,-2.41443 0.18154,-0.20185 0.51295,-0.55912 0.73649,-0.79392 0.22352,-0.23481 0.47291,-0.50767 0.55417,-0.60633 0.0814,-0.0987 0.35591,-0.39689 0.61035,-0.66269 0.25447,-0.26575 0.54582,-0.57684 0.64746,-0.69123 1.06056,-1.19358 2.8351,-3.00946 3.03163,-3.10218 0.1068,-0.0502 0.35924,-0.0454 0.56116,0.01 0.35811,0.099 1.52708,0.81961 2.00921,1.23858 0.35746,0.31061 1.90841,1.29766 2.53512,1.61335 0.30085,0.15158 0.9749,0.35857 1.49793,0.46006 0.523,0.10148 1.1085,0.23452 1.30107,0.29566 0.19257,0.0611 0.39346,0.10529 0.44644,0.0982 0.18681,-0.0251 1.32682,0.45587 1.76141,0.74312 0.38614,0.25526 0.46204,0.36971 0.61884,0.93316 0.42615,1.53121 -0.35427,3.28439 -2.13345,4.79263 -0.33499,0.28392 -0.64012,0.55415 -0.67817,0.60042 -0.10897,0.13258 0.59265,1.45983 1.44995,2.74291 0.43134,0.64559 1.3572,1.81374 2.05751,2.59595 3.51154,3.92239 4.48542,5.17874 5.71301,7.36999 1.59487,2.84681 2.92119,6.3709 3.58294,9.51995 0.47261,2.24897 0.56841,4.53155 0.33154,7.90032 -0.0442,0.62833 -0.0292,0.99706 0.0411,1.01042 0.0683,0.0129 0.0677,0.95932 -0.002,2.47759 -0.19248,4.21264 -0.18342,4.56237 0.18861,7.30959 0.39746,2.93402 0.7913,4.72953 2.2783,10.38331 1.6978,6.4553 2.31334,9.07573 3.10114,13.20213 0.11436,0.59899 0.26896,1.39208 0.34354,1.76235 0.21719,1.07833 0.58414,2.94156 0.60722,3.08326 0.0251,0.15411 0.29441,0.1226 1.32938,-0.15553 0.7606,-0.20438 1.99033,-0.23714 2.01498,-0.0537 0.005,0.0428 -0.0716,0.37014 -0.17189,0.72728 -0.10027,0.35718 -0.2099,0.74884 -0.2436,0.87042 -0.0337,0.12156 -0.24116,0.93928 -0.461,1.8172 -0.21987,0.87789 -0.45572,1.79518 -0.52415,2.0384 -0.0685,0.24326 -0.28793,1.11046 -0.48775,1.92719 -0.19982,0.81673 -0.60175,2.35468 -0.89317,3.41772 -0.2914,1.06307 -0.65244,2.57163 -0.80228,3.35239 -0.24407,1.2717 -1.0398,6.86871 -1.00904,7.09765 0.008,0.0505 0.20394,0.0983 0.43813,0.10623 0.48956,0.0165 0.5144,0.0586 1.02094,1.72483 0.61049,2.0082 0.82329,2.97887 1.08742,4.96018 0.29902,2.24334 0.30833,3.07807 0.0528,4.7793 -0.38854,2.58741 -1.38991,4.59229 -4.56165,9.13292 -2.44941,3.50658 -3.22416,4.83535 -3.71721,6.3752 -0.36862,1.15136 -0.38192,2.00675 -0.0442,2.84801 0.67109,1.67179 1.43946,2.49913 6.8362,7.36099 0.65775,0.59255 1.5708,1.4596 2.02904,1.92678 4.92932,5.02572 4.50063,8.71238 -1.63016,14.01861 -1.91309,1.65579 -3.5805,2.86928 -8.28562,6.03026 -2.80048,1.88135 -8.50392,1.77584 -9.60233,2.65041 -0.98933,0.78772 -1.86203,1.46675 -1.93932,1.50898 -0.0978,0.0535 -0.39711,-0.25451 -0.98472,-1.01331 z m -47.98317,-13.1995 c 0.25962,-0.11775 0.58303,-0.31019 0.71868,-0.42763 l 0.24674,-0.21337 -0.65938,-0.24713 c -1.53462,-0.57514 -2.86035,-1.40237 -3.8747,-2.41782 -1.54021,-1.54179 -3.45727,-4.68133 -5.04292,-8.25863 -0.18357,-0.41416 -0.38826,-0.86538 -0.45488,-1.0027 -0.0665,-0.13735 -0.23586,-0.52152 -0.37613,-0.85372 -0.14032,-0.3322 -0.3164,-0.7394 -0.39129,-0.90486 -0.18637,-0.41162 -0.44419,-1.05552 -0.54572,-1.36284 -0.0464,-0.14003 -0.19593,-0.55083 -0.333,-0.91271 -0.13689,-0.36195 -0.29932,-0.8308 -0.36096,-1.04191 -0.18151,-0.62139 -0.33043,-1.11047 -0.40857,-1.34156 -0.32963,-0.97488 -0.8647,-4.35347 -0.85983,-5.42943 0.003,-0.82058 0.21039,-2.08917 0.45986,-2.82217 l 0.22567,-0.6632 -0.5752,-0.46006 c -1.29883,-1.03886 -2.60298,-2.3904 -5.24753,-5.43822 -2.03845,-2.34928 -3.31372,-3.65199 -4.51836,-4.61559 l -0.88949,-0.71155 -0.33518,1.61933 c -0.18432,0.89064 -0.44265,2.06461 -0.57398,2.60882 -0.37897,1.57014 -0.73062,3.63277 -0.79822,4.68159 -0.10883,1.68938 0.88431,8.13967 1.8232,11.84133 1.04836,4.13318 2.498,7.46449 4.12811,9.4865 1.41376,1.7536 4.20995,4.02553 7.06198,5.73791 2.28757,1.37351 5.56342,2.80877 7.37354,3.23063 1.52507,0.3554 3.32203,0.32087 4.20769,-0.0808 z m 13.20943,-3.11963 c 1.42001,-1.08672 2.42847,-2.39039 3.35917,-4.34259 0.5628,-1.18043 0.98985,-2.427 2.05749,-6.00543 0.47283,-1.5847 1.02902,-3.40671 1.23601,-4.04885 0.20699,-0.64215 0.40337,-1.28162 0.43644,-1.42106 0.0428,-0.18057 -0.1619,-0.87884 -0.71161,-2.42726 -1.31208,-3.69585 -2.28605,-5.69242 -3.39297,-6.95526 -0.63035,-0.71916 -0.68034,-1.01911 -0.23888,-1.43229 0.30272,-0.28336 2.26121,-1.60352 2.73084,-1.84262 l 0.32721,-0.16581 -0.6431,-0.54458 c -0.35371,-0.29952 -1.33863,-1.13735 -2.18868,-1.8618 -4.5121,-3.8454 -6.2694,-4.8862 -8.0058,-4.74163 -1.72342,0.14347 -3.10784,1.25576 -6.16575,4.95381 -1.167,1.41133 -1.18478,1.30065 0.22715,1.41461 2.69717,0.21765 4.32707,1.09708 6.31143,3.40538 2.0203,2.35006 2.50587,3.10631 3.27,5.09262 0.40707,1.05812 0.44655,1.25104 0.80608,3.93418 0.4337,3.2293 0.43585,3.99755 0.0256,6.16661 -0.40826,2.15891 -2.10493,6.83301 -2.55793,7.04673 -0.16889,0.0803 -1.67889,0.0665 -2.30457,-0.0203 -0.19787,-0.0276 -0.2746,0.0631 -0.47786,0.5642 l -0.24216,0.59686 0.40603,0.535 c 1.09883,1.44784 2.51054,2.51067 3.70038,2.78587 0.60034,0.13886 1.23795,-0.0763 2.03534,-0.6864 z m -9.10842,-9.43439 c 0.48418,-2.49683 0.59204,-4.95081 0.33739,-7.67812 -0.30163,-3.23138 -1.18101,-5.59565 -2.76191,-7.42574 -0.61304,-0.70966 -1.39354,-1.31107 -1.58182,-1.21887 -0.20982,0.10295 -0.68173,1.72618 -0.73843,2.54095 -0.11611,1.66777 0.26645,3.49634 1.63003,7.79068 1.08208,3.40786 2.5843,7.36549 2.78551,7.33849 0.0383,-0.005 0.18652,-0.61149 0.32923,-1.34739 z m 30.70573,-19.41615 c 0.0562,-0.32935 0.16123,-0.76234 0.23368,-0.96221 l 0.13171,-0.36345 1.27658,-0.17755 c 2.95929,-0.4116 4.10182,-0.92319 5.79261,-2.59331 1.05106,-1.03824 2.82726,-3.29924 3.41742,-4.35016 0.54964,-0.9788 1.17151,-2.62285 1.32686,-3.50788 0.0579,-0.32958 0.13343,-0.65088 0.16796,-0.71404 0.13089,-0.23926 0.26075,-1.23587 0.26338,-2.02113 0.003,-1.01411 -0.33935,-2.42003 -0.65609,-2.69114 -0.60462,-0.51759 -1.96984,-0.54822 -5.21372,-0.11698 -1.09819,0.14596 -2.58573,0.29797 -3.30562,0.33773 -0.71989,0.0397 -2.61181,0.17308 -4.2043,0.29626 -1.59244,0.1232 -3.30008,0.22894 -3.79477,0.23495 l -0.89937,0.0111 -0.73747,0.47395 c -1.42461,0.91511 -2.69963,1.24217 -3.37885,0.86675 -0.47898,-0.26472 -0.94385,-0.83435 -1.43127,-1.75387 -1.27665,-2.40833 -2.41658,-6.14196 -2.46092,-8.0602 -0.0286,-1.23608 0.26494,-1.58903 1.8483,-2.22259 0.51867,-0.20756 1.20797,-0.54342 1.5316,-0.74675 0.32377,-0.20299 0.88195,-0.50236 1.2404,-0.66528 0.69652,-0.31662 1.98267,-0.86172 2.06743,-0.87623 0.028,-0.004 0.176,-0.0538 0.32851,-0.10906 0.15265,-0.055 0.36879,-0.13214 0.4806,-0.17093 0.80676,-0.28041 3.06095,-1.23412 3.62378,-1.53324 0.2185,-0.11601 0.55419,-0.28963 0.74605,-0.38573 0.19187,-0.0961 0.45978,-0.23995 0.59533,-0.31965 0.13561,-0.0796 0.33582,-0.19337 0.44475,-0.25283 1.84783,-1.00507 4.01795,-3.0401 4.9004,-4.59545 0.14078,-0.24818 0.92443,-1.87048 1.07946,-2.23479 0.0653,-0.15341 -1.21988,-0.83952 -3.64008,-1.9433 -3.55607,-1.62185 -4.25922,-1.75521 -7.15778,-1.35742 -1.0628,0.14615 -3.21439,0.52212 -4.78121,0.83617 -3.83105,0.76788 -5.04465,0.84141 -6.02761,0.36526 -0.56369,-0.27305 -0.89629,-0.79374 -1.27049,-1.98895 -0.167,-0.53342 -0.31191,-0.97519 -0.32207,-0.98179 -0.0102,-0.008 -0.63005,-0.11042 -1.37758,-0.23079 -2.80471,-0.45159 -6.53087,-1.46236 -9.26278,-2.51262 -0.57993,-0.22296 -1.08256,-0.40095 -1.11694,-0.39553 -0.0344,0.005 -0.18459,0.49236 -0.33381,1.08204 -1.04165,4.11621 -3.57346,7.86035 -7.53516,11.14332 -2.05528,1.70319 -3.67616,2.59256 -5.77403,3.16874 -1.54081,0.42306 -11.36196,1.93516 -13.10232,2.01722 -1.40969,0.0665 -3.12582,-0.22062 -4.59397,-0.76858 -0.56414,-0.21055 -1.07092,-0.37675 -1.12611,-0.36929 -0.0553,0.008 -0.24133,0.2598 -0.41356,0.56085 -0.1722,0.30102 -0.936,1.41823 -1.69737,2.48264 l -1.38428,1.93535 0.71304,0.64791 c 0.39213,0.35633 0.71856,0.68929 0.72534,0.73987 0.0213,0.15884 -0.15415,0.55781 -0.54703,1.24358 -0.23061,0.40262 -0.34216,0.70988 -0.2842,0.78284 0.0525,0.066 0.60859,0.65383 1.23577,1.30615 3.13609,3.2619 4.52913,5.12808 5.37043,7.19461 0.30924,0.75964 0.40977,1.19192 0.61592,2.64866 l 0.24631,1.74088 1.54235,1.21052 c 1.88422,1.47886 2.79584,2.38418 5.61296,5.57419 2.50034,2.83135 3.43038,3.78944 4.54902,4.68621 l 0.79068,0.63387 0.87128,-0.54917 c 1.48641,-0.93697 3.01204,-1.46941 5.46734,-1.90796 l 1.55478,-0.27774 1.60368,-1.96602 c 2.53117,-3.10306 3.77856,-4.42162 5.13823,-5.43132 2.88956,-2.1458 5.74903,-1.89439 9.44777,0.83067 0.4781,0.35223 2.04443,1.6315 3.48076,2.84284 1.43632,1.2113 2.87807,2.39929 3.20393,2.63995 l 0.59246,0.43761 0.38482,-0.18595 c 0.21174,-0.10219 0.87428,-0.46286 1.47241,-0.80139 2.05822,-1.16482 4.37492,-2.04566 5.15026,-1.95813 0.41195,0.0464 0.7654,0.63891 1.80297,3.02199 0.4659,1.07015 0.88637,1.97526 0.93437,2.01138 0.12501,0.0941 0.95027,0.0348 2.43407,-0.17468 l 1.29084,-0.18234 z m -60.43624,-12.28153 c -0.43644,-1.85083 -1.84175,-3.86649 -4.95064,-7.10086 -0.61018,-0.63478 -1.12941,-1.15149 -1.15388,-1.14821 -0.0243,0.003 -0.31454,0.30554 -0.64469,0.67169 -0.33019,0.36613 -0.64126,0.67122 -0.69138,0.67795 -0.05,0.008 -0.1871,-0.0987 -0.30445,-0.23427 -0.28776,-0.33239 -0.30947,-0.25752 -0.0995,0.34307 0.4737,1.35529 1.83033,2.88125 4.10361,4.61579 1.27524,0.97303 3.72467,2.68233 3.82456,2.66895 0.0176,-0.003 -0.02,-0.22473 -0.0836,-0.49408 z m -5.13382,-17.70345 c 0.69499,-0.97964 1.31251,-1.91196 1.37234,-2.07181 0.10628,-0.28423 0.0814,-0.31231 -1.13061,-1.26855 -0.68163,-0.53784 -1.5449,-1.30745 -1.91838,-1.71024 -0.37349,-0.40277 -0.7104,-0.69123 -0.74873,-0.64102 -0.0384,0.0501 -0.19569,0.53769 -0.34971,1.08324 -0.39477,1.39853 -0.52574,2.82101 -0.37155,4.03611 0.13414,1.0558 0.29886,1.38879 1.1964,2.41603 0.38537,0.44102 0.21527,0.6018 1.95024,-1.84376 z m 60.46835,-32.41346 c 0.22236,-0.14703 0.45442,-0.27376 0.51546,-0.28193 0.0611,-0.009 0.18709,-0.0673 0.28001,-0.13159 0.0921,-0.0653 0.28028,-0.17961 0.4161,-0.25671 1.39896,-0.79152 3.70141,-2.4683 3.67977,-2.67987 -0.0144,-0.14472 -1.87421,-0.6717 -3.40742,-0.96577 -0.80097,-0.15364 -1.47058,-0.26057 -1.48807,-0.23769 -0.12417,0.16271 -0.54024,4.27429 -0.47882,4.73169 0.0174,0.1293 0.0163,0.12962 0.48283,-0.17829 z m 3.83817,-14.85652 c 0.20246,-0.19155 0.43403,-0.39208 0.51463,-0.44559 0.0814,-0.0524 0.23393,-0.16591 0.33829,-0.25324 0.10562,-0.0856 0.51732,-0.40523 0.91526,-0.70985 0.39799,-0.30458 0.83136,-0.64123 0.96342,-0.74756 0.13202,-0.10641 1.22828,-0.85398 2.43644,-1.66087 4.86322,-3.24869 6.57252,-4.45384 7.95365,-5.60779 0.1058,-0.0883 0.0689,-0.24638 -0.20655,-0.88527 -0.97955,-2.27188 -2.31107,-4.14491 -4.25106,-5.97984 -2.38161,-2.25267 -2.80933,-2.67415 -3.23635,-3.18926 -0.25902,-0.31243 -0.50026,-0.56408 -0.53621,-0.55929 -0.0907,0.012 -3.28928,4.50014 -3.81496,5.35268 -1.17311,1.90254 -1.57409,3.0191 -1.82808,5.0905 -0.0696,0.56774 -0.21162,1.32482 -0.31558,1.68238 -0.48649,1.67369 -1.80237,3.74904 -3.66252,5.77626 -0.5532,0.60291 -1.00369,1.1119 -1.00112,1.13108 0.003,0.019 0.3361,0.0966 0.74116,0.17198 1.13186,0.21066 2.81327,0.64334 3.64227,0.93733 0.41133,0.14587 0.79988,0.26056 0.86349,0.25488 0.0635,-0.005 0.28129,-0.167 0.48379,-0.35851 z"
       id="path18-7"
       sodipodi:nodetypes="ccsccsssscssssssscsssssssssscssssssssscsscsscssssscsssscscsccsccsccscsccccscscccccscsccccccccccsccsccccssccccssscccccsccssssssscsscscssccsssscsccccssscssscsscsssscssssscssssssscscsssssscssscssssscssssscsssssssssscssssscssssccsccscsccccscccccssscsccscsssscssssccsccscssssccscsscssccscsscscscscsssscscsssscsscsscscsscsscssscssssssccscssccsccsccssccscccscccssssccssssccccscscccscccscscccccsssccccscssssccsscssssssssscsscss" />
    <path
       style="font-size:21.5007px;line-height:1.5;font-family:Caveat;-inkscape-font-specification:Caveat;white-space:pre;fill:#0093fb;stroke-width:2.69232;paint-order:markers fill stroke"
       d="m 331.63103,471.8463 q -0.1505,-0.23651 -0.68802,-0.30101 -0.51602,-0.0645 -1.26854,-0.0215 -0.30101,0.043 -0.58052,-0.043 -0.27951,-0.0645 -0.45151,-0.23651 -0.15051,-0.1505 -0.10751,-0.32251 0.0215,-0.25801 0.43002,-0.40851 0.43001,-0.15051 1.35454,-0.17201 l 1.13954,-0.0215 0.215,-0.43001 q 0.086,-0.23651 0.21501,-0.66652 0.12901,-0.43002 0.27951,-0.92453 0.086,-0.30101 0.25801,-0.81703 0.17201,-0.51602 0.36551,-1.09654 0.19351,-0.58052 0.34401,-1.03203 0.15051,-0.47302 0.19351,-0.66652 0.086,-0.19351 0.23651,-0.64502 0.1505,-0.47302 0.27951,-0.94603 0.1505,-0.49452 0.1935,-0.70953 0.55902,-1.69855 0.73103,-2.40808 0.172,-0.73102 0.086,-0.75252 -0.086,0 -0.43002,0.0215 -0.32251,0.0215 -0.73102,0.0645 -0.38701,0.0215 -0.70952,0.0645 -0.30101,0.043 -0.36551,0.086 -0.10751,0.1505 -0.36552,0.0645 -0.258,-0.086 -0.32251,-0.30101 -0.0215,-0.19351 -0.0215,-0.30101 0.0215,-0.1075 0.12901,-0.17201 0.1505,-0.129 0.58052,-0.2795 0.43001,-0.17201 0.96753,-0.30101 0.55902,-0.12901 1.05353,-0.19351 0.36551,-0.043 0.73103,-0.15051 0.36551,-0.129 0.58051,-0.30101 0.19351,-0.0645 0.36552,-0.1075 0.1935,-0.043 0.38701,-0.0215 0.172,0.1075 0.58052,0.1075 0.43001,0 0.90303,-0.0215 1.20404,-0.1075 1.61255,-0.0645 0.43001,0.043 0.58052,0.34401 0.1075,0.40852 0.043,0.64502 -0.0645,0.21501 -0.43001,0.19351 -0.19351,0.043 -0.70953,0.086 -0.49451,0.0215 -1.05353,0.043 -1.52655,0.12901 -1.63405,0.30101 -0.086,0.086 -0.15051,0.17201 -0.043,0.086 -0.129,0.19351 0.0215,0.086 -0.10751,0.55901 -0.1075,0.45152 -0.27951,0.92453 -0.086,0.27951 -0.258,0.79553 -0.17201,0.51602 -0.36552,1.07503 -0.172,0.53752 -0.32251,0.98904 -0.1505,0.43001 -0.215,0.58052 -0.086,0.1935 -0.15051,0.43001 -0.043,0.21501 -0.0645,0.32251 -0.30101,1.05353 -0.53752,1.78456 -0.21501,0.73102 -0.40851,1.29004 -0.17201,0.53752 -0.32251,1.05353 -0.15051,0.49452 -0.32251,1.09654 0,0 0.32251,-0.0215 0.34401,-0.043 0.90303,-0.086 1.01053,-0.10751 1.44054,-0.12901 0.45152,-0.0215 0.60202,0.0645 0.15051,0.0645 0.21501,0.25801 0.43001,0.58052 0.1075,0.79553 -0.32251,0.21501 -1.52655,0.19351 -1.11803,0.043 -1.72005,0.0645 -0.58052,0.043 -0.81703,0.1075 -0.21501,0.0645 -0.25801,0.21501 0,0.172 -0.172,0.172 -0.17201,0 -0.43002,-0.086 z m 14.01845,-1.65555 q -0.43002,0 -0.70953,-0.17201 -0.27951,-0.19351 -0.47301,-0.62352 -0.086,-0.30101 -0.15051,-0.66652 -0.043,-0.38701 -0.043,-0.70952 0,-0.34402 0.0645,-0.45152 0.086,-0.086 0.0645,-0.30101 0,-0.23651 0,-0.49451 -0.0215,-0.43002 -0.21501,-0.47302 -0.17201,-0.0645 -0.51602,0.129 -0.38701,0.23651 -1.01053,0.64503 -0.62352,0.38701 -1.31154,0.86002 -0.66653,0.47302 -1.26854,0.98904 -0.47302,0.51601 -0.58052,0.79552 -0.086,0.25801 -0.25801,0.25801 -0.17201,0.086 -0.30101,0.0215 -0.10751,-0.086 -0.32251,-0.25801 -0.15051,-0.172 -0.30101,-0.32251 -0.15051,-0.172 -0.19351,-0.25801 0,-0.1075 0.0645,-0.45151 0.0645,-0.34401 0.15051,-0.68802 0.1075,-0.34402 0.1505,-0.45152 0.10751,0 0.17201,-0.21501 0.086,-0.215 0.25801,-0.47301 0.043,-0.25801 0.215,-0.68802 0.19351,-0.45152 0.34402,-0.79553 0.30101,-0.51602 0.40851,-0.86003 0.129,-0.34401 0.172,-0.86003 -0.0215,-0.086 0.043,-0.1505 0.0645,-0.086 0.1505,-0.086 v 0 0 q 0.17201,-0.17201 0.40851,-0.086 0.23651,0.0645 0.43002,0.32251 0.38701,0.51602 0.30101,1.07504 -0.0645,0.53752 -0.68802,1.54805 -0.15051,0.34401 -0.23651,0.53752 -0.0645,0.172 -0.0645,0.27951 0,0 0.215,-0.15051 0.23651,-0.1505 0.51602,-0.34401 0.30101,-0.21501 0.47301,-0.32251 0.10751,-0.1075 0.49452,-0.38701 0.38701,-0.27951 0.81703,-0.53752 0.45151,-0.27951 0.66652,-0.32251 0.172,-0.086 0.36551,-0.15051 0.19351,-0.086 0.27951,-0.086 0.17201,0 0.43001,0.19351 0.27951,0.172 0.51602,0.43001 0.23651,0.23651 0.27951,0.40852 0,0.086 0,0.172 0.0215,0.086 0.043,0.17201 0.086,0.27951 0.086,0.75252 0.0215,0.47302 -0.0215,0.86003 -0.043,0.38701 -0.1505,0.45151 0,0 0,0.0645 0.0215,0.043 0.1075,0.043 0,0.086 0,0.1075 0,0 0,0 -0.1075,0 -0.086,0.19351 0.0215,0.172 0.129,0.38701 0.12901,0.21501 0.25801,0.34401 0.25801,0.25801 0.21501,0.49452 -0.043,0.215 -0.38701,0.30101 z m 4.10665,0.79552 q -0.53752,0.043 -1.03204,-0.0645 -0.47301,-0.1075 -0.81702,-0.36551 -0.32251,-0.27951 -0.45152,-0.66652 -0.1505,-0.30101 -0.1505,-0.40852 0,-0.129 0.1505,-0.215 0.17201,0 0.30101,0.1075 0.15051,0.086 0.38701,0.19351 0.32251,0.27951 0.77403,0.30101 0.47301,0.0215 0.86003,-0.15051 0.38701,-0.172 0.43001,-0.43001 0,-0.086 -0.0645,-0.30101 -0.0645,-0.21501 -0.15051,-0.45152 -0.58051,-0.81702 -0.86002,-1.61255 -0.25801,-0.81703 -0.25801,-1.33304 0,-0.38702 0.23651,-0.81703 0.2365,-0.45151 0.64502,-0.75252 0.38701,-0.40852 0.86002,-0.73103 0.47302,-0.32251 0.94604,-0.55902 0.49451,-0.2365 0.88152,-0.34401 0.23651,0 0.62352,0.0645 0.38702,0.0645 0.53752,0.15051 0.23651,0.086 0.45152,0.47302 0.215,0.36551 0.215,0.73102 0,0.1505 -0.086,0.38701 -0.086,0.23651 -0.27951,0.55902 -0.086,0.23651 -0.1935,0.45151 -0.10751,0.19351 -0.10751,0.27951 -0.1075,0.23651 -0.30101,0.23651 -0.172,-0.0215 -0.36551,-0.19351 -0.17201,-0.1935 -0.27951,-0.45151 -0.086,-0.32251 -0.0645,-0.51602 0.0215,-0.215 0.172,-0.45151 0.23651,-0.23651 0.23651,-0.32251 0,-0.086 -0.23651,-0.086 -0.1505,0 -0.55901,0.1935 -0.38702,0.17201 -0.83853,0.47302 -0.43002,0.27951 -0.75253,0.60202 -0.40851,0.38701 -0.49451,0.55901 -0.0645,0.17201 -0.0645,0.53752 0,0.30101 0.129,0.75253 0.15051,0.45151 0.30101,0.60202 0,0 0.15051,0.30101 0.1505,0.27951 0.36551,0.60202 0.62352,1.37604 0.32251,1.97806 -0.30101,0.60202 -1.56955,0.68802 z m 10.42783,0.15051 q -0.21501,-0.21501 -0.43002,-0.58052 -0.215,-0.38701 -0.34401,-0.88153 -0.043,-0.17201 -0.043,-0.47302 0.0215,-0.30101 0,-0.43001 -0.0645,0.15051 -0.21501,0.32251 -0.129,0.15051 -0.258,0.25801 -0.086,0.086 -0.38702,0.34401 -0.30101,0.23651 -0.60202,0.38701 -0.70952,0.45152 -1.18254,0.49452 -0.45151,0.043 -0.86002,-0.47302 -0.34401,-0.27951 -0.49452,-0.62352 -0.129,-0.34401 0,-0.94603 0.043,-0.75252 0.21501,-1.46204 0.172,-0.73103 0.70952,-1.93507 0.45152,-0.88153 0.68802,-1.29004 0.23651,-0.43001 0.30101,-0.51602 0.32251,-0.1075 0.53752,0.0215 0.21501,0.10751 0.25801,0.40852 0.129,0.215 -0.043,0.73102 -0.15051,0.51602 -0.53752,1.26854 -0.30101,0.73103 -0.55902,1.46205 -0.23651,0.73102 -0.27951,1.24704 -0.043,0.51602 0.25801,0.62352 0.19351,0.1075 0.66652,-0.0645 0.49452,-0.17201 1.09654,-0.86003 0.62352,-0.68802 1.20404,-2.08557 0.172,-0.43001 0.25801,-0.75252 0.086,-0.34401 0.1075,-0.75253 -0.043,-0.258 0.0215,-0.45151 0.086,-0.21501 0.34401,-0.36551 0.086,-0.10751 0.23651,-0.19351 0.1505,-0.1075 0.19351,0 l 0.34401,-0.0215 q 0.086,-0.0215 0.1075,0.1075 0.043,0.10751 0.1505,0.19351 0.23651,0.19351 0.12901,0.83853 -0.1075,0.64502 -0.60202,1.80606 -0.40851,0.88153 -0.55902,1.33304 -0.129,0.45151 -0.1505,0.88153 0,0.38701 0.1505,0.73102 0.15051,0.34401 0.47302,0.62352 0.2365,0.15051 0.258,0.34401 0.043,0.19351 0.0215,0.45152 -0.043,0.1935 -0.25801,0.32251 -0.19351,0.1075 -0.45152,0.1075 -0.25801,0 -0.47301,-0.1505 z m 2.83811,0.23651 q -0.27951,-0.10751 -0.40851,-0.32252 -0.12901,-0.2365 -0.15051,-0.66652 0,-0.25801 0.086,-0.68802 0.086,-0.43001 0.19351,-0.98903 0,-0.043 0,-0.086 0.0215,-0.0645 0.0215,-0.086 0.0215,-0.086 0.043,-0.25801 0.043,-0.172 0.0645,-0.258 0.0215,-0.10751 0.0215,0 l 0.15051,-0.58052 q 0.1075,-0.38702 0.21501,-0.77403 0.1075,-0.38701 0.1935,-0.66652 0.086,-0.30101 0.10751,-0.34401 0,0 0.086,-0.23651 0.086,-0.25801 0.172,-0.49451 0.36552,-1.01054 0.66653,-1.69856 0.30101,-0.70952 0.53751,-1.03203 0.0215,-0.0645 0.0645,-0.15051 0.043,-0.1075 0.0645,-0.172 0.0215,-0.17201 0.043,-0.25801 0.043,-0.10751 0.1075,-0.19351 0.043,-0.086 0.12901,-0.21501 0.086,-0.1505 0.1935,-0.36551 l 0.086,-0.23651 q 0.129,-0.2795 0.32251,-0.62352 0.1935,-0.34401 0.27951,-0.49451 0.086,-0.19351 0.258,-0.45152 0.17201,-0.27951 0.25801,-0.36551 l -0.0215,-0.0215 q 0.10751,-0.19351 0.25801,-0.21501 0.17201,-0.043 0.36551,-0.043 0.30101,0 0.34401,0.086 0.043,0.086 0.043,0.38701 0,0.32251 -0.0215,0.47301 0,0.12901 -0.172,0.30101 h 0.0215 q 0.043,-0.043 -0.0215,0.10751 -0.0645,0.129 -0.1075,0.1935 -0.043,0.10751 -0.10751,0.23651 -0.043,0.129 -0.1075,0.19351 -0.0645,0.086 -0.32251,0.58052 -0.23651,0.47301 -0.55902,1.11803 -0.30101,0.64502 -0.58052,1.24704 -0.27951,0.60202 -0.40851,0.92453 l -0.10751,0.32251 q -0.043,0.086 -0.043,0.12901 -0.0645,0.1505 -0.129,0.30101 -0.0645,0.1505 -0.12901,0.25801 l -0.36551,1.24704 -0.1075,0.45151 -0.19351,0.47302 -0.129,0.40851 q -0.043,0.129 -0.0645,0.23651 -0.0215,0.1075 -0.086,0.172 0,0.0215 -0.0215,0.0645 0,0.0215 0,0.043 -0.086,0.34401 -0.1935,0.96753 -0.10751,0.62352 -0.15051,1.31154 0,0.0215 -0.0215,0.043 0,0.0215 0,0.043 -0.0645,0.45152 -0.21501,0.60202 -0.1505,0.15051 -0.45151,0.0645 z m 4.68717,-0.86003 q -0.32251,-0.043 -0.55902,-0.45152 -0.21501,-0.43001 -0.25801,-0.77402 0.0215,-0.17201 0.043,-0.49452 0.043,-0.32251 0.086,-0.66652 0.086,-0.40851 0.23651,-0.98903 0.15051,-0.60202 0.30101,-1.20404 0.17201,-0.60202 0.30101,-1.03204 0.129,-0.43001 0.17201,-0.51601 0.1075,-0.17201 0.34401,-0.086 0.23651,0.086 0.38701,0.258 0.129,0.17201 0.15051,0.40852 0.043,0.2365 -0.0645,0.68802 -0.086,0.45151 -0.34401,1.33304 -0.23651,0.86003 -0.36551,1.39755 -0.1075,0.51601 -0.086,1.09653 -0.086,0.73103 -0.12901,0.90303 -0.043,0.15051 -0.215,0.12901 z m 2.47258,-8.57878 q -0.086,0.0645 -0.17201,0.0645 -0.0645,-0.0215 -0.23651,-0.129 -0.1505,-0.0215 -0.38701,-0.19351 -0.21501,-0.19351 -0.38701,-0.38701 -0.15051,-0.21501 -0.15051,-0.25801 -0.0215,-0.21501 0.0215,-0.53752 0.0645,-0.34401 0.23651,-0.60202 0.17201,-0.27951 0.49452,-0.30101 0.086,0 0.1505,0.0215 0.0645,0.0215 0.38701,0.15051 0.17201,0.32251 0.34402,0.73102 0.172,0.38701 0.1505,0.77403 -0.0215,0.36551 -0.45151,0.66652 z m 8.08426,8.25627 q -0.43001,0 -0.70952,-0.17201 -0.27951,-0.19351 -0.47302,-0.62352 -0.086,-0.30101 -0.1505,-0.66652 -0.043,-0.38701 -0.043,-0.70952 0,-0.34402 0.0645,-0.45152 0.086,-0.086 0.0645,-0.30101 0,-0.23651 0,-0.49451 -0.0215,-0.43002 -0.21501,-0.47302 -0.172,-0.0645 -0.51601,0.129 -0.38701,0.23651 -1.01053,0.64503 -0.62353,0.38701 -1.31155,0.86002 -0.66652,0.47302 -1.26854,0.98904 -0.47301,0.51601 -0.58052,0.79552 -0.086,0.25801 -0.25801,0.25801 -0.172,0.086 -0.30101,0.0215 -0.1075,-0.086 -0.32251,-0.25801 -0.1505,-0.172 -0.30101,-0.32251 -0.1505,-0.172 -0.1935,-0.25801 0,-0.1075 0.0645,-0.45151 0.0645,-0.34401 0.1505,-0.68802 0.10751,-0.34402 0.15051,-0.45152 0.1075,0 0.172,-0.21501 0.086,-0.215 0.25801,-0.47301 0.043,-0.25801 0.21501,-0.68802 0.19351,-0.45152 0.34401,-0.79553 0.30101,-0.51602 0.40851,-0.86003 0.12901,-0.34401 0.17201,-0.86003 -0.0215,-0.086 0.043,-0.1505 0.0645,-0.086 0.15051,-0.086 v 0 0 q 0.172,-0.17201 0.40851,-0.086 0.23651,0.0645 0.43001,0.32251 0.38702,0.51602 0.30101,1.07504 -0.0645,0.53752 -0.68802,1.54805 -0.1505,0.34401 -0.23651,0.53752 -0.0645,0.172 -0.0645,0.27951 0,0 0.21501,-0.15051 0.23651,-0.1505 0.51602,-0.34401 0.30101,-0.21501 0.47301,-0.32251 0.1075,-0.1075 0.49452,-0.38701 0.38701,-0.27951 0.81702,-0.53752 0.45152,-0.27951 0.66653,-0.32251 0.172,-0.086 0.36551,-0.15051 0.1935,-0.086 0.27951,-0.086 0.172,0 0.43001,0.19351 0.27951,0.172 0.51602,0.43001 0.2365,0.23651 0.27951,0.40852 0,0.086 0,0.172 0.0215,0.086 0.043,0.17201 0.086,0.27951 0.086,0.75252 0.0215,0.47302 -0.0215,0.86003 -0.043,0.38701 -0.15051,0.45151 0,0 0,0.0645 0.0215,0.043 0.10751,0.043 0,0.086 0,0.1075 0,0 0,0 -0.10751,0 -0.086,0.19351 0.0215,0.172 0.129,0.38701 0.129,0.21501 0.25801,0.34401 0.25801,0.25801 0.215,0.49452 -0.043,0.215 -0.38701,0.30101 z"
       id="text1"
       aria-label="Insulin" />
    <path
       style="fill:#9a9996;fill-opacity:1;fill-rule:nonzero;stroke:none;stroke-width:2.374;stroke-linecap:round;stroke-dasharray:none;paint-order:markers fill stroke"
       d="m 352.58525,461.46219 c -0.0984,0.19108 -0.3119,0.85637 0.41891,1.58046 0.62246,0.61675 1.83851,1.32857 3.85775,2.69163 1.30566,0.88137 2.75371,1.91587 4.07513,3.06232 1.3905,1.20638 2.46255,2.3839 3.14269,3.50538 0.36295,0.5993 0.72292,1.31277 1.07796,2.12852 0.34528,0.7933 0.67443,1.65686 0.98744,2.56205 0.64308,1.85975 1.1889,3.81105 1.63401,5.48959 0.46823,1.76574 0.81977,3.19031 1.09481,4.13567 0.54921,1.8878 0.92405,2.18604 1.07098,2.16454 0.1248,-0.0183 0.45673,-0.42494 0.30265,-2.41378 -0.076,-0.98043 -0.27515,-2.46994 -0.62698,-4.30577 -0.33319,-1.73862 -0.80382,-3.77949 -1.39859,-5.74262 -0.29038,-0.95846 -0.6081,-1.8915 -0.95241,-2.76391 -0.35318,-0.8949 -0.73128,-1.71841 -1.13535,-2.44375 -0.7964,-1.42828 -1.96716,-2.85943 -3.41166,-4.25845 -1.3718,-1.32861 -2.88389,-2.52356 -4.24009,-3.47424 -2.01807,-1.41466 -3.53693,-2.2007 -4.31268,-2.4053 -1.04941,-0.27677 -1.49127,0.30656 -1.58457,0.48766 z"
       id="path1"
       inkscape:path-effect="#path-effect2"
       inkscape:original-d="m 352.58525,461.46219 c 0,0 9.3913,4.83795 12.52174,10.24506 3.13043,5.40712 4.83794,17.0751 4.83794,17.0751"
       transform="matrix(0.64502062,0,0,0.64502062,117.01999,138.01218)" />
    <path
       style="fill:#9a9996;fill-opacity:1;fill-rule:nonzero;stroke:none;stroke-width:2.374;stroke-linecap:round;stroke-dasharray:none;paint-order:markers fill stroke"
       d="m 351.87379,469.00369 c 0.10871,0.005 0.37477,-0.17114 0.62295,-1.3168 0.13342,-0.61588 0.25252,-1.2955 0.45251,-2.40286 0.0811,-0.44909 0.16972,-0.93304 0.26004,-1.39013 0.0864,-0.43709 0.17546,-0.85559 0.26489,-1.21532 0.0439,-0.1766 0.0874,-0.33696 0.12987,-0.47622 0.0425,-0.13937 0.0832,-0.25459 0.11975,-0.33851 0.0348,-0.0799 0.0699,-0.13671 0.0766,-0.11913 0.003,0.007 -0.001,0.0352 -0.0303,0.0892 -0.0144,0.0269 -0.0373,0.0641 -0.0717,0.10731 -0.0342,0.0429 -0.0853,0.0985 -0.15712,0.15533 -0.0548,0.0471 -0.0749,0.061 -0.0803,0.0686 -0.005,0.007 0.005,0.006 0.0246,0.001 0.0345,-0.009 0.12494,-0.0386 0.21351,-0.0677 0.19534,-0.0642 0.5126,-0.16929 0.79816,-0.26933 0.0233,-0.008 0.0467,-0.0164 0.0701,-0.0247 0.63581,-0.22488 1.44945,-0.5471 2.19342,-0.86722 1.42946,-0.61506 2.23357,-1.05739 2.67795,-1.36041 0.33853,-0.23084 0.34883,-0.39487 0.33229,-0.46252 -0.0164,-0.0671 -0.10176,-0.20924 -0.51047,-0.25433 -0.50576,-0.0558 -1.48885,-0.0752 -3.02475,0.10333 -0.82066,0.0954 -1.69545,0.23881 -2.39909,0.41765 -0.0259,0.007 -0.0517,0.0132 -0.0775,0.02 -0.32937,0.0863 -0.65764,0.18869 -0.93492,0.29706 -0.12741,0.0498 -0.25195,0.10387 -0.3683,0.1632 -0.0566,0.0289 -0.11745,0.0621 -0.17942,0.1 -0.0565,0.0346 -0.13693,0.0869 -0.22048,0.15512 -0.0895,0.07 -0.15842,0.14258 -0.21016,0.20556 -0.0518,0.0631 -0.0925,0.12401 -0.12414,0.1775 -0.0617,0.1041 -0.10369,0.20436 -0.13321,0.28685 -0.0576,0.161 -0.0946,0.33198 -0.12134,0.48658 -0.0274,0.15888 -0.0494,0.33334 -0.0674,0.51233 -0.0182,0.18042 -0.0333,0.37524 -0.046,0.57721 -0.0257,0.41023 -0.0422,0.8682 -0.0514,1.32927 -0.01,0.48856 -0.0112,0.9856 -0.006,1.45461 0.0113,1.07242 0.0542,1.91377 0.10475,2.4737 0.10626,1.17639 0.37002,1.37882 0.47269,1.38371 z"
       id="path2"
       inkscape:path-effect="#path-effect3"
       inkscape:original-d="m 351.87379,469.00369 c 0,0 0.35573,-7.47035 0.9249,-7.89723 0.56917,-0.42688 6.97233,-1.99209 6.97233,-1.99209"
       transform="matrix(0.64502062,0,0,0.64502062,117.01999,138.01218)" />
  </g>
</svg>
