<?xml version="1.0" encoding="UTF-8" standalone="no"?>
<!-- Created with Inkscape (http://www.inkscape.org/) -->

<svg
   width="293.21109"
   height="400.06711"
   viewBox="0 0 293.21108 400.06711"
   version="1.1"
   id="svg5"
   inkscape:version="1.3 (0e150ed6c4, 2023-07-21)"
   sodipodi:docname="thesis-cover.svg"
   xmlns:inkscape="http://www.inkscape.org/namespaces/inkscape"
   xmlns:sodipodi="http://sodipodi.sourceforge.net/DTD/sodipodi-0.dtd"
   xmlns="http://www.w3.org/2000/svg"
   xmlns:svg="http://www.w3.org/2000/svg">
  <sodipodi:namedview
     id="namedview7"
     pagecolor="#ffffff"
     bordercolor="#e0e0e0"
     borderopacity="1"
     inkscape:pageshadow="2"
     inkscape:pageopacity="0.0"
     inkscape:pagecheckerboard="false"
     inkscape:document-units="px"
     showgrid="false"
     units="px"
     showborder="true"
     inkscape:showpageshadow="true"
     inkscape:deskcolor="#ffffff"
     inkscape:zoom="0.31058683"
     inkscape:cx="890.25023"
     inkscape:cy="877.37139"
     inkscape:window-width="1920"
     inkscape:window-height="991"
     inkscape:window-x="-9"
     inkscape:window-y="-9"
     inkscape:window-maximized="1"
     inkscape:current-layer="layer1" />
  <defs
     id="defs2" />
  <g
     inkscape:label="Layer 1"
     inkscape:groupmode="layer"
     id="layer1"
     transform="translate(-265.86777,-39.147438)">
    <path
       style="fill:#0093fb;fill-opacity:1;stroke:none;stroke-width:0.267028"
       d="m 415.15352,435.58943 c -0.60033,-1.82431 -1.12125,-3.50968 -1.15776,-3.7453 -0.12625,-0.81483 17.46612,2.74863 32.53503,-1.1286 7.69621,-1.98022 15.57109,-4.09634 17.49976,-4.70241 7.1115,-2.23472 12.1151,-4.45555 15.52292,-6.8897 7.1492,-5.10672 6.68376,-8.80552 -3.48457,-27.69147 -7.99987,-14.85843 -9.57284,-21.15115 -6.993,-27.97578 2.19725,-5.81239 6.03471,-9.73061 18.01117,-18.3902 13.42268,-9.70513 16.65037,-13.36488 19.25462,-21.83175 1.13342,-3.68508 2.04596,-9.68304 2.27746,-14.97576 0.16135,-3.6825 0.31731,-4.70863 0.70348,-4.62732 0.86583,0.18226 0.43206,-1.23857 -2.28357,-7.47975 -3.77887,-8.68483 -5.38609,-12.75186 -7.50135,-18.98217 -0.92852,-2.73494 -3.52299,-9.88453 -5.76542,-15.88782 -2.24244,-6.00341 -4.05641,-11.01393 -4.03099,-11.1345 0.0256,-0.12048 0.85654,-0.13027 1.84674,-0.0227 0.99031,0.10803 2.87189,0.28507 4.18129,0.3934 l 2.38073,0.19687 0.34983,-2.5469 c 1.93323,-14.07354 3.47197,-27.72144 4.58608,-40.67719 2.08693,-24.26763 4.01495,-35.40356 8.06848,-46.60134 1.50221,-4.14981 6.74491,-16.32544 7.35003,-17.06947 0.44442,-0.54652 1.24094,-2.217 2.51581,-5.2761 0.14373,-0.34485 0.53884,-1.24406 0.87794,-1.99816 0.66114,-1.47007 2.13725,-7.83915 1.90093,-8.20183 -0.0784,-0.12025 -1.71205,0.26861 -3.63051,0.86401 -1.91846,0.59548 -7.86581,2.12404 -13.21618,3.39744 -9.09505,2.1642 -17.69995,4.50121 -19.24792,5.22754 l -0.67342,0.31594 0.561,1.98977 c 1.97148,6.99619 1.67291,17.39485 -0.79507,27.62837 -2.50222,10.37544 -5.68153,15.34303 -12.05342,18.83331 -2.31967,1.27064 -8.49968,5.13344 -8.40251,5.25181 0.0283,0.0343 0.74055,0.70471 1.58232,1.48888 2.58149,2.40469 4.82523,5.14886 7.70921,9.4285 4.08611,6.06351 4.94001,8.26451 5.18078,13.35392 0.28707,6.06643 -1.845,22.96115 -3.6449,28.88257 -1.81365,5.96649 -5.56192,10.7742 -11.92816,15.29945 l -1.99852,1.42057 0.78684,1.39276 c 2.05794,3.64283 3.76056,8.65649 6.53819,19.25279 3.23357,12.33574 3.63393,15.95001 2.41421,21.79339 -1.15139,5.5138 -2.9508,8.5027 -7.42254,12.32596 -6.24505,5.33946 -24.16515,13.02271 -31.97033,13.7072 -3.38711,0.29716 -7.01874,0.009 -11.59407,-0.91956 -3.0826,-0.62572 -4.44256,-0.99854 -4.61743,-1.26582 -0.18478,-0.28267 -0.0843,-0.83847 0.39459,-2.18343 0.3534,-0.99242 0.58004,-1.86387 0.50364,-1.93663 -0.23624,-0.22509 -5.91376,-1.74462 -5.94603,-1.59145 -0.0854,0.40592 1.02592,13.12108 1.64382,18.80651 0.44294,4.07583 0.60476,6.72458 0.43244,7.07821 -0.61642,1.26489 -5.79076,3.59308 -12.3193,5.54327 -3.54288,1.0586 -3.79176,1.18054 -4.69249,2.30555 -1.46339,1.82797 -5.49532,5.89159 -8.14676,8.2111 -4.41032,3.85805 -15.04318,10.30122 -19.79488,11.99512 -4.49563,1.60257 -10.38998,2.14845 -16.14206,1.49485 -9.70113,-1.10243 -22.21774,-5.23223 -31.04799,-10.24414 l -1.14145,-0.6479 -2.65938,1.26564 c -4.53009,2.15605 -7.81642,2.51152 -12.09274,1.30784 -4.17425,-1.17491 -7.43633,-3.03272 -13.0505,-7.43218 -9.22568,-7.22963 -18.32787,-18.7464 -23.03923,-29.15102 -1.74371,-3.85073 -1.7577,-3.89002 -2.7017,-7.58564 -0.70957,-2.777 -1.18875,-5.60113 -1.40611,-8.28484 -0.1858,-2.29339 -0.35667,-7.36791 -0.28689,-8.51986 0.0359,-0.59268 0.0665,-1.32309 0.0682,-1.62295 0.0106,-1.96779 0.32107,-5.80117 0.88012,-10.86638 0.37965,-3.4393 1.51211,-9.7531 3.11295,-17.35488 1.505,-7.14657 1.93631,-8.82845 2.72241,-10.61496 1.29845,-2.95102 4.08778,-8.03247 5.45831,-9.94352 0.29468,-0.41092 0.57313,-0.90486 0.61882,-1.09774 0.0487,-0.19214 0.40927,-0.77304 0.80808,-1.28938 0.39868,-0.51642 0.76024,-1.08662 0.80334,-1.26722 0.046,-0.17993 0.23887,-0.50768 0.43504,-0.72701 0.59302,-0.66305 4.24151,-7.1434 4.63376,-8.23033 l 0.36609,-1.01444 -3.80128,-5.07117 c -10.95845,-14.6195 -14.1262,-22.28318 -12.27469,-29.69598 0.3203,-1.28336 0.76292,-2.60225 0.98304,-2.9312 1.53761,-2.29638 1.53668,-2.28182 0.39344,-5.85094 -1.55154,-4.84398 -2.11878,-9.6249 -1.71855,-14.48514 0.24301,-2.9516 2.16213,-11.09726 3.15203,-13.37879 0.14672,-0.33827 0.43213,-1.07638 0.63405,-1.64018 0.38062,-1.06283 1.51398,-3.32008 2.14816,-4.27872 0.20026,-0.30251 0.40248,-0.73256 0.44946,-0.95554 0.0469,-0.22309 0.36412,-0.79515 0.70488,-1.27138 0.34069,-0.47623 0.75882,-1.08211 0.92925,-1.34644 0.72012,-1.11725 1.31596,-1.95624 1.85446,-2.61118 0.31547,-0.38385 0.90536,-1.11922 1.31081,-1.63413 0.7142,-0.90737 2.63449,-2.85216 3.0113,-3.04985 0.10197,-0.054 0.91297,-0.71298 1.80188,-1.4656 l 1.61644,-1.36814 -0.0992,-1.17758 c -0.0546,-0.64772 -0.12769,-1.49064 -0.16238,-1.87309 -0.0346,-0.3826 -0.0981,-1.25544 -0.14096,-1.93989 -0.0428,-0.68435 -0.12505,-1.74545 -0.18271,-2.35798 -0.0577,-0.61253 -0.14529,-1.55189 -0.19467,-2.08761 -0.0493,-0.53572 -0.079,-1.2788 -0.0661,-1.65129 0.0128,-0.37245 0.0164,-1.87951 0.008,-3.34902 -0.009,-1.4695 -0.008,-3.12722 6.5e-4,-3.68382 0.0192,-1.1747 1.29775,-7.36877 1.63152,-7.90331 0.12419,-0.19897 0.39442,-0.6946 0.60046,-1.10147 1.69921,-3.35466 8.00294,-5.33424 15.63627,-4.91042 0.51919,0.0289 1.58089,0.0745 2.35919,0.10149 2.83246,0.0981 9.59153,1.14912 12.62403,1.96302 5.70153,1.53024 9.66599,3.92005 11.10715,6.69558 1.56292,3.01005 1.81575,6.4495 0.82047,11.17416 -1.49222,7.08599 -6.36791,14.2067 -12.72939,18.59036 l -1.87155,1.28967 0.45716,2.64218 c 1.14347,6.60942 3.08089,11.31754 6.30878,15.33114 2.74751,3.41623 11.56245,12.3996 12.32459,12.56007 0.50213,0.1058 4.54008,-1.76547 7.30075,-3.38307 3.04651,-1.78519 9.5756,-6.32552 12.7915,-8.89526 2.81148,-2.24651 6.20939,-5.52785 6.3333,-6.11579 0.0392,-0.18682 0.32311,-0.64764 0.63055,-1.02407 1.18732,-1.45402 2.05776,-4.12879 3.03018,-9.31155 0.51452,-2.74336 0.9613,-5.35076 0.99237,-5.79448 0.0311,-0.44374 0.17652,-1.76387 0.32311,-2.93367 0.36483,-2.91253 0.59585,-5.81132 0.94138,-11.80864 0.27701,-4.80956 1.07207,-9.55982 1.80458,-10.78217 0.9832,-1.64094 1.71556,-1.78504 6.0083,-1.18225 2.64409,0.37127 5.08607,0.90155 8.15264,1.77034 5.3574,1.51779 11.75113,3.50124 13.96011,4.33083 0.90407,0.33949 2.21829,0.80465 2.92047,1.0338 1.8489,0.60327 2.52595,0.90805 3.7773,1.70056 1.50237,0.95152 1.64412,1.42186 0.8722,2.89525 -0.33937,0.64767 -0.84412,1.79068 -1.1217,2.53996 -0.36651,0.98962 -0.76347,1.54067 -1.45087,2.01397 -0.57931,0.39903 -1.16767,1.13409 -1.51727,1.89585 -0.31411,0.68421 -1.50594,5.09956 -2.64841,9.81187 -1.14257,4.71224 -2.36787,9.42259 -2.72287,10.46752 -0.35501,1.04494 -0.61297,1.99 -0.57318,2.10034 0.23641,0.65622 7.14332,6.3101 11.74,9.61031 3.07414,2.20717 10.1472,6.70585 10.73931,6.83046 0.26964,0.0569 0.61507,-1.29814 1.70032,-6.66863 1.01014,-4.99976 1.50231,-6.9701 1.90596,-7.63104 0.52206,-0.85494 0.60565,-0.88489 2.06614,-0.7405 7.53794,0.74517 10.96547,0.26052 17.30328,-2.44645 6.49356,-2.77346 8.06197,-3.36373 10.91777,-4.1093 0.95784,-0.25047 1.10262,-0.40129 1.5272,-1.59309 0.25788,-0.72435 0.56054,-1.53826 0.67244,-1.8089 0.11204,-0.27058 0.37351,-0.94973 0.58125,-1.50914 0.20778,-0.5594 0.42718,-1.07073 0.48754,-1.1362 0.0605,-0.0651 0.29207,-0.63337 0.51501,-1.26181 0.22287,-0.62843 0.59668,-1.50365 0.83062,-1.94497 0.2339,-0.4413 0.43633,-0.86111 0.4498,-0.9331 0.0124,-0.0721 0.16184,-0.4375 0.3297,-0.81241 0.16794,-0.37482 0.39963,-0.90736 0.51496,-1.18321 0.1153,-0.27584 0.66896,-1.36098 1.23027,-2.41121 0.6029,-1.12813 0.94059,-2.01498 0.82521,-2.16685 -0.10731,-0.14158 -2.17077,-1.25396 -4.58515,-2.47214 -2.41438,-1.21819 -6.76887,-3.57372 -9.67663,-5.23447 -2.90775,-1.66074 -6.06935,-3.38556 -7.02574,-3.83276 -2.34201,-1.09533 -8.89389,-2.46455 -12.47816,-2.60764 -3.97224,-0.15867 -4.84386,-0.40062 -5.43831,-1.50989 -0.922,-1.72046 -1.188,-4.94365 -0.92866,-11.25164 0.25882,-6.29504 0.64674,-9.50158 1.85132,-15.30099 1.67766,-8.077893 2.30778,-8.845128 6.76881,-8.243282 13.57696,1.831762 23.59492,-0.227866 34.05174,-7.000896 3.39318,-2.197887 5.17719,-3.981366 5.89245,-5.890937 0.52016,-1.388654 1.5968,-3.384709 2.26193,-4.193433 0.30382,-0.369334 0.5759,-0.779695 0.60464,-0.911946 0.17344,-0.795639 6.49306,-7.728833 7.42489,-8.145361 0.11428,-0.05063 0.65204,-0.49031 1.19536,-0.976272 0.54331,-0.485846 1.65724,-1.356476 2.47545,-1.934642 0.8182,-0.578049 2.06611,-1.481896 2.77321,-2.008376 2.89717,-2.157055 12.78628,-8.426933 15.67017,-9.934898 1.54595,-0.808477 3.88714,-2.081315 4.16261,-2.263142 0.0872,-0.05782 0.70255,-0.355645 1.36752,-0.662454 1.30126,-0.600573 2.13936,-1.021129 2.70396,-1.357182 0.19541,-0.115889 1.26761,-0.646081 2.3828,-1.177537 2.57299,-1.226091 6.16685,-3.023404 7.589,-3.795122 0.6043,-0.327968 1.698,-0.899891 2.43042,-1.270974 0.73246,-0.371094 1.55878,-0.811068 1.83633,-0.977697 0.27752,-0.166665 1.18571,-0.645789 2.01816,-1.064622 0.83251,-0.418736 1.79143,-0.914431 2.13097,-1.101348 3.54244,-1.950356 9.31614,-4.781174 9.86377,-4.835928 0.2974,-0.02928 0.89597,0.195703 1.33087,0.49922 0.77087,0.539631 2.95048,3.249899 3.74631,4.6583 0.59001,1.044179 3.4556,4.713907 4.68399,5.99831 0.58967,0.616647 2.02311,1.681708 3.1855,2.367036 1.16231,0.685225 2.44705,1.498825 2.8549,1.807837 0.40786,0.308999 0.84989,0.584645 0.98234,0.612604 0.46715,0.09832 2.78066,2.212077 3.57455,3.265827 0.7054,0.936358 0.78961,1.273798 0.68655,2.751486 -0.28006,4.015689 -3.62796,7.538997 -9.15212,9.631572 -1.04006,0.393881 -1.9973,0.780382 -2.1273,0.858587 -0.37238,0.224112 0.17784,3.986339 1.13707,7.775013 0.48259,1.906243 1.70284,5.478746 2.71163,7.938951 5.05843,12.336648 6.31856,16.160286 7.39224,22.430246 1.39491,8.14581 1.57516,17.68059 0.48691,25.75725 -0.77723,5.76815 -2.48223,11.29733 -5.9014,19.13716 -0.63767,1.46228 -0.91439,2.35499 -0.75818,2.44635 0.15199,0.0889 -0.65121,2.34699 -2.10295,5.91201 -4.02807,9.89159 -4.30274,10.73395 -5.74211,17.60616 -1.53684,7.33954 -2.11792,11.95865 -3.35835,26.71268 -1.4163,16.84558 -2.16705,23.62142 -3.78238,34.13759 -0.23447,1.52654 -0.53735,3.55039 -0.67303,4.49733 -0.3951,2.75773 -1.09772,7.51569 -1.16265,7.87348 -0.0707,0.38906 0.59878,0.54201 3.30468,0.75496 1.9885,0.15651 4.95135,1.12008 4.85473,1.57894 -0.0225,0.10707 -0.48442,0.82278 -1.02636,1.59023 -0.54194,0.76757 -1.13539,1.60954 -1.31882,1.87114 -0.18336,0.26159 -1.37131,2.03757 -2.63971,3.94672 -1.26848,1.90906 -2.60849,3.89864 -2.97785,4.42118 -0.36936,0.52266 -1.62793,2.40648 -2.79676,4.18656 -1.1688,1.78007 -3.43102,5.11032 -5.02709,7.40071 -1.59611,2.29039 -3.73577,5.58517 -4.75484,7.32172 -1.65986,2.8285 -8.30055,15.51321 -8.42111,16.08568 -0.0265,0.12625 0.40352,0.40736 0.95576,0.62471 1.15441,0.45432 1.17815,0.5755 0.97557,4.98168 -0.24416,5.31026 -0.55854,7.80732 -1.60655,12.76003 -1.18677,5.60766 -1.87168,7.60783 -3.92258,11.45188 -3.11926,5.84645 -7.20772,9.7833 -18.62451,17.93388 -8.81678,6.29441 -11.7916,8.80954 -14.27286,12.06712 -1.85521,2.43579 -2.6116,4.46614 -2.51827,6.76008 0.1855,4.55869 1.31851,7.18428 10.08066,23.36029 1.0679,1.97147 2.51265,4.81441 3.21056,6.31767 7.50767,16.17111 3.36132,24.60716 -15.76662,32.0783 -5.96883,2.3313 -10.97651,3.81509 -24.88443,7.37374 -8.27788,2.11794 -21.80132,-2.96555 -25.16386,-1.80866 -3.02861,1.04203 -5.68679,1.9234 -5.90704,1.95873 -0.27882,0.0446 -0.73217,-0.94389 -1.49187,-3.25277 z m -103.3431,-72.15292 c 0.7194,-0.0611 1.65431,-0.24644 2.07756,-0.41186 l 0.76972,-0.30023 -1.36448,-1.14842 c -3.17558,-2.67277 -5.63898,-5.77027 -7.19979,-9.05318 -2.37003,-4.98473 -4.28598,-14.10212 -5.04005,-23.98361 -0.0873,-1.144 -0.19357,-2.39438 -0.23624,-2.77858 -0.0426,-0.38421 -0.12115,-1.44454 -0.17456,-2.35629 -0.0535,-0.91173 -0.12876,-2.0328 -0.16736,-2.49115 -0.0961,-1.14034 -0.16601,-2.89557 -0.14797,-3.71508 0.008,-0.3735 -10e-4,-1.48072 -0.0216,-2.46056 -0.0201,-0.97985 -0.0106,-2.23646 0.0211,-2.79259 0.0932,-1.63688 0.15211,-2.93036 0.16136,-3.5481 0.0391,-2.60607 1.62415,-11.12326 2.54729,-13.68722 0.70388,-1.95544 2.27196,-4.80818 3.48835,-6.34637 l 1.10046,-1.39168 -0.98313,-1.58535 c -2.21998,-3.57982 -4.18773,-7.91042 -7.91774,-17.42521 -2.87513,-7.33408 -4.81531,-11.52366 -6.87418,-14.84408 l -1.52026,-2.45184 -2.17177,3.58104 c -1.19446,1.96957 -2.80558,4.55273 -3.58006,5.7404 -2.2346,3.42653 -4.82131,8.05163 -5.87114,10.49769 -1.6909,3.93997 -4.78484,20.1767 -5.67976,29.80708 -0.99919,10.75309 -0.36133,19.93222 1.81644,26.13924 1.88878,5.38312 6.63798,13.17447 11.9945,19.67766 4.29637,5.21614 10.89917,11.41688 14.86217,13.95721 3.33891,2.14024 7.65709,3.58009 10.11127,3.37157 z m 34.17067,3.74443 c 4.30987,-1.39076 7.82123,-3.64806 11.6964,-7.51907 2.34327,-2.34064 4.41857,-4.95415 9.9982,-12.5906 2.47103,-3.38179 5.34204,-7.25932 6.38008,-8.61663 1.03805,-1.35731 2.04851,-2.71723 2.24551,-3.02202 0.25514,-0.3947 0.35812,-2.23476 0.35779,-6.39615 -7.2e-4,-9.93268 -0.63397,-15.52317 -2.20614,-19.47495 -0.89526,-2.25049 -0.76049,-3.00877 0.64322,-3.62095 0.96255,-0.41985 6.75539,-1.91166 8.0789,-2.08451 l 0.9214,-0.11855 -1.07361,-1.84458 c -0.59047,-1.01454 -2.23149,-3.84861 -3.64667,-6.2978 -7.51176,-13.00053 -10.8243,-16.97336 -15.09118,-18.09929 -4.23493,-1.11758 -8.48156,0.36441 -18.91285,6.60033 -3.98098,2.37991 -3.92967,2.10066 -0.6562,3.5688 6.25312,2.80436 9.39832,6.28411 12.17911,13.47455 2.83113,7.32057 3.34943,9.53691 3.49053,14.92509 0.0752,2.87036 0.006,3.36422 -1.40889,10.07291 -1.70053,8.075 -2.34622,9.91044 -5.16276,14.74002 -2.80333,4.80696 -10.81255,14.52569 -12.07481,14.65204 -0.47113,0.0486 -4.0635,-1.26345 -5.48332,-2.00073 -0.44899,-0.23318 -0.70884,-0.082 -1.61846,0.94179 l -1.08361,1.21943 0.51585,1.6209 c 1.39614,4.38655 3.8652,8.11919 6.47195,9.78401 1.31522,0.83998 3.01926,0.86684 5.43937,0.0859 z m -13.74741,-30.23389 c 3.27079,-5.54922 5.60709,-11.31494 7.30975,-18.04017 2.01751,-7.96805 1.9215,-14.35601 -0.30139,-20.06327 -0.86201,-2.21312 -2.21538,-4.30973 -2.7429,-4.24922 -0.58798,0.068 -3.08946,3.54249 -3.91501,5.43912 -1.68998,3.88228 -2.32594,8.5707 -2.70933,19.97547 -0.30428,9.05049 -0.0715,19.76908 0.43164,19.87507 0.0959,0.0197 0.96319,-1.30148 1.92724,-2.937 z m 89.73592,-20.32978 c 0.41283,-0.73858 1.03061,-1.68295 1.37288,-2.09864 l 0.62225,-0.75586 3.19733,0.65767 c 7.41184,1.52455 10.57221,1.27141 16.02259,-1.28246 3.38816,-1.58764 9.54293,-5.47946 11.8418,-7.48779 2.14105,-1.87056 5.01806,-5.26771 6.13857,-7.24849 0.41722,-0.73765 0.86987,-1.44048 1.00579,-1.562 0.51506,-0.46012 1.66935,-2.7288 2.34083,-4.60082 0.86717,-2.41759 1.24017,-6.06354 0.71385,-6.97897 -1.00462,-1.74754 -4.23715,-2.97719 -12.34487,-4.69595 -2.74482,-0.58197 -6.42398,-1.47932 -8.1759,-1.99426 -1.75189,-0.51495 -6.38043,-1.79949 -10.28567,-2.85456 -3.90518,-1.05498 -8.0705,-2.24923 -9.25627,-2.65396 l -2.1559,-0.73569 -2.1617,0.50648 c -4.17545,0.97726 -7.49571,0.67779 -8.79883,-0.79366 -0.91897,-1.03757 -1.54592,-2.79098 -1.93033,-5.39859 -1.00687,-6.82963 -0.56471,-16.70666 0.95452,-21.32265 0.97894,-2.97442 1.97847,-3.56821 6.29431,-3.739 1.41379,-0.056 3.34351,-0.27372 4.28819,-0.48488 0.94474,-0.21019 2.5306,-0.45185 3.52414,-0.53705 1.93065,-0.16562 5.4622,-0.37712 5.67679,-0.33993 0.0713,0.0118 0.46576,0.0204 0.8765,0.018 0.41092,-0.002 0.99213,-0.003 1.29186,-8.7e-4 2.16309,0.0142 8.35129,-0.35249 9.94802,-0.58961 0.61976,-0.0918 1.56809,-0.22181 2.10742,-0.28864 0.53938,-0.0668 1.30063,-0.18318 1.69173,-0.25862 0.39116,-0.0753 0.96528,-0.17703 1.27568,-0.2267 5.26176,-0.83348 12.16535,-3.85224 15.58916,-6.81692 0.54627,-0.47307 3.79096,-3.68129 4.46963,-4.41948 0.28581,-0.31083 -2.20038,-3.03718 -7.04178,-7.72191 -7.11364,-6.88351 -8.67891,-7.79744 -15.93409,-9.30352 -2.66046,-0.5515 -8.11432,-1.47688 -12.12002,-2.05462 -9.79438,-1.41271 -12.75325,-2.26529 -14.69599,-4.23448 -1.1141,-1.12924 -1.46682,-2.65376 -1.34745,-5.82344 0.0533,-1.41462 0.0817,-2.59181 0.063,-2.61617 -0.0186,-0.0245 -1.41024,-0.79731 -3.09244,-1.71786 -6.31165,-3.45382 -14.34891,-9.02291 -19.97958,-13.84397 -1.19529,-1.02344 -2.24419,-1.87404 -2.33082,-1.89025 -0.087,-0.0154 -0.85768,1.01879 -1.71338,2.29979 -5.97322,8.94205 -15.18791,15.73366 -27.42475,20.21325 -6.34834,2.32396 -10.97044,3.07358 -16.46568,2.67161 -4.036,-0.29553 -28.75779,-5.00643 -32.98119,-6.28492 -3.42092,-1.03551 -7.2737,-3.1746 -10.31364,-5.72617 -1.1681,-0.98046 -2.23687,-1.80644 -2.37496,-1.83542 -0.13823,-0.0296 -0.79609,0.41563 -1.46215,0.98827 -0.66604,0.57262 -3.43551,2.59207 -6.15444,4.48762 l -4.94344,3.44653 1.15297,2.15046 c 0.63408,1.1827 1.13108,2.25389 1.10444,2.3804 -0.0836,0.39718 -0.84047,1.20073 -2.35909,2.50471 -0.89153,0.76559 -1.41806,1.40445 -1.34153,1.62772 0.0693,0.20208 0.89868,2.0761 1.84298,4.16434 4.72186,10.44216 6.46581,16.07641 6.72314,21.72146 0.0946,2.07507 -0.0317,3.192 -0.7737,6.84353 l -0.88693,4.36373 2.65577,4.19586 c 3.24438,5.12591 4.65329,8.05896 8.67469,18.05927 3.56918,8.87596 4.97735,11.95061 6.88758,15.03865 l 1.35019,2.18274 2.54483,-0.57268 c 4.34145,-0.97711 8.43385,-0.95551 14.66559,0.0778 l 3.94622,0.65418 5.49311,-3.33392 c 8.67008,-5.26198 12.76434,-7.35236 16.86493,-8.61045 8.71451,-2.67369 15.32645,0.34875 21.84598,9.98625 0.84272,1.24573 3.49749,5.62594 5.8995,9.7339 2.402,4.10786 4.83677,8.16468 5.41063,9.01517 l 1.04332,1.54635 1.07605,-0.11781 c 0.59196,-0.0645 2.4788,-0.36409 4.19318,-0.66539 5.89931,-1.03656 12.17492,-1.17632 13.95133,-0.31059 0.94387,0.45991 1.28558,2.17334 1.74321,8.74016 0.20546,2.94894 0.44225,5.46539 0.52621,5.59229 0.21869,0.33039 2.23854,0.88815 5.95758,1.64506 l 3.23537,0.65833 z M 288.12618,236.10576 c 0.52621,-4.78721 -1.12035,-10.78866 -5.80064,-21.14202 -0.91858,-2.03203 -1.72017,-3.70513 -1.78131,-3.71804 -0.0612,-0.0124 -1.00958,0.46279 -2.10779,1.05705 -1.09823,0.59414 -2.09914,1.05882 -2.22446,1.0324 -0.12521,-0.0263 -0.36296,-0.39412 -0.5282,-0.81709 -0.40524,-1.03709 -0.52047,-0.87681 -0.52825,0.73452 -0.0175,3.6361 1.92776,8.42745 5.88418,14.49321 2.21937,3.40268 6.61762,9.55746 6.86738,9.61011 0.0441,0.009 0.14276,-0.55325 0.21894,-1.2501 z m 2.74413,-46.60323 c 2.48868,-1.7494 4.75235,-3.45149 5.03055,-3.78235 0.49448,-0.58837 0.45853,-0.67658 -1.62386,-3.98554 -1.17124,-1.86113 -2.57972,-4.42936 -3.12989,-5.70708 -0.55024,-1.27771 -1.11,-2.25163 -1.24401,-2.16428 -0.13408,0.0871 -0.92258,1.11758 -1.75236,2.2892 -2.12699,3.00358 -3.6446,6.28774 -4.30599,9.31851 -0.57426,2.63363 -0.46317,3.56794 0.80882,6.78009 0.54616,1.37908 0.004,1.61868 6.21674,-2.74855 z M 462.65346,163.3644 c 0.65529,-0.16257 1.31655,-0.26845 1.46917,-0.23625 0.15267,0.0324 0.50349,-0.002 0.77978,-0.0769 0.27529,-0.0779 0.82112,-0.19121 1.2106,-0.26017 4.00955,-0.70403 10.92543,-2.75561 11.05303,-3.27894 0.088,-0.35768 -3.9043,-3.19092 -7.31457,-5.19166 -1.78162,-1.04524 -3.28924,-1.86773 -3.35036,-1.8279 -0.43421,0.28315 -4.91038,9.74408 -5.15125,10.88782 -0.0681,0.32334 -0.071,0.32314 1.30345,-0.0165 z m 21.74648,-32.20769 c 0.64552,-0.28566 1.36809,-0.56812 1.60578,-0.6276 0.23862,-0.0561 0.6989,-0.19778 1.02198,-0.31779 0.32456,-0.1147 1.57802,-0.52896 2.78588,-0.91888 1.20791,-0.38984 2.52745,-0.82619 2.93275,-0.96811 0.40524,-0.14212 3.65508,-0.99775 7.22225,-1.9001 14.3595,-3.63404 19.46013,-5.06244 23.73414,-6.64662 0.32735,-0.12122 0.3732,-0.52969 0.25698,-2.28794 -0.41333,-6.25228 -2.00464,-11.85079 -5.08054,-17.873795 -3.77604,-7.394187 -4.43981,-8.762523 -5.02266,-10.353721 -0.35355,-0.965109 -0.71616,-1.77014 -0.80598,-1.78911 -0.22665,-0.04797 -11.66307,7.954308 -13.63999,9.543782 -4.41167,3.547154 -6.31458,5.872444 -8.67558,10.601244 -0.6471,1.2961 -1.62741,2.98279 -2.17844,3.74812 -2.57902,3.58258 -7.47784,7.42123 -13.63494,10.68394 -1.83111,0.97039 -3.33752,1.80359 -3.34765,1.85153 -0.0102,0.0475 0.72038,0.51526 1.62329,1.03834 2.52303,1.46166 6.16961,3.91878 7.89922,5.32275 0.85817,0.69658 1.68843,1.29949 1.84504,1.33982 0.15639,0.0405 0.81286,-0.16029 1.4584,-0.44585 z"
       id="path18-7"
       sodipodi:nodetypes="ccsccsssscssssssscsssssssssscssssssssscsscsscssssscsssscscsccsccsccscsccccscscccccscsccccccccccsccsccccssccccssscccccsccssssssscsscscssccsssscsccccssscssscsscsssscssssscssssssscscsssssscssscssssscssssscsssssssssscssssscssssccsccscsccccscccccssscsccscsssscssssccsccscssssccscsscssccscsscscscscsssscscsssscsscsscscsscsscssscssssssccscssccsccsccssccscccscccssssccssssccccscscccscccscscccccsssccccscssssccsscssssssssscsscss" />
  </g>
</svg>
