<?xml version="1.0" encoding="UTF-8" standalone="no"?>
<svg
   zoomAndPan="magnify"
   preserveAspectRatio="xMidYMid meet"
   version="1.0"
   viewBox="321.86 391.22 166.32 35.77"
   id="svg28"
   sodipodi:docname="logo.svg"
   inkscape:version="1.3 (0e150ed6c4, 2023-07-21)"
   xmlns:inkscape="http://www.inkscape.org/namespaces/inkscape"
   xmlns:sodipodi="http://sodipodi.sourceforge.net/DTD/sodipodi-0.dtd"
   xmlns="http://www.w3.org/2000/svg"
   xmlns:svg="http://www.w3.org/2000/svg">
  <sodipodi:namedview
     id="namedview28"
     pagecolor="#ffffff"
     bordercolor="#666666"
     borderopacity="1.0"
     inkscape:showpageshadow="2"
     inkscape:pageopacity="0.0"
     inkscape:pagecheckerboard="0"
     inkscape:deskcolor="#d1d1d1"
     inkscape:zoom="3.1503493"
     inkscape:cx="82.054392"
     inkscape:cy="6.82464"
     inkscape:window-width="1920"
     inkscape:window-height="991"
     inkscape:window-x="-9"
     inkscape:window-y="-9"
     inkscape:window-maximized="1"
     inkscape:current-layer="svg28" />
  <defs
     id="defs1">
    <g
       id="g1" />
  </defs>
  <g
     fill="currentColor"
     fill-opacity="1"
     id="g16">
    <g
       transform="translate(400.091726, 434.616884)"
       id="g15">
      <g
         id="g14" />
    </g>
  </g>
  <g
     id="g1947"
     inkscape:export-filename="C:\Users\cslau\Desktop\Personal\Art-Signature.png"
     inkscape:export-xdpi="95.9981"
     inkscape:export-ydpi="95.9981"
     transform="matrix(0.05885869,0,0,0.05885869,234.97549,262.34045)">
    <path
       style="fill:none;stroke:#000000;stroke-width:38.7;stroke-linecap:round;stroke-linejoin:miter;stroke-miterlimit:4;stroke-dasharray:none;stroke-opacity:1"
       d="m 2303.3644,2255.199 c -56.2019,-32.3501 -110.5748,29.0117 -133.571,75.1263 -42.3646,79.1735 -23.4061,182.0417 38.8149,244.9978 38.7901,25.0737 85.8812,47.1582 133.267,46.4997 69.7082,2.2504 132.6968,-50.1923 146.7445,-117.8424 16.6194,-59.3687 27.2423,-121.0021 34.8536,-181.8264 0.4077,-22.9307 0.9791,-92.3127 -2.99,-84.0137 4.6557,86.2399 3.6445,172.5378 -3.2084,258.678 4.6541,33.8877 -22.7233,128.4121 36.6285,111.4096 42.4556,-12.9684 89.7193,-6.3023 134.1601,-7.955 58.1132,2.6294 116.0001,3.981 173.8542,-3.2411 66.1917,-5.9645 132.0125,4.424 198.1346,-1.2069 74.66,0.7537 149.4262,0.1893 223.684,-6.663 53.0793,10.0094 15.6882,100.9534 27.0194,144.8855 4.1284,51.9559 13.5677,-42.0474 8.0471,-58.5738 -4.7028,-42.8866 -33.2272,-98.0334 33.2062,-89.9136 92.6431,-11.5376 186.1482,-18.1633 279.3239,-19.047 l -1.5397,-0.1393 1.4273,-0.01"
       id="path1888" />
    <path
       style="fill:#000000;stroke:#000000;stroke-width:20;stroke-linecap:round;stroke-miterlimit:4;stroke-dasharray:none;paint-order:fill markers stroke;stop-color:#000000"
       d="m 3266.1792,2492.0259 c -3.0493,-6.8654 -0.5411,-15.1905 4.8575,-20.1407 6.7611,-6.4517 16.7544,-8.0326 25.7265,-6.8207 9.4437,1.0868 19.0789,5.6142 24.0438,14.043 4.0204,6.562 4.2533,15.593 -0.5642,21.8183 -4.568,6.063 -12.7982,7.7523 -19.9865,6.9921 -6.5225,-0.7402 -12.9247,-2.3719 -19.2051,-4.2443 -6.0798,-1.9665 -12.1767,-5.5826 -14.872,-11.6477 z"
       id="path1890" />
    <path
       style="fill:#000000;stroke:#000000;stroke-width:20;stroke-linecap:round;stroke-miterlimit:4;stroke-dasharray:none;paint-order:fill markers stroke;stop-color:#000000"
       d="m 3178.3197,2513.0847 c -6.6605,-0.9816 -11.7261,-6.6355 -12.8423,-12.8075 -1.5883,-7.8464 2.0674,-15.765 7.3353,-21.6576 5.4022,-6.2898 13.4939,-11.1262 22.2636,-10.7993 6.9027,0.1428 13.831,4.1516 16.1915,10.4953 2.359,6.0892 -0.3595,12.7899 -4.4209,17.6084 -3.7233,4.349 -8.0611,8.1991 -12.5213,11.8503 -4.434,3.4635 -10.1211,6.1765 -16.0059,5.3104 z"
       id="path1892" />
  </g>
</svg>
