<?xml version="1.0" encoding="UTF-8" standalone="no"?>
<!-- Created with Inkscape (http://www.inkscape.org/) -->

<svg
   width="1263.9015"
   height="901.17084"
   viewBox="0 0 1263.9015 901.17084"
   version="1.1"
   id="svg5"
   inkscape:version="1.3 (0e150ed6c4, 2023-07-21)"
   sodipodi:docname="thesis-cover.svg"
   xmlns:inkscape="http://www.inkscape.org/namespaces/inkscape"
   xmlns:sodipodi="http://sodipodi.sourceforge.net/DTD/sodipodi-0.dtd"
   xmlns="http://www.w3.org/2000/svg"
   xmlns:svg="http://www.w3.org/2000/svg">
  <sodipodi:namedview
     id="namedview7"
     pagecolor="#ffffff"
     bordercolor="#e0e0e0"
     borderopacity="1"
     inkscape:pageshadow="2"
     inkscape:pageopacity="0.0"
     inkscape:pagecheckerboard="false"
     inkscape:document-units="px"
     showgrid="false"
     units="px"
     showborder="true"
     inkscape:showpageshadow="true"
     inkscape:deskcolor="#ffffff"
     inkscape:zoom="0.31058683"
     inkscape:cx="716.38581"
     inkscape:cy="355.77812"
     inkscape:window-width="1920"
     inkscape:window-height="991"
     inkscape:window-x="-9"
     inkscape:window-y="-9"
     inkscape:window-maximized="1"
     inkscape:current-layer="layer1" />
  <defs
     id="defs2" />
  <g
     inkscape:label="Layer 1"
     inkscape:groupmode="layer"
     id="layer1"
     transform="translate(-229.99999,-39.147438)">
    <path
       style="fill:#0093fb;fill-opacity:1;stroke:none;stroke-width:0.267028"
       d="m 415.15352,435.58943 c -0.60033,-1.82431 -1.12125,-3.50968 -1.15776,-3.7453 -0.12625,-0.81483 17.46612,2.74863 32.53503,-1.1286 7.69621,-1.98022 15.57109,-4.09634 17.49976,-4.70241 7.1115,-2.23472 12.1151,-4.45555 15.52292,-6.8897 7.1492,-5.10672 6.68376,-8.80552 -3.48457,-27.69147 -7.99987,-14.85843 -9.57284,-21.15115 -6.993,-27.97578 2.19725,-5.81239 6.03471,-9.73061 18.01117,-18.3902 13.42268,-9.70513 16.65037,-13.36488 19.25462,-21.83175 1.13342,-3.68508 2.04596,-9.68304 2.27746,-14.97576 0.16135,-3.6825 0.31731,-4.70863 0.70348,-4.62732 0.86583,0.18226 0.43206,-1.23857 -2.28357,-7.47975 -3.77887,-8.68483 -5.38609,-12.75186 -7.50135,-18.98217 -0.92852,-2.73494 -3.52299,-9.88453 -5.76542,-15.88782 -2.24244,-6.00341 -4.05641,-11.01393 -4.03099,-11.1345 0.0256,-0.12048 0.85654,-0.13027 1.84674,-0.0227 0.99031,0.10803 2.87189,0.28507 4.18129,0.3934 l 2.38073,0.19687 0.34983,-2.5469 c 1.93323,-14.07354 3.47197,-27.72144 4.58608,-40.67719 2.08693,-24.26763 4.01495,-35.40356 8.06848,-46.60134 1.50221,-4.14981 6.74491,-16.32544 7.35003,-17.06947 0.44442,-0.54652 1.24094,-2.217 2.51581,-5.2761 0.14373,-0.34485 0.53884,-1.24406 0.87794,-1.99816 0.66114,-1.47007 2.13725,-7.83915 1.90093,-8.20183 -0.0784,-0.12025 -1.71205,0.26861 -3.63051,0.86401 -1.91846,0.59548 -7.86581,2.12404 -13.21618,3.39744 -9.09505,2.1642 -17.69995,4.50121 -19.24792,5.22754 l -0.67342,0.31594 0.561,1.98977 c 1.97148,6.99619 1.67291,17.39485 -0.79507,27.62837 -2.50222,10.37544 -5.68153,15.34303 -12.05342,18.83331 -2.31967,1.27064 -8.49968,5.13344 -8.40251,5.25181 0.0283,0.0343 0.74055,0.70471 1.58232,1.48888 2.58149,2.40469 4.82523,5.14886 7.70921,9.4285 4.08611,6.06351 4.94001,8.26451 5.18078,13.35392 0.28707,6.06643 -1.845,22.96115 -3.6449,28.88257 -1.81365,5.96649 -5.56192,10.7742 -11.92816,15.29945 l -1.99852,1.42057 0.78684,1.39276 c 2.05794,3.64283 3.76056,8.65649 6.53819,19.25279 3.23357,12.33574 3.63393,15.95001 2.41421,21.79339 -1.15139,5.5138 -2.9508,8.5027 -7.42254,12.32596 -6.24505,5.33946 -24.16515,13.02271 -31.97033,13.7072 -3.38711,0.29716 -7.01874,0.009 -11.59407,-0.91956 -3.0826,-0.62572 -4.44256,-0.99854 -4.61743,-1.26582 -0.18478,-0.28267 -0.0843,-0.83847 0.39459,-2.18343 0.3534,-0.99242 0.58004,-1.86387 0.50364,-1.93663 -0.23624,-0.22509 -5.91376,-1.74462 -5.94603,-1.59145 -0.0854,0.40592 1.02592,13.12108 1.64382,18.80651 0.44294,4.07583 0.60476,6.72458 0.43244,7.07821 -0.61642,1.26489 -5.79076,3.59308 -12.3193,5.54327 -3.54288,1.0586 -3.79176,1.18054 -4.69249,2.30555 -1.46339,1.82797 -5.49532,5.89159 -8.14676,8.2111 -4.41032,3.85805 -15.04318,10.30122 -19.79488,11.99512 -4.49563,1.60257 -10.38998,2.14845 -16.14206,1.49485 -9.70113,-1.10243 -22.21774,-5.23223 -31.04799,-10.24414 l -1.14145,-0.6479 -2.65938,1.26564 c -4.53009,2.15605 -7.81642,2.51152 -12.09274,1.30784 -4.17425,-1.17491 -7.43633,-3.03272 -13.0505,-7.43218 -9.22568,-7.22963 -18.32787,-18.7464 -23.03923,-29.15102 -1.74371,-3.85073 -1.7577,-3.89002 -2.7017,-7.58564 -0.70957,-2.777 -1.18875,-5.60113 -1.40611,-8.28484 -0.1858,-2.29339 -0.35667,-7.36791 -0.28689,-8.51986 0.0359,-0.59268 0.0665,-1.32309 0.0682,-1.62295 0.0106,-1.96779 0.32107,-5.80117 0.88012,-10.86638 0.37965,-3.4393 1.51211,-9.7531 3.11295,-17.35488 1.505,-7.14657 1.93631,-8.82845 2.72241,-10.61496 1.29845,-2.95102 4.08778,-8.03247 5.45831,-9.94352 0.29468,-0.41092 0.57313,-0.90486 0.61882,-1.09774 0.0487,-0.19214 0.40927,-0.77304 0.80808,-1.28938 0.39868,-0.51642 0.76024,-1.08662 0.80334,-1.26722 0.046,-0.17993 0.23887,-0.50768 0.43504,-0.72701 0.59302,-0.66305 4.24151,-7.1434 4.63376,-8.23033 l 0.36609,-1.01444 -3.80128,-5.07117 c -10.95845,-14.6195 -14.1262,-22.28318 -12.27469,-29.69598 0.3203,-1.28336 0.76292,-2.60225 0.98304,-2.9312 1.53761,-2.29638 1.53668,-2.28182 0.39344,-5.85094 -1.55154,-4.84398 -2.11878,-9.6249 -1.71855,-14.48514 0.24301,-2.9516 2.16213,-11.09726 3.15203,-13.37879 0.14672,-0.33827 0.43213,-1.07638 0.63405,-1.64018 0.38062,-1.06283 1.51398,-3.32008 2.14816,-4.27872 0.20026,-0.30251 0.40248,-0.73256 0.44946,-0.95554 0.0469,-0.22309 0.36412,-0.79515 0.70488,-1.27138 0.34069,-0.47623 0.75882,-1.08211 0.92925,-1.34644 0.72012,-1.11725 1.31596,-1.95624 1.85446,-2.61118 0.31547,-0.38385 0.90536,-1.11922 1.31081,-1.63413 0.7142,-0.90737 2.63449,-2.85216 3.0113,-3.04985 0.10197,-0.054 0.91297,-0.71298 1.80188,-1.4656 l 1.61644,-1.36814 -0.0992,-1.17758 c -0.0546,-0.64772 -0.12769,-1.49064 -0.16238,-1.87309 -0.0346,-0.3826 -0.0981,-1.25544 -0.14096,-1.93989 -0.0428,-0.68435 -0.12505,-1.74545 -0.18271,-2.35798 -0.0577,-0.61253 -0.14529,-1.55189 -0.19467,-2.08761 -0.0493,-0.53572 -0.079,-1.2788 -0.0661,-1.65129 0.0128,-0.37245 0.0164,-1.87951 0.008,-3.34902 -0.009,-1.4695 -0.008,-3.12722 6.5e-4,-3.68382 0.0192,-1.1747 1.29775,-7.36877 1.63152,-7.90331 0.12419,-0.19897 0.39442,-0.6946 0.60046,-1.10147 1.69921,-3.35466 8.00294,-5.33424 15.63627,-4.91042 0.51919,0.0289 1.58089,0.0745 2.35919,0.10149 2.83246,0.0981 9.59153,1.14912 12.62403,1.96302 5.70153,1.53024 9.66599,3.92005 11.10715,6.69558 1.56292,3.01005 1.81575,6.4495 0.82047,11.17416 -1.49222,7.08599 -6.36791,14.2067 -12.72939,18.59036 l -1.87155,1.28967 0.45716,2.64218 c 1.14347,6.60942 3.08089,11.31754 6.30878,15.33114 2.74751,3.41623 11.56245,12.3996 12.32459,12.56007 0.50213,0.1058 4.54008,-1.76547 7.30075,-3.38307 3.04651,-1.78519 9.5756,-6.32552 12.7915,-8.89526 2.81148,-2.24651 6.20939,-5.52785 6.3333,-6.11579 0.0392,-0.18682 0.32311,-0.64764 0.63055,-1.02407 1.18732,-1.45402 2.05776,-4.12879 3.03018,-9.31155 0.51452,-2.74336 0.9613,-5.35076 0.99237,-5.79448 0.0311,-0.44374 0.17652,-1.76387 0.32311,-2.93367 0.36483,-2.91253 0.59585,-5.81132 0.94138,-11.80864 0.27701,-4.80956 1.07207,-9.55982 1.80458,-10.78217 0.9832,-1.64094 1.71556,-1.78504 6.0083,-1.18225 2.64409,0.37127 5.08607,0.90155 8.15264,1.77034 5.3574,1.51779 11.75113,3.50124 13.96011,4.33083 0.90407,0.33949 2.21829,0.80465 2.92047,1.0338 1.8489,0.60327 2.52595,0.90805 3.7773,1.70056 1.50237,0.95152 1.64412,1.42186 0.8722,2.89525 -0.33937,0.64767 -0.84412,1.79068 -1.1217,2.53996 -0.36651,0.98962 -0.76347,1.54067 -1.45087,2.01397 -0.57931,0.39903 -1.16767,1.13409 -1.51727,1.89585 -0.31411,0.68421 -1.50594,5.09956 -2.64841,9.81187 -1.14257,4.71224 -2.36787,9.42259 -2.72287,10.46752 -0.35501,1.04494 -0.61297,1.99 -0.57318,2.10034 0.23641,0.65622 7.14332,6.3101 11.74,9.61031 3.07414,2.20717 10.1472,6.70585 10.73931,6.83046 0.26964,0.0569 0.61507,-1.29814 1.70032,-6.66863 1.01014,-4.99976 1.50231,-6.9701 1.90596,-7.63104 0.52206,-0.85494 0.60565,-0.88489 2.06614,-0.7405 7.53794,0.74517 10.96547,0.26052 17.30328,-2.44645 6.49356,-2.77346 8.06197,-3.36373 10.91777,-4.1093 0.95784,-0.25047 1.10262,-0.40129 1.5272,-1.59309 0.25788,-0.72435 0.56054,-1.53826 0.67244,-1.8089 0.11204,-0.27058 0.37351,-0.94973 0.58125,-1.50914 0.20778,-0.5594 0.42718,-1.07073 0.48754,-1.1362 0.0605,-0.0651 0.29207,-0.63337 0.51501,-1.26181 0.22287,-0.62843 0.59668,-1.50365 0.83062,-1.94497 0.2339,-0.4413 0.43633,-0.86111 0.4498,-0.9331 0.0124,-0.0721 0.16184,-0.4375 0.3297,-0.81241 0.16794,-0.37482 0.39963,-0.90736 0.51496,-1.18321 0.1153,-0.27584 0.66896,-1.36098 1.23027,-2.41121 0.6029,-1.12813 0.94059,-2.01498 0.82521,-2.16685 -0.10731,-0.14158 -2.17077,-1.25396 -4.58515,-2.47214 -2.41438,-1.21819 -6.76887,-3.57372 -9.67663,-5.23447 -2.90775,-1.66074 -6.06935,-3.38556 -7.02574,-3.83276 -2.34201,-1.09533 -8.89389,-2.46455 -12.47816,-2.60764 -3.97224,-0.15867 -4.84386,-0.40062 -5.43831,-1.50989 -0.922,-1.72046 -1.188,-4.94365 -0.92866,-11.25164 0.25882,-6.29504 0.64674,-9.50158 1.85132,-15.30099 1.67766,-8.077893 2.30778,-8.845128 6.76881,-8.243282 13.57696,1.831762 23.59492,-0.227866 34.05174,-7.000896 3.39318,-2.197887 5.17719,-3.981366 5.89245,-5.890937 0.52016,-1.388654 1.5968,-3.384709 2.26193,-4.193433 0.30382,-0.369334 0.5759,-0.779695 0.60464,-0.911946 0.17344,-0.795639 6.49306,-7.728833 7.42489,-8.145361 0.11428,-0.05063 0.65204,-0.49031 1.19536,-0.976272 0.54331,-0.485846 1.65724,-1.356476 2.47545,-1.934642 0.8182,-0.578049 2.06611,-1.481896 2.77321,-2.008376 2.89717,-2.157055 12.78628,-8.426933 15.67017,-9.934898 1.54595,-0.808477 3.88714,-2.081315 4.16261,-2.263142 0.0872,-0.05782 0.70255,-0.355645 1.36752,-0.662454 1.30126,-0.600573 2.13936,-1.021129 2.70396,-1.357182 0.19541,-0.115889 1.26761,-0.646081 2.3828,-1.177537 2.57299,-1.226091 6.16685,-3.023404 7.589,-3.795122 0.6043,-0.327968 1.698,-0.899891 2.43042,-1.270974 0.73246,-0.371094 1.55878,-0.811068 1.83633,-0.977697 0.27752,-0.166665 1.18571,-0.645789 2.01816,-1.064622 0.83251,-0.418736 1.79143,-0.914431 2.13097,-1.101348 3.54244,-1.950356 9.31614,-4.781174 9.86377,-4.835928 0.2974,-0.02928 0.89597,0.195703 1.33087,0.49922 0.77087,0.539631 2.95048,3.249899 3.74631,4.6583 0.59001,1.044179 3.4556,4.713907 4.68399,5.99831 0.58967,0.616647 2.02311,1.681708 3.1855,2.367036 1.16231,0.685225 2.44705,1.498825 2.8549,1.807837 0.40786,0.308999 0.84989,0.584645 0.98234,0.612604 0.46715,0.09832 2.78066,2.212077 3.57455,3.265827 0.7054,0.936358 0.78961,1.273798 0.68655,2.751486 -0.28006,4.015689 -3.62796,7.538997 -9.15212,9.631572 -1.04006,0.393881 -1.9973,0.780382 -2.1273,0.858587 -0.37238,0.224112 0.17784,3.986339 1.13707,7.775013 0.48259,1.906243 1.70284,5.478746 2.71163,7.938951 5.05843,12.336648 6.31856,16.160286 7.39224,22.430246 1.39491,8.14581 1.57516,17.68059 0.48691,25.75725 -0.77723,5.76815 -2.48223,11.29733 -5.9014,19.13716 -0.63767,1.46228 -0.91439,2.35499 -0.75818,2.44635 0.15199,0.0889 -0.65121,2.34699 -2.10295,5.91201 -4.02807,9.89159 -4.30274,10.73395 -5.74211,17.60616 -1.53684,7.33954 -2.11792,11.95865 -3.35835,26.71268 -1.4163,16.84558 -2.16705,23.62142 -3.78238,34.13759 -0.23447,1.52654 -0.53735,3.55039 -0.67303,4.49733 -0.3951,2.75773 -1.09772,7.51569 -1.16265,7.87348 -0.0707,0.38906 0.59878,0.54201 3.30468,0.75496 1.9885,0.15651 4.95135,1.12008 4.85473,1.57894 -0.0225,0.10707 -0.48442,0.82278 -1.02636,1.59023 -0.54194,0.76757 -1.13539,1.60954 -1.31882,1.87114 -0.18336,0.26159 -1.37131,2.03757 -2.63971,3.94672 -1.26848,1.90906 -2.60849,3.89864 -2.97785,4.42118 -0.36936,0.52266 -1.62793,2.40648 -2.79676,4.18656 -1.1688,1.78007 -3.43102,5.11032 -5.02709,7.40071 -1.59611,2.29039 -3.73577,5.58517 -4.75484,7.32172 -1.65986,2.8285 -8.30055,15.51321 -8.42111,16.08568 -0.0265,0.12625 0.40352,0.40736 0.95576,0.62471 1.15441,0.45432 1.17815,0.5755 0.97557,4.98168 -0.24416,5.31026 -0.55854,7.80732 -1.60655,12.76003 -1.18677,5.60766 -1.87168,7.60783 -3.92258,11.45188 -3.11926,5.84645 -7.20772,9.7833 -18.62451,17.93388 -8.81678,6.29441 -11.7916,8.80954 -14.27286,12.06712 -1.85521,2.43579 -2.6116,4.46614 -2.51827,6.76008 0.1855,4.55869 1.31851,7.18428 10.08066,23.36029 1.0679,1.97147 2.51265,4.81441 3.21056,6.31767 7.50767,16.17111 3.36132,24.60716 -15.76662,32.0783 -5.96883,2.3313 -10.97651,3.81509 -24.88443,7.37374 -8.27788,2.11794 -21.80132,-2.96555 -25.16386,-1.80866 -3.02861,1.04203 -5.68679,1.9234 -5.90704,1.95873 -0.27882,0.0446 -0.73217,-0.94389 -1.49187,-3.25277 z m -103.3431,-72.15292 c 0.7194,-0.0611 1.65431,-0.24644 2.07756,-0.41186 l 0.76972,-0.30023 -1.36448,-1.14842 c -3.17558,-2.67277 -5.63898,-5.77027 -7.19979,-9.05318 -2.37003,-4.98473 -4.28598,-14.10212 -5.04005,-23.98361 -0.0873,-1.144 -0.19357,-2.39438 -0.23624,-2.77858 -0.0426,-0.38421 -0.12115,-1.44454 -0.17456,-2.35629 -0.0535,-0.91173 -0.12876,-2.0328 -0.16736,-2.49115 -0.0961,-1.14034 -0.16601,-2.89557 -0.14797,-3.71508 0.008,-0.3735 -10e-4,-1.48072 -0.0216,-2.46056 -0.0201,-0.97985 -0.0106,-2.23646 0.0211,-2.79259 0.0932,-1.63688 0.15211,-2.93036 0.16136,-3.5481 0.0391,-2.60607 1.62415,-11.12326 2.54729,-13.68722 0.70388,-1.95544 2.27196,-4.80818 3.48835,-6.34637 l 1.10046,-1.39168 -0.98313,-1.58535 c -2.21998,-3.57982 -4.18773,-7.91042 -7.91774,-17.42521 -2.87513,-7.33408 -4.81531,-11.52366 -6.87418,-14.84408 l -1.52026,-2.45184 -2.17177,3.58104 c -1.19446,1.96957 -2.80558,4.55273 -3.58006,5.7404 -2.2346,3.42653 -4.82131,8.05163 -5.87114,10.49769 -1.6909,3.93997 -4.78484,20.1767 -5.67976,29.80708 -0.99919,10.75309 -0.36133,19.93222 1.81644,26.13924 1.88878,5.38312 6.63798,13.17447 11.9945,19.67766 4.29637,5.21614 10.89917,11.41688 14.86217,13.95721 3.33891,2.14024 7.65709,3.58009 10.11127,3.37157 z m 34.17067,3.74443 c 4.30987,-1.39076 7.82123,-3.64806 11.6964,-7.51907 2.34327,-2.34064 4.41857,-4.95415 9.9982,-12.5906 2.47103,-3.38179 5.34204,-7.25932 6.38008,-8.61663 1.03805,-1.35731 2.04851,-2.71723 2.24551,-3.02202 0.25514,-0.3947 0.35812,-2.23476 0.35779,-6.39615 -7.2e-4,-9.93268 -0.63397,-15.52317 -2.20614,-19.47495 -0.89526,-2.25049 -0.76049,-3.00877 0.64322,-3.62095 0.96255,-0.41985 6.75539,-1.91166 8.0789,-2.08451 l 0.9214,-0.11855 -1.07361,-1.84458 c -0.59047,-1.01454 -2.23149,-3.84861 -3.64667,-6.2978 -7.51176,-13.00053 -10.8243,-16.97336 -15.09118,-18.09929 -4.23493,-1.11758 -8.48156,0.36441 -18.91285,6.60033 -3.98098,2.37991 -3.92967,2.10066 -0.6562,3.5688 6.25312,2.80436 9.39832,6.28411 12.17911,13.47455 2.83113,7.32057 3.34943,9.53691 3.49053,14.92509 0.0752,2.87036 0.006,3.36422 -1.40889,10.07291 -1.70053,8.075 -2.34622,9.91044 -5.16276,14.74002 -2.80333,4.80696 -10.81255,14.52569 -12.07481,14.65204 -0.47113,0.0486 -4.0635,-1.26345 -5.48332,-2.00073 -0.44899,-0.23318 -0.70884,-0.082 -1.61846,0.94179 l -1.08361,1.21943 0.51585,1.6209 c 1.39614,4.38655 3.8652,8.11919 6.47195,9.78401 1.31522,0.83998 3.01926,0.86684 5.43937,0.0859 z m -13.74741,-30.23389 c 3.27079,-5.54922 5.60709,-11.31494 7.30975,-18.04017 2.01751,-7.96805 1.9215,-14.35601 -0.30139,-20.06327 -0.86201,-2.21312 -2.21538,-4.30973 -2.7429,-4.24922 -0.58798,0.068 -3.08946,3.54249 -3.91501,5.43912 -1.68998,3.88228 -2.32594,8.5707 -2.70933,19.97547 -0.30428,9.05049 -0.0715,19.76908 0.43164,19.87507 0.0959,0.0197 0.96319,-1.30148 1.92724,-2.937 z m 89.73592,-20.32978 c 0.41283,-0.73858 1.03061,-1.68295 1.37288,-2.09864 l 0.62225,-0.75586 3.19733,0.65767 c 7.41184,1.52455 10.57221,1.27141 16.02259,-1.28246 3.38816,-1.58764 9.54293,-5.47946 11.8418,-7.48779 2.14105,-1.87056 5.01806,-5.26771 6.13857,-7.24849 0.41722,-0.73765 0.86987,-1.44048 1.00579,-1.562 0.51506,-0.46012 1.66935,-2.7288 2.34083,-4.60082 0.86717,-2.41759 1.24017,-6.06354 0.71385,-6.97897 -1.00462,-1.74754 -4.23715,-2.97719 -12.34487,-4.69595 -2.74482,-0.58197 -6.42398,-1.47932 -8.1759,-1.99426 -1.75189,-0.51495 -6.38043,-1.79949 -10.28567,-2.85456 -3.90518,-1.05498 -8.0705,-2.24923 -9.25627,-2.65396 l -2.1559,-0.73569 -2.1617,0.50648 c -4.17545,0.97726 -7.49571,0.67779 -8.79883,-0.79366 -0.91897,-1.03757 -1.54592,-2.79098 -1.93033,-5.39859 -1.00687,-6.82963 -0.56471,-16.70666 0.95452,-21.32265 0.97894,-2.97442 1.97847,-3.56821 6.29431,-3.739 1.41379,-0.056 3.34351,-0.27372 4.28819,-0.48488 0.94474,-0.21019 2.5306,-0.45185 3.52414,-0.53705 1.93065,-0.16562 5.4622,-0.37712 5.67679,-0.33993 0.0713,0.0118 0.46576,0.0204 0.8765,0.018 0.41092,-0.002 0.99213,-0.003 1.29186,-8.7e-4 2.16309,0.0142 8.35129,-0.35249 9.94802,-0.58961 0.61976,-0.0918 1.56809,-0.22181 2.10742,-0.28864 0.53938,-0.0668 1.30063,-0.18318 1.69173,-0.25862 0.39116,-0.0753 0.96528,-0.17703 1.27568,-0.2267 5.26176,-0.83348 12.16535,-3.85224 15.58916,-6.81692 0.54627,-0.47307 3.79096,-3.68129 4.46963,-4.41948 0.28581,-0.31083 -2.20038,-3.03718 -7.04178,-7.72191 -7.11364,-6.88351 -8.67891,-7.79744 -15.93409,-9.30352 -2.66046,-0.5515 -8.11432,-1.47688 -12.12002,-2.05462 -9.79438,-1.41271 -12.75325,-2.26529 -14.69599,-4.23448 -1.1141,-1.12924 -1.46682,-2.65376 -1.34745,-5.82344 0.0533,-1.41462 0.0817,-2.59181 0.063,-2.61617 -0.0186,-0.0245 -1.41024,-0.79731 -3.09244,-1.71786 -6.31165,-3.45382 -14.34891,-9.02291 -19.97958,-13.84397 -1.19529,-1.02344 -2.24419,-1.87404 -2.33082,-1.89025 -0.087,-0.0154 -0.85768,1.01879 -1.71338,2.29979 -5.97322,8.94205 -15.18791,15.73366 -27.42475,20.21325 -6.34834,2.32396 -10.97044,3.07358 -16.46568,2.67161 -4.036,-0.29553 -28.75779,-5.00643 -32.98119,-6.28492 -3.42092,-1.03551 -7.2737,-3.1746 -10.31364,-5.72617 -1.1681,-0.98046 -2.23687,-1.80644 -2.37496,-1.83542 -0.13823,-0.0296 -0.79609,0.41563 -1.46215,0.98827 -0.66604,0.57262 -3.43551,2.59207 -6.15444,4.48762 l -4.94344,3.44653 1.15297,2.15046 c 0.63408,1.1827 1.13108,2.25389 1.10444,2.3804 -0.0836,0.39718 -0.84047,1.20073 -2.35909,2.50471 -0.89153,0.76559 -1.41806,1.40445 -1.34153,1.62772 0.0693,0.20208 0.89868,2.0761 1.84298,4.16434 4.72186,10.44216 6.46581,16.07641 6.72314,21.72146 0.0946,2.07507 -0.0317,3.192 -0.7737,6.84353 l -0.88693,4.36373 2.65577,4.19586 c 3.24438,5.12591 4.65329,8.05896 8.67469,18.05927 3.56918,8.87596 4.97735,11.95061 6.88758,15.03865 l 1.35019,2.18274 2.54483,-0.57268 c 4.34145,-0.97711 8.43385,-0.95551 14.66559,0.0778 l 3.94622,0.65418 5.49311,-3.33392 c 8.67008,-5.26198 12.76434,-7.35236 16.86493,-8.61045 8.71451,-2.67369 15.32645,0.34875 21.84598,9.98625 0.84272,1.24573 3.49749,5.62594 5.8995,9.7339 2.402,4.10786 4.83677,8.16468 5.41063,9.01517 l 1.04332,1.54635 1.07605,-0.11781 c 0.59196,-0.0645 2.4788,-0.36409 4.19318,-0.66539 5.89931,-1.03656 12.17492,-1.17632 13.95133,-0.31059 0.94387,0.45991 1.28558,2.17334 1.74321,8.74016 0.20546,2.94894 0.44225,5.46539 0.52621,5.59229 0.21869,0.33039 2.23854,0.88815 5.95758,1.64506 l 3.23537,0.65833 z M 288.12618,236.10576 c 0.52621,-4.78721 -1.12035,-10.78866 -5.80064,-21.14202 -0.91858,-2.03203 -1.72017,-3.70513 -1.78131,-3.71804 -0.0612,-0.0124 -1.00958,0.46279 -2.10779,1.05705 -1.09823,0.59414 -2.09914,1.05882 -2.22446,1.0324 -0.12521,-0.0263 -0.36296,-0.39412 -0.5282,-0.81709 -0.40524,-1.03709 -0.52047,-0.87681 -0.52825,0.73452 -0.0175,3.6361 1.92776,8.42745 5.88418,14.49321 2.21937,3.40268 6.61762,9.55746 6.86738,9.61011 0.0441,0.009 0.14276,-0.55325 0.21894,-1.2501 z m 2.74413,-46.60323 c 2.48868,-1.7494 4.75235,-3.45149 5.03055,-3.78235 0.49448,-0.58837 0.45853,-0.67658 -1.62386,-3.98554 -1.17124,-1.86113 -2.57972,-4.42936 -3.12989,-5.70708 -0.55024,-1.27771 -1.11,-2.25163 -1.24401,-2.16428 -0.13408,0.0871 -0.92258,1.11758 -1.75236,2.2892 -2.12699,3.00358 -3.6446,6.28774 -4.30599,9.31851 -0.57426,2.63363 -0.46317,3.56794 0.80882,6.78009 0.54616,1.37908 0.004,1.61868 6.21674,-2.74855 z M 462.65346,163.3644 c 0.65529,-0.16257 1.31655,-0.26845 1.46917,-0.23625 0.15267,0.0324 0.50349,-0.002 0.77978,-0.0769 0.27529,-0.0779 0.82112,-0.19121 1.2106,-0.26017 4.00955,-0.70403 10.92543,-2.75561 11.05303,-3.27894 0.088,-0.35768 -3.9043,-3.19092 -7.31457,-5.19166 -1.78162,-1.04524 -3.28924,-1.86773 -3.35036,-1.8279 -0.43421,0.28315 -4.91038,9.74408 -5.15125,10.88782 -0.0681,0.32334 -0.071,0.32314 1.30345,-0.0165 z m 21.74648,-32.20769 c 0.64552,-0.28566 1.36809,-0.56812 1.60578,-0.6276 0.23862,-0.0561 0.6989,-0.19778 1.02198,-0.31779 0.32456,-0.1147 1.57802,-0.52896 2.78588,-0.91888 1.20791,-0.38984 2.52745,-0.82619 2.93275,-0.96811 0.40524,-0.14212 3.65508,-0.99775 7.22225,-1.9001 14.3595,-3.63404 19.46013,-5.06244 23.73414,-6.64662 0.32735,-0.12122 0.3732,-0.52969 0.25698,-2.28794 -0.41333,-6.25228 -2.00464,-11.85079 -5.08054,-17.873795 -3.77604,-7.394187 -4.43981,-8.762523 -5.02266,-10.353721 -0.35355,-0.965109 -0.71616,-1.77014 -0.80598,-1.78911 -0.22665,-0.04797 -11.66307,7.954308 -13.63999,9.543782 -4.41167,3.547154 -6.31458,5.872444 -8.67558,10.601244 -0.6471,1.2961 -1.62741,2.98279 -2.17844,3.74812 -2.57902,3.58258 -7.47784,7.42123 -13.63494,10.68394 -1.83111,0.97039 -3.33752,1.80359 -3.34765,1.85153 -0.0102,0.0475 0.72038,0.51526 1.62329,1.03834 2.52303,1.46166 6.16961,3.91878 7.89922,5.32275 0.85817,0.69658 1.68843,1.29949 1.84504,1.33982 0.15639,0.0405 0.81286,-0.16029 1.4584,-0.44585 z"
       id="path18-7"
       sodipodi:nodetypes="ccsccsssscssssssscsssssssssscssssssssscsscsscssssscsssscscsccsccsccscsccccscscccccscsccccccccccsccsccccssccccssscccccsccssssssscsscscssccsssscsccccssscssscsscsssscssssscssssssscscsssssscssscssssscssssscsssssssssscssssscssssccsccscsccccscccccssscsccscsssscssssccsccscssssccscsscssccscsscscscscsssscscsssscsscsscscsscsscssscssssssccscssccsccsccssccscccscccssssccssssccccscscccscccscscccccsssccccscssssccsscssssssssscsscss"
       inkscape:export-filename="insulin.svg"
       inkscape:export-xdpi="96"
       inkscape:export-ydpi="96" />
    <g
       id="g39"
       transform="translate(180.59944,-1271.714)">
      <path
         id="path27531-5-6"
         style="fill:#ffe70f;fill-opacity:1;stroke:none;stroke-width:5.81123;stroke-linecap:round;paint-order:markers fill stroke;stop-color:#000000"
         d="m 49.400552,1773.6293 v 173.896 a 18.665108,18.665108 0 0 1 0.80898,-0.081 18.665108,18.665108 0 0 1 14.373127,5.8202 18.665108,18.665108 0 0 1 -0.732109,26.3871 18.665108,18.665108 0 0 1 -14.449998,4.9911 v 81.9943 c 18.919788,-5.9543 39.676478,-13.3016 61.288488,-22.1298 0.74527,-0.6936 1.3158,-1.3481 1.54475,-1.8943 0.63953,-1.5256 0.19948,-2.7399 -0.11164,-4.4531 -3.70853,-3.301 -5.94783,-7.9444 -6.22476,-12.9016 -0.53813,-10.2942 7.37145,-19.075 17.66579,-19.6132 9.57635,-0.4795 17.95687,6.3748 19.38807,15.8557 0.80828,1.7017 0.71532,2.7383 3.00897,4.065 1.59541,0.9229 4.20093,0.7465 6.76468,0.205 6.74866,-3.2667 13.51217,-6.6267 20.28308,-10.1909 35.39086,-18.6299 66.65242,-56.5131 64.44021,-95.306 -1.66581,-29.2123 -33.34439,-78.6114 -92.43605,-89.4344 -43.59186,-7.984 -74.56502,-35.1359 -95.611588,-57.2106 z m 125.864148,89.0445 a 18.665107,18.665107 0 0 1 18.66512,18.6652 18.665107,18.665107 0 0 1 -18.66512,18.6651 18.665107,18.665107 0 0 1 -18.66512,-18.6651 18.665107,18.665107 0 0 1 18.66512,-18.6652 z m -35.974,66.8654 a 18.665107,18.665107 0 0 1 18.66512,18.6651 18.665107,18.665107 0 0 1 -18.66512,18.6651 18.665107,18.665107 0 0 1 -18.66511,-18.6651 18.665107,18.665107 0 0 1 18.66511,-18.6651 z" />
      <path
         id="path27646-3"
         style="fill:#ffe70f;fill-opacity:1;stroke:none;stroke-width:5.81123;stroke-linecap:round;paint-order:markers fill stroke;stop-color:#000000"
         d="m 288.12115,1952.831 c -1.1945,0.017 -2.42992,0.1483 -3.70764,0.4147 -18.52011,5.9662 -29.53389,45.4829 -50.66935,65.8115 -32.87998,24.4158 -102.79116,62.9866 -168.502,86.6476 -8.002596,2.8815 -9.839793,6.3648 -15.841608,8.8209 v 78.1883 H 351.64205 c 0,0 -18.26374,-21.4616 -27.59502,-38.1282 -9.13965,-16.3245 -15.6215,-116.4081 -10.82476,-157.5608 0.12583,-0.9463 0.25196,-1.8919 0.40596,-2.7968 1.43604,-8.3094 0.39643,-26.2849 -5.08424,-31.2839 -5.65291,-4.7091 -12.06114,-10.2335 -20.42284,-10.1133 z"
         sodipodi:nodetypes="sccscccscccs" />
      <path
         style="font-variation-settings:normal;fill:#55b323;fill-opacity:1;stroke:none;stroke-width:0.578494;stroke-linecap:round;stroke-linejoin:miter;stroke-miterlimit:4;stroke-dasharray:none;stroke-dashoffset:0;stroke-opacity:1;paint-order:markers fill stroke;stop-color:#000000"
         d="m 106.31482,1806.4756 c 0,0 -7.05772,-7.2257 -11.46807,0.097 -4.41035,7.3225 -20.36956,26.5359 -15.03266,30.7106 5.33687,4.1746 10.22822,6.8383 11.26461,5.7115 1.0364,-1.1268 10.91936,-22.3808 14.88736,-26.5618 3.968,-4.181 0.34876,-9.9571 0.34876,-9.9571 z"
         id="path62270-3" />
      <path
         style="font-variation-settings:normal;fill:#55b323;fill-opacity:1;stroke:none;stroke-width:0.578494;stroke-linecap:round;stroke-linejoin:miter;stroke-miterlimit:4;stroke-dasharray:none;stroke-dashoffset:0;stroke-opacity:1;paint-order:markers fill stroke;stop-color:#000000"
         d="m 119.76558,1815.6434 c 0,0 9.89894,2.0082 6.14077,9.6859 -3.75817,7.6776 -11.23905,31.508 -17.64139,29.2899 -6.40234,-2.2181 -11.29368,-4.8817 -10.90947,-6.3637 0.38422,-1.4819 12.8759,-21.3153 14.23518,-26.9169 1.35929,-5.6016 8.17491,-5.6952 8.17491,-5.6952 z"
         id="path62272-2" />
      <path
         id="path141942-3"
         style="font-variation-settings:normal;fill:#55b323;fill-opacity:1;stroke:none;stroke-width:0.578495;stroke-linecap:round;stroke-linejoin:miter;stroke-miterlimit:4;stroke-dasharray:none;stroke-dashoffset:0;stroke-opacity:1;paint-order:markers fill stroke;stop-color:#000000"
         d="m 235.57133,2001.6399 c 0,0 -0.38621,0.1797 -0.27628,0.2917 -0.50544,0.3851 -2.70044,3.037 -2.81669,3.5454 -0.0189,-0.063 -0.11937,-0.046 -0.13469,0.014 -1.15611,2.1922 -1.4017,4.9282 1.96931,7.5476 6.74999,5.245 23.94273,23.364 28.71892,18.5579 4.7762,-4.8061 7.99877,-9.3492 7.00241,-10.5116 -0.99645,-1.1623 -20.93287,-13.487 -24.61559,-17.9215 -3.68269,-4.4342 -9.84764,-1.5236 -9.84764,-1.5236 z"
         sodipodi:nodetypes="ccccsssscc" />
      <path
         style="font-variation-settings:normal;fill:#55b323;fill-opacity:1;stroke:none;stroke-width:0.578495;stroke-linecap:round;stroke-linejoin:miter;stroke-miterlimit:4;stroke-dasharray:none;stroke-dashoffset:0;stroke-opacity:1;paint-order:markers fill stroke;stop-color:#000000"
         d="m 246.26538,1989.3673 c 0,0 3.16419,-9.5921 10.34385,-4.9529 7.17959,4.6393 29.95876,14.8843 26.99948,20.9796 -2.9593,6.0953 -6.18237,10.6376 -7.60854,10.0809 -1.42609,-0.5567 -19.64399,-15.305 -25.0457,-17.3167 -5.40175,-2.012 -4.68917,-8.7909 -4.68917,-8.7909 z"
         id="path141944-6" />
      <path
         style="font-variation-settings:normal;fill:#55b323;fill-opacity:1;stroke:none;stroke-width:0.578495;stroke-linecap:round;stroke-linejoin:miter;stroke-miterlimit:4;stroke-dasharray:none;stroke-dashoffset:0;stroke-opacity:1;paint-order:markers fill stroke;stop-color:#000000"
         d="m 93.40806,2083.8323 c 0,0 8.06553,-6.0802 11.32266,1.823 3.25713,7.9033 16.14037,29.3013 10.23559,32.6244 -5.90477,3.3232 -11.14151,5.2197 -11.99636,3.9497 -0.85487,-1.27 -7.42383,-23.7701 -10.71685,-28.501 -3.29297,-4.7311 1.15494,-9.8961 1.15494,-9.8961 z"
         id="path20-9" />
      <path
         style="font-variation-settings:normal;fill:#55b323;fill-opacity:1;stroke:none;stroke-width:0.578495;stroke-linecap:round;stroke-linejoin:miter;stroke-miterlimit:4;stroke-dasharray:none;stroke-dashoffset:0;stroke-opacity:1;paint-order:markers fill stroke;stop-color:#000000"
         d="m 79.76514,2087.7301 c 0,0 -10.10005,0.1047 -7.8578,8.3535 2.24225,8.2488 5.09302,33.0626 11.79882,32.0921 6.70585,-0.9704 12.01189,-2.6634 11.91415,-4.1912 -0.0977,-1.5278 -8.62344,-23.3617 -8.90144,-29.1191 -0.27817,-5.7576 -6.95373,-7.1353 -6.95373,-7.1353 z"
         id="path21-3" />
      <circle
         style="fill:#b8de29;fill-opacity:1;stroke:none;stroke-width:5.43907;stroke-linecap:round;stroke-dasharray:none;paint-order:markers fill stroke"
         id="circle22-8"
         cx="132.90771"
         cy="1943.5529"
         r="5.6907339" />
      <circle
         style="fill:#b8de29;fill-opacity:1;stroke:none;stroke-width:5.43907;stroke-linecap:round;stroke-dasharray:none;paint-order:markers fill stroke"
         id="circle28-1"
         cx="141.23642"
         cy="1944.3385"
         r="5.6907339" />
      <circle
         style="fill:#b8de29;fill-opacity:1;stroke:none;stroke-width:5.43907;stroke-linecap:round;stroke-dasharray:none;paint-order:markers fill stroke"
         id="circle29-7"
         cx="168.5797"
         cy="1876.1375"
         r="5.6907339" />
      <circle
         style="fill:#b8de29;fill-opacity:1;stroke:none;stroke-width:5.43907;stroke-linecap:round;stroke-dasharray:none;paint-order:markers fill stroke"
         id="circle30-7"
         cx="180.83702"
         cy="1881.4805"
         r="5.6907339" />
      <circle
         style="fill:#b8de29;fill-opacity:1;stroke:none;stroke-width:5.43907;stroke-linecap:round;stroke-dasharray:none;paint-order:markers fill stroke"
         id="circle31-3"
         cx="59.520882"
         cy="1967.5961"
         r="5.6907339" />
      <circle
         style="fill:#b8de29;fill-opacity:1;stroke:none;stroke-width:5.43907;stroke-linecap:round;stroke-dasharray:none;paint-order:markers fill stroke"
         id="circle24-9"
         cx="140.29355"
         cy="1956.4387"
         r="5.6907339" />
      <circle
         style="fill:#b8de29;fill-opacity:1;stroke:none;stroke-width:5.43907;stroke-linecap:round;stroke-dasharray:none;paint-order:markers fill stroke"
         id="circle25-4"
         cx="121.12183"
         cy="2023.8541"
         r="5.6907339" />
      <circle
         style="fill:#b8de29;fill-opacity:1;stroke:none;stroke-width:5.43907;stroke-linecap:round;stroke-dasharray:none;paint-order:markers fill stroke"
         id="circle26-6"
         cx="142.96503"
         cy="2040.0399"
         r="5.6907339" />
      <circle
         style="fill:#b8de29;fill-opacity:1;stroke:none;stroke-width:5.43907;stroke-linecap:round;stroke-dasharray:none;paint-order:markers fill stroke"
         id="circle27-1"
         cx="125.99334"
         cy="2060.3118"
         r="5.6907339" />
      <circle
         style="fill:#b8de29;fill-opacity:1;stroke:none;stroke-width:5.43907;stroke-linecap:round;stroke-dasharray:none;paint-order:markers fill stroke"
         id="path22-6"
         cx="200.16591"
         cy="2019.6112"
         r="5.6907339" />
    </g>
    <path
       style="fill:#55b323;fill-opacity:1;stroke:none;stroke-width:1.65651;stroke-linecap:round;stroke-dasharray:1.65651, 4.96953;paint-order:markers fill stroke"
       d="m 1372.63,141.92492 c 3.1929,-0.9306 -46.24,-95.9619 -46.24,-95.9619 h -38.555 c 0,0 81.602,96.89258 84.795,95.9619 z"
       id="path16-4"
       sodipodi:nodetypes="zccz" />
    <path
       id="path132993-8"
       style="display:inline;fill:#b8de29;fill-opacity:1;stroke:none;stroke-width:3.38131;stroke-linecap:butt;stroke-linejoin:miter;stroke-miterlimit:4;stroke-dasharray:none;stroke-dashoffset:0;stroke-opacity:1;paint-order:markers fill stroke;stop-color:#000000"
       d="m 1427.9124,45.96302 c 0.4181,1.745085 0.4984,3.458876 0.3116,4.940179 -0.2345,1.863875 -0.7425,3.294811 -0.895,4.204574 0.011,0.01204 -3e-4,0.02315 0,0.03703 -0.1452,0.620057 -0.2959,1.268167 -0.4396,1.864337 -1.5581,6.557494 -3.3736,12.390122 -4.2842,16.080835 -1.5445,4.868054 -3.1591,10.364868 -4.0869,14.419172 -4.3107,30.544733 -20.3158,71.865593 -57.7561,68.467453 -12.5663,0.63931 -44.966,-17.7249 -66.6362,-26.53431 -3.7197,-4.59585 -6.481,-10.20098 -7.7998,-16.31285 -1.7403,-8.06454 -0.5923,-14.707772 -0.054,-18.743188 0.3617,-2.711233 0.2927,-4.734543 0.4396,-5.693099 -0.5786,0.697182 -2.2312,2.166728 -3.4272,4.824168 -1.76,3.909497 -3.4707,11.549059 -1.7119,20.588449 0.7911,4.06718 2.1934,7.91889 4.0522,11.46952 -8.9208,-5.78985 -16.8661,-13.10813 -26.3543,-19.69007 -1.6754,-1.00614 -3.2298,-1.89915 -4.6494,-2.94955 -1.2719,-0.94041 -2.2446,-1.87221 -2.9566,-2.86132 -0.1657,-0.229986 -0.3244,-0.472286 -0.476,-0.725327 -0.7464,-1.242614 -1.2535,-2.694568 -1.5701,-4.401877 -0.3049,-1.646757 -0.4011,-3.373973 -0.4569,-5.076931 -0.1109,-3.984586 0.06,-7.50605 -0.077,-9.364647 -0.098,-1.340386 -0.4989,-2.282091 -0.5886,-2.743639 -0.2253,0.402755 -0.9122,1.198913 -1.338,2.504671 -0.6076,1.862764 -1.1261,5.405338 -1.1978,9.620929 -0.036,1.769343 0.019,3.714972 0.3374,5.637824 0.3345,2.016273 0.9382,3.887833 1.9111,5.575517 0.1972,0.34183 0.4036,0.66468 0.6144,0.97096 0.9138,1.32687 2.0208,2.55365 3.4032,3.78747 1.496,1.33529 3.1331,2.51745 4.6719,3.62646 3.5983,2.45245 6.9862,4.91379 10.0745,7.19394 -0.3941,0.0157 -0.7848,0.0482 -1.1738,0.088 -5.7187,-1.46158 -11.5177,-2.12238 -17.1419,-2.00452 -0.4473,0.009 -0.8984,0.0222 -1.3571,0.0417 -5.1928,0.19527 -9.7343,0.99097 -15.4179,1.63408 -15.8479,1.57398 -27.8053,-0.78514 -33.5448,-1.56658 -2.3402,-0.31859 -3.681,-0.23156 -4.4192,-0.29776 h -0.01 c 0.6014,0.30683 1.8165,1.15993 4.0212,1.93868 5.2386,1.85055 18.1542,4.79731 34.2631,3.4897 5.3138,-0.36053 10.9313,-1.20492 15.269,-1.44018 0.432,-0.0222 0.8592,-0.038 1.281,-0.05 3.2674,-0.0955 6.605,0.0481 9.9652,0.45016 -0.045,0.025 -0.096,0.0472 -0.1385,0.0778 -1.2677,0.7206 -2.3962,1.58314 -3.4464,2.45282 -1.1368,0.9417 -2.1966,1.89748 -3.2698,2.74873 -4.0723,3.09825 -8.8981,5.03249 -13.9518,6.2264 -2.314,0.54664 -4.6798,0.93958 -7.0451,1.21521 -2.9397,0.34229 -6.0243,0.52913 -9.2711,0.58154 -3.792,0.27193 -6.7248,0.42118 -8.6117,0.44145 1.8044,0.27573 5.0025,0.80487 8.8246,1.09226 3.3067,0.0722 6.4818,-0.013 9.5135,-0.28221 2.442,-0.21656 4.9026,-0.55737 7.3238,-1.06975 5.282,-1.11725 10.4439,-3.05353 14.8519,-6.30603 1.2011,-0.85208 2.3181,-1.78851 3.4378,-2.68114 1.0407,-0.83014 2.0671,-1.60685 3.1763,-2.25385 0.069,-0.0389 0.1342,-0.0833 0.206,-0.1212 0.9727,-0.54191 2.1012,-1.00198 3.3651,-1.33279 4.2591,0.83671 8.5159,2.10432 12.6864,3.8445 1.2323,0.87171 3.5567,1.4851 4.7982,2.70206 22.8541,18.04471 44.4563,38.72167 52.2085,67.91018 6.7847,30.54269 -9.7659,53.70395 -38.068,60.24876 -8.6129,1.99674 -20.3963,6.91006 -31.5576,3.51044 -2.8726,-0.77301 -5.6252,-1.86535 -8.7692,-3.17805 -3.02,-1.26086 -6.0224,-2.55902 -9.1795,-3.57452 -2.2869,-0.70848 -4.4374,-1.20419 -6.4756,-1.55093 -2.3515,-0.39998 -4.8772,-0.61256 -7.4952,-0.4709 -5.1014,0.27619 -9.8053,1.89063 -13.4254,4.61659 -1.3299,1.05179 -2.3147,2.142 -2.948,3.05871 -0.9997,1.44696 -1.2984,2.87373 -1.4921,3.47925 0.4654,-0.40637 1.688,-1.18031 2.934,-2.11701 0.822,-0.61784 1.8211,-1.39168 3.0916,-2.1759 3.2894,-2.15635 7.4293,-3.46304 11.9784,-3.59701 2.3351,-0.0685 4.6033,0.16953 6.7335,0.59376 1.8389,0.36618 3.7939,0.95217 5.8404,1.75879 2.902,1.10438 5.638,2.48236 8.6636,3.93616 3.0678,1.47408 6.0616,2.83382 9.2556,3.77534 0.031,0.009 0.063,0.0167 0.095,0.0268 -0.1521,0.35618 -0.3057,0.77866 -0.5279,1.2428 -0.3348,0.69903 -0.8316,1.48158 -1.6064,2.13608 -0.6973,0.59321 -1.5994,1.04716 -2.6726,1.38307 -1.1387,0.35581 -2.408,0.55562 -3.4724,0.66987 0,9e-5 -0.1245,0.0102 -0.1245,0.0102 -1.1552,0.10537 -1.8361,0.22258 -3.0674,0.40507 -0.5334,0.22656 -3.371,-2.60105 -4.9488,-3.79089 -2.259,-1.36205 -4.1676,-2.31598 -6.2559,-3.04473 -0.2355,-0.0824 -0.4788,-0.15962 -0.727,-0.23369 -1.221,-0.36535 -2.5637,-0.60349 -3.9414,-0.59543 -1.3851,0.009 -2.7119,0.26406 -3.9155,0.7806 -0.9746,0.47377 -1.6814,1.06309 -2.0842,1.53547 -0.4273,0.50117 -0.5835,1.02077 -0.6768,1.23243 0.207,-0.0975 0.7158,-0.23971 1.2515,-0.46396 0.5343,-0.2235 1.2109,-0.53173 2.0929,-0.75116 1.0186,-0.31637 2.1192,-0.42525 3.2698,-0.33924 1.1484,0.0861 2.2668,0.36174 3.2853,0.74598 0.209,0.0787 0.4139,0.16054 0.6128,0.24582 1.724,0.73931 3.3578,1.94359 5.2709,3.48961 0.8627,0.72839 1.6854,1.43714 2.4095,2.00109 -0.8828,0.25212 -1.7609,0.55404 -2.6225,0.93291 -1.7093,0.74162 -3.2767,1.73203 -4.5576,2.9964 -1.5336,1.5138 -2.4501,3.22843 -2.8129,4.80528 -0.067,0.31054 -0.1053,0.60469 -0.1246,0.8793 -0.1103,1.67833 0.6861,3.00363 0.9469,3.52258 0.125,-0.7357 0.5963,-1.71527 1.1719,-3.0552 0.086,-0.20026 0.1784,-0.41349 0.2786,-0.63533 0.4815,-1.12975 1.2164,-2.4057 2.4285,-3.60739 1.0155,-1.00651 2.2714,-1.8673 3.7252,-2.53587 1.4132,-0.64006 2.9207,-1.06448 4.4797,-1.36048 1.5612,-0.29646 3.1642,-0.45979 4.7239,-0.57478 -2e-4,4.6e-4 0.1217,-0.009 0.1213,-0.009 1.0626,-0.0583 2.3757,-0.013 3.853,-0.15064 1.3362,-0.12462 2.8183,-0.42145 4.2029,-1.15456 1.5813,-0.84291 2.7638,-2.10219 3.4672,-3.43777 0.4444,-0.84402 0.6613,-1.64564 0.7322,-2.3282 3.8264,0.0961 11.9133,-0.91068 15.5668,-1.04716 16.8707,0.0639 50.497,-1.41788 61.0208,7.19227 21.5623,17.64168 13.605,59.96017 2.0789,81.08461 -47.9967,113.74226 -81.5209,189.6641 -141.3473,281.26838 -0.7492,0.77486 -1.5188,1.52722 -2.2468,2.12219 -1.8248,1.36853 -6.4663,3.16278 -9.337,3.30444 -2.5944,0.10129 -5.2711,-0.12194 -8.0473,-0.64043 -2.9721,-0.55506 -5.9231,-1.41529 -8.7709,-2.41643 -5.0336,-1.77073 -10.7733,-4.39512 -14.3084,-6.0516 -1.2129,-0.5683 -2.4125,-1.11697 -3.6143,-1.64787 -6.4939,-3.0289 -13.0195,-5.34062 -19.4927,-6.63147 -7.3065,-1.45686 -14.1765,-1.53723 -20.5624,-0.20767 -0.3122,0.0648 -0.6134,0.1461 -0.9209,0.21813 -1.8517,-0.012 -4.6382,0.1637 -7.3065,-0.41201 -1.76,-0.37961 -3.3082,-0.98096 -4.6355,-1.66518 -1.6425,-0.84662 -3.2435,-1.77721 -4.6893,-2.9565 -1.3494,-1.08577 -2.4841,-2.32551 -3.2646,-3.64553 -1.3369,-2.26061 -1.7527,-4.49206 -1.956,-5.79698 0.01,1.39223 0.264,3.51285 1.1147,6.17094 0.4852,1.51575 1.0873,3.23685 2.091,4.95925 1.0913,1.84712 2.5875,3.59128 4.5214,4.89694 1.192,0.80486 2.6247,1.56528 4.2599,2.13775 -1.1957,0.63219 -2.3324,1.30076 -3.3927,1.99766 -1.2005,0.78903 -2.3514,1.64009 -3.4464,2.54273 -6.8233,5.62458 -9.9764,11.9157 -11.4436,15.22579 2.0306,-3.15889 6.203,-8.35221 13.2369,-12.75214 1.1219,-0.70181 2.2718,-1.35427 3.4481,-1.96127 3.788,-1.95443 8.2531,-3.58202 13.2127,-4.29281 5.74,-0.8332 11.8948,-0.47414 18.4956,1.14243 5.8625,1.43575 11.8371,3.80413 17.843,6.91183 1.0946,0.59644 2.1967,1.21882 3.3218,1.86952 3.6252,2.09655 8.1187,5.21183 13.5952,8.35193 2.8632,1.6412 6.0688,3.29212 9.5308,4.63214 3.366,1.30298 6.9974,2.32348 10.8499,2.78178 0.2243,0.0269 0.4442,0.0296 0.6681,0.0519 -1.6903,1.46242 -3.3815,2.96187 -4.9973,4.49715 -2.1608,2.05257 -4.3797,4.3342 -6.4913,6.78026 -0.5666,0.23665 -1.1309,0.47006 -1.7015,0.70283 -1.1507,0.46932 -2.1926,0.88097 -3.5641,1.41594 -1.6611,0.64774 -4.1009,1.58102 -6.126,2.44069 -1.2023,0.51034 -2.4639,1.08697 -3.7303,1.72925 -0.022,-0.0787 -0.045,-0.16295 -0.071,-0.23017 -0.4196,-0.33017 -0.8221,-0.65376 -1.2152,-0.96939 -1.3237,-1.06309 -2.6807,-2.18404 -4.0557,-3.36166 -1.7774,-1.52195 -3.4776,-3.04575 -5.3712,-4.8087 -1.7303,-1.61084 -3.5237,-3.33416 -5.4267,-5.11665 0,0 -0.014,-0.009 -0.014,-0.009 -1.6329,-1.52917 -3.603,-3.28463 -5.8559,-4.84676 -5.4985,-3.8508 -11.8734,-5.91272 -18.0317,-6.17965 -3.9413,-0.17082 -7.3155,0.41007 -9.7663,1.11476 -4.0969,1.17771 -6.91,3.0751 -8.2256,3.95014 1.5146,-0.66274 4.5419,-1.72157 8.5788,-2.41301 2.4062,-0.41211 5.5937,-0.76486 9.2711,-0.44312 3.0765,0.26915 6.1832,0.99475 9.1622,2.17932 -0.7372,0.83467 -1.3761,1.71592 -1.937,2.61031 -0.8426,1.34353 -1.5346,2.73845 -2.1672,4.07995 -0.7056,1.49649 -1.3354,2.92159 -2.0651,4.28772 -0.5719,1.07077 -1.1836,2.15358 -1.8816,3.18148 -2.009,2.84419 -4.6603,5.03286 -7.4709,6.51555 -0.8447,0.44553 -1.6704,0.80986 -2.4494,1.10253 -3.2084,1.20539 -5.9617,1.40038 -7.6059,1.40214 1.5943,0.27471 4.4253,0.57664 7.9695,-0.0987 0.8659,-0.16499 1.803,-0.38895 2.7886,-0.69764 3.2486,-1.01689 6.7129,-2.8528 9.6225,-5.79698 1.0486,-1.02642 1.9688,-2.12349 2.7765,-3.18852 0.9963,-1.31363 2.0057,-2.72114 2.9237,-3.97431 0.8688,-1.18595 1.681,-2.26885 2.5238,-3.30972 0.8273,-1.02179 1.6424,-1.95118 2.4857,-2.81456 0.014,-0.0315 0.021,-0.0685 0.019,-0.11425 8e-4,-0.0843 -0.035,-0.22638 -0.086,-0.38776 0.6392,0.41257 1.2658,0.84847 1.8781,1.31206 2.0021,1.53241 3.7438,3.26453 5.1878,4.8537 l 0.014,0.0102 c 1.6571,1.82462 3.1552,3.81071 4.5854,5.68625 1.5504,2.03275 3.0992,4.02505 4.8572,5.84041 1.2761,1.3177 2.666,2.52643 4.2011,3.55368 -1.2802,0.91865 -2.511,1.93572 -3.6351,3.10538 -1.5109,1.59981 -2.7088,3.33147 -3.6922,5.00434 -0.7782,1.32372 -1.4461,2.6492 -2.0218,3.86182 -0.2164,0.4558 -0.4271,0.91707 -0.6353,1.38306 h 5.7417 c 0.4776,-0.7319 0.9419,-1.46908 1.4922,-2.17931 1.0162,-1.31197 2.1377,-2.52375 3.4013,-3.55897 1.4384,-1.20696 3.087,-2.20635 4.897,-3.10186 1.8412,-0.91105 3.801,-1.69027 5.7659,-2.45282 0.3745,-0.14545 0.7296,-0.28804 1.0975,-0.43108 -1.6,3.03547 -2.8925,6.34158 -3.9882,10.08127 -0.1575,0.53765 -0.2465,1.10271 -0.3929,1.64277 h 5.3972 c 1.3082,-3.5584 2.7264,-6.51814 4.3725,-9.09466 0.2278,-0.356 0.4576,-0.69857 0.6889,-1.03336 1.6322,-2.36292 3.5637,-4.47595 5.6153,-6.39954 2.4696,-2.31515 5.1683,-4.40883 7.805,-6.37862 3.6718,-2.74345 7.2408,-5.28747 10.5158,-8.17546 -0.1441,1.35965 -0.2403,2.74087 -0.2268,4.15439 -0.018,4.88398 0.9239,9.55936 2.3974,13.9293 1.3812,4.09597 3.2361,7.91556 5.1964,11.39332 -0.5514,0.43109 -1.118,1.05106 -1.6807,1.60463 h 14.4554 c -0.9851,-1.90859 -2.0193,-3.76413 -2.8925,-5.71744 -1.5465,-3.46212 -2.8413,-7.01988 -3.6558,-10.58162 -0.6715,-2.93613 -0.8949,-5.73439 -0.817,-8.45405 0.5437,-2.10414 0.8999,-4.14411 2.5688,-6.6436 2.0284,-3.03788 4.0555,-6.07919 6.0843,-9.12059 58.9901,-100.60551 96.4295,-167.53213 149.7791,-305.18358 1.0151,-2.27061 2.1528,-4.58881 3.2682,-6.36148 0.8973,-1.42668 2.4285,-3.2551 4.1543,-5.14619 0.6573,-0.69653 1.2582,-1.38557 1.9491,-2.08414 1.1048,-1.14993 2.1972,-2.23839 3.2456,-3.26981 23.9667,-22.59287 61.6318,-36.54401 94.7301,-31.33441 3.9909,0.62821 7.843,1.71435 11.5734,2.98594 v -15.69826 c -3.3947,-3.28555 -6.8083,-6.63027 -10.1955,-10.31496 -13.3028,-14.47102 -5.1251,-42.56617 10.1955,-69.34861 v -38.08876 c -16.9595,6.34797 -33.5649,10.21636 -42.5737,5.58588 -33.5575,-17.24919 -35.7177,-50.77902 -27.9987,-82.16315 0.7664,-2.524114 1.4784,-7.111443 2.4822,-9.716016 2.57,-7.232362 5.2215,-16.441741 6.3388,-24.806816 0.207,-0.941334 0.4469,-1.779712 0.6751,-2.650125 z" />
    <path
       style="fill:#55b323;fill-opacity:1;stroke:none;stroke-width:1.65651;stroke-linecap:round;stroke-dasharray:1.65651, 4.96953;paint-order:markers fill stroke"
       d="m 1410.5784,256.3763 c -3.1585,1.90906 83.3231,186.00765 83.3231,186.00765 v -73.35856 c 0,0 -80.1646,-114.55805 -83.3231,-112.64909 z"
       id="path33-9"
       sodipodi:nodetypes="zccz" />
    <path
       id="path253-2"
       style="fill:#6600cc;fill-opacity:1;stroke:none;stroke-width:1.12344px"
       inkscape:transform-center-x="8.8689048"
       inkscape:transform-center-y="-12.855812"
       d="m 1459.5461,733.23353 c -0.5829,0.0222 -1.5575,0.23128 -3.1332,0.94356 -0.1641,0.0741 -0.3328,0.15249 -0.5047,0.23693 -1.7915,0.88022 -4.6839,2.63883 -7.7303,5.87392 -2.7473,2.91742 -5.8532,7.28717 -8.1909,13.67431 -2.1326,5.82661 -3.6532,13.40839 -3.6161,23.20588 0.011,2.64448 0.1576,5.08684 0.4322,7.35504 0.2138,1.76361 0.5057,3.46869 0.8844,5.12119 0.7864,3.43055 1.9152,6.49713 3.3944,9.38252 1.362,2.65642 2.9304,4.9861 4.6299,7.25403 1.5919,2.12423 3.2452,4.12624 4.8119,6.18325 1.5158,1.99063 2.9439,4.02523 4.2128,6.32806 1.2407,2.25191 2.3498,4.7976 3.2298,7.8552 0.8801,3.05742 1.5438,6.66684 1.8673,11.06983 0.3275,4.45585 0.304,9.68713 -0.1865,15.9102 -0.3408,3.80302 -0.9807,7.4267 -1.7684,10.86132 -17.7772,-37.29851 -90.9138,-94.10645 -160.8244,-71.89319 -16.8918,5.36682 -27.7683,3.39212 -35.16,-1.02253 4.607,-3.80969 8.0089,-10.31904 8.0089,-19.24103 0,-14.99312 -8.6153,-18.37644 -17.4046,-18.37644 -5.9739,0 -5.7702,4.04051 -5.0356,11.28472 -5.0395,-10.43551 -13.2819,-10.57689 -20.7879,-8.06574 -7.636,2.55467 -2.3719,8.39804 2.2226,20.28976 l -15.5436,6.56944 c 0.4836,0.35461 -11.5735,3.64118 -22.7517,7.91454 -0.042,-0.0528 -0.083,-0.10443 -0.1251,-0.15786 -0.8099,-1.04559 -1.4433,-2.00118 -1.9968,-2.93159 -0.2538,-0.42636 -0.505,-0.87208 -0.7438,-1.34066 -0.7735,-1.51797 -1.2976,-3.03177 -1.5491,-4.62103 -0.1367,-0.86403 -0.1772,-1.65213 -0.1646,-2.32792 0.025,-1.319 0.2078,-2.40468 0.3358,-3.01715 -0.178,0.58451 -0.4894,1.66889 -0.6188,2.98854 -0.067,0.68125 -0.1033,1.4838 -0.044,2.38069 0.109,1.64259 0.5215,3.28861 1.2858,4.90185 0.2363,0.4984 0.4945,0.97152 0.768,1.41307 0.5878,0.94994 1.3482,1.92544 2.2644,2.9052 0.011,0.0111 0.019,0.0194 0.028,0.0287 -1.2167,0.47035 -2.4335,0.93486 -3.605,1.42631 -0.3764,-1.14318 -0.8806,-2.50699 -1.5513,-3.88385 -0.6652,-1.36557 -1.4112,-2.5743 -2.2227,-3.5985 -0.3773,-0.47617 -0.7984,-0.95198 -1.2639,-1.41742 -1.5075,-1.50639 -3.2506,-2.6791 -5.1565,-3.54581 -1.0404,-0.47321 -2.0218,-0.80764 -2.8744,-1.0555 -1.6514,-0.48015 -3.1205,-0.6669 -3.9189,-0.75912 0.8041,0.15499 2.2039,0.4734 3.7961,1.05753 0.8162,0.29961 1.7361,0.70043 2.6945,1.2353 1.7632,0.9843 3.2851,2.20821 4.6737,3.67979 0.4286,0.45442 0.8238,0.90847 1.1936,1.35816 0.807,0.98134 1.5999,2.05637 2.4026,3.3462 0.8064,1.29576 1.4761,2.58633 1.9924,3.67757 -1.6574,0.69922 -3.2678,1.40353 -4.7439,2.13265 -0.2562,-0.83764 -0.586,-1.79897 -1.0072,-2.76456 -0.4741,-1.08707 -1.0057,-2.05035 -1.5841,-2.86567 -0.269,-0.37905 -0.5701,-0.75736 -0.9019,-1.12781 -1.0745,-1.19928 -2.3169,-2.13182 -3.6752,-2.82178 -0.7416,-0.37664 -1.4397,-0.6432 -2.0473,-0.84041 -1.177,-0.3822 -2.2242,-0.53219 -2.7933,-0.60562 0.5732,0.12342 1.5707,0.37739 2.7056,0.84255 0.5817,0.2385 1.2368,0.5571 1.9198,0.983 1.2568,0.78347 2.3412,1.75777 3.3309,2.92927 0.3055,0.36183 0.5878,0.72385 0.8514,1.08179 0.5752,0.78116 1.1393,1.63704 1.7114,2.66383 0.5097,0.91476 0.9436,1.82712 1.2924,2.62865 -1.003,0.49988 -1.961,1.00364 -2.8371,1.51176 -0.3375,-0.81088 -0.7134,-1.53204 -1.1212,-2.14599 -0.1976,-0.29748 -0.4188,-0.59339 -0.6627,-0.8843 -0.7896,-0.94124 -1.7028,-1.67453 -2.701,-2.21598 -0.545,-0.29563 -1.0588,-0.50358 -1.5053,-0.65839 -0.8649,-0.29998 -1.6334,-0.41849 -2.0516,-0.47618 0.4212,0.0967 1.1541,0.29777 1.988,0.66284 0.4275,0.18712 0.9089,0.43803 1.4108,0.77227 0.9235,0.61505 1.7216,1.37788 2.4488,2.29737 0.2245,0.28387 0.4295,0.56811 0.6232,0.84902 0.4102,0.59515 0.8143,1.24632 1.2222,2.0209 -1.3022,0.77514 -2.3912,1.55528 -3.2935,2.33468 -0.02,-0.0472 -0.038,-0.0945 -0.06,-0.14267 -0.4741,-1.08707 -1.0058,-2.05007 -1.5843,-2.86558 -0.2689,-0.37905 -0.5678,-0.75746 -0.8996,-1.12781 -1.0745,-1.19919 -2.3169,-2.13191 -3.6754,-2.82178 -0.7414,-0.37674 -1.4418,-0.64302 -2.0493,-0.84032 -1.177,-0.3822 -2.2243,-0.53219 -2.7932,-0.60571 0.573,0.12352 1.5707,0.37748 2.7054,0.84264 0.5817,0.23851 1.2391,0.55932 1.9221,0.98522 1.2568,0.78348 2.3411,1.75546 3.3309,2.92696 0.3055,0.36174 0.5855,0.72376 0.8491,1.0817 0.5752,0.78125 1.1416,1.63704 1.7137,2.66383 0.046,0.0824 0.088,0.16369 0.1316,0.24582 -0.056,0.0528 -0.1343,0.10564 -0.1887,0.15795 -0.3359,-0.15277 -0.6785,-0.30211 -1.0356,-0.44321 -1.1029,-0.436 -2.1591,-0.74524 -3.1444,-0.91495 -0.4579,-0.0787 -0.9384,-0.1362 -1.4349,-0.16462 -1.6077,-0.0917 -3.1474,0.12527 -4.5969,0.5946 -0.7913,0.25609 -1.4752,0.56043 -2.045,0.84921 -1.1039,0.55959 -1.952,1.19317 -2.4071,1.5425 0.4933,-0.31683 1.38,-0.84338 2.5124,-1.31428 0.5806,-0.24137 1.2714,-0.47599 2.056,-0.65607 1.4434,-0.33118 2.9,-0.40637 4.4279,-0.27424 0.4717,0.0417 0.9254,0.0988 1.3648,0.16665 0.9587,0.14777 1.9639,0.35378 3.0939,0.67802 0.2971,0.0852 0.5873,0.1773 0.8732,0.26998 -1.0112,1.07346 -1.5771,2.13812 -1.4876,3.17279 0.055,0.63237 0.4201,1.36723 0.9194,2.14376 -0.2228,0.0167 -0.441,0.0398 -0.654,0.0667 -0.461,0.0583 -0.9386,0.14527 -1.4218,0.26332 -1.564,0.38267 -2.9707,1.03809 -4.2195,1.9111 -0.6817,0.47645 -1.2467,0.968 -1.7071,1.41084 -0.8919,0.8581 -1.5167,1.70953 -1.8497,2.17664 0.3791,-0.4472 1.0714,-1.20845 2.0165,-1.99017 0.4846,-0.40044 1.0776,-0.82671 1.7751,-1.22863 1.2834,-0.73894 2.6518,-1.23725 4.1514,-1.55797 0.4631,-0.0989 0.916,-0.17564 1.3561,-0.23915 0.3386,-0.0491 0.6888,-0.0907 1.0466,-0.12731 0.6869,0.90764 1.5343,1.86267 2.6725,2.89872 -0.5743,0.18148 -1.5932,0.50498 -2.6396,1.08828 -0.6334,0.35294 -1.1967,0.75653 -1.6764,1.20233 -0.223,0.20721 -0.4454,0.44146 -0.6648,0.70006 -0.71,0.83736 -1.2722,1.81785 -1.6961,2.90066 -0.2315,0.59108 -0.3987,1.1516 -0.5244,1.63908 -0.2437,0.94457 -0.3498,1.78915 -0.4037,2.24903 0.083,-0.46192 0.2472,-1.26446 0.5375,-2.17228 0.1489,-0.46534 0.3472,-0.98698 0.6057,-1.52926 0.4754,-0.99745 1.0561,-1.85073 1.7487,-2.61995 0.2139,-0.2372 0.4276,-0.45497 0.6386,-0.65829 0.4599,-0.44414 0.9613,-0.87773 1.5622,-1.31206 0.9837,-0.71116 1.9595,-1.21909 2.5234,-1.47889 0.9536,0.86726 2.0836,1.77823 3.2978,2.70753 -0.7581,0.60626 -1.6662,1.37973 -2.5321,2.27542 -0.8243,0.85273 -1.5117,1.71064 -2.045,2.55624 -0.2481,0.39304 -0.4839,0.81588 -0.7,1.26391 -0.6988,1.45075 -1.0889,2.9552 -1.2089,4.47391 -0.065,0.82921 -0.045,1.57713 0,2.21404 0.095,1.23391 0.3578,2.25885 0.5069,2.81299 -0.1045,-0.57691 -0.252,-1.59759 -0.2546,-2.82401 -9e-4,-0.62866 0.045,-1.3564 0.1777,-2.15024 0.2454,-1.46047 0.7314,-2.83382 1.4372,-4.19532 0.2182,-0.42034 0.4473,-0.81801 0.678,-1.19808 0.5029,-0.82958 1.0768,-1.67981 1.8081,-2.60012 0.7703,-0.96958 1.5809,-1.8411 2.2644,-2.52773 0.7756,0.59061 1.5594,1.18354 2.4224,1.79045 -0.4197,0.69543 -0.8512,1.46483 -1.2529,2.282 -0.6249,1.2715 -1.101,2.50467 -1.4152,3.67081 -0.1464,0.54219 -0.2715,1.11355 -0.3665,1.70925 -0.307,1.92887 -0.2635,3.81691 0.072,5.63264 0.1834,0.99133 0.4346,1.85878 0.6824,2.58698 0.4803,1.41076 1.0746,2.52421 1.4043,3.12232 -0.2887,-0.63987 -0.7583,-1.78369 -1.1366,-3.21666 -0.1937,-0.7345 -0.3675,-1.60112 -0.4673,-2.57384 -0.1835,-1.78915 -0.081,-3.55757 0.2611,-5.3846 0.1056,-0.56376 0.2281,-1.10465 0.3598,-1.62592 0.2865,-1.13734 0.6434,-2.32052 1.1476,-3.64007 0.3187,-0.83421 0.6644,-1.63241 1.0028,-2.36097 0.4704,0.32822 0.9907,0.66264 1.4833,0.99392 -0.026,0.0741 -0.054,0.1462 -0.079,0.22165 -0.3743,1.12522 -0.6244,2.19729 -0.7394,3.19038 -0.054,0.46164 -0.082,0.9442 -0.083,1.44158 0,1.61019 0.296,3.13602 0.8447,4.55733 0.2996,0.77588 0.6434,1.44149 0.9632,1.99452 0.6198,1.07123 1.298,1.88192 1.672,2.31709 -0.3435,-0.47498 -0.9175,-1.33104 -1.4503,-2.43561 -0.273,-0.56635 -0.5469,-1.24298 -0.7702,-2.01645 -0.4106,-1.42279 -0.5653,-2.87095 -0.5179,-4.40373 0.015,-0.47331 0.046,-0.93106 0.09,-1.37363 0.094,-0.9655 0.2457,-1.98062 0.5069,-3.12676 0,-0.0213 0.011,-0.0417 0.016,-0.0639 1.0117,0.67357 2.1027,1.34233 3.1903,2.02091 -0.012,1.04105 0.017,2.02627 0.092,2.93807 0.049,0.60209 0.1202,1.22363 0.2172,1.85415 0.3149,2.04062 0.847,3.87468 1.5514,5.49857 0.3844,0.88653 0.7802,1.6188 1.1365,2.21617 0.6905,1.15734 1.3759,1.96748 1.751,2.3982 -0.3595,-0.49099 -0.972,-1.39196 -1.6017,-2.61985 -0.3228,-0.62941 -0.667,-1.39816 -0.9918,-2.30607 -0.5977,-1.67037 -1.0034,-3.45601 -1.2683,-5.41303 -0.082,-0.6045 -0.1464,-1.194 -0.1997,-1.7686 -0.073,-0.78579 -0.131,-1.60972 -0.1711,-2.48828 0.8121,0.5021 1.6617,0.99633 2.5058,1.49639 0.5517,1.19429 1.2672,2.25969 2.1196,3.19482 0.5603,0.61478 1.1209,1.11225 1.6193,1.51177 0.9658,0.77403 1.8921,1.28363 2.3983,1.55352 -0.4924,-0.31813 -1.337,-0.90773 -2.2337,-1.74435 -0.4597,-0.42886 -0.9599,-0.96161 -1.4482,-1.60185 -0.5455,-0.71496 -1.0051,-1.47297 -1.3977,-2.2819 12.2522,7.13533 27.0337,13.75893 34.449,14.81081 11.0249,1.56408 33.0401,21.923 39.2916,36.99436 1.6685,4.02208 6.2308,8.687 12.529,13.42867 -0.4486,10.17469 -1.3771,21.26322 -3.3461,23.23209 -3.7679,3.76775 -6.2423,10.5493 -9.8521,12.44132 -3.6097,1.89175 -8.3222,-0.12314 -9.9396,0.84255 -0.1693,0.1011 -0.2851,0.20369 -0.3709,0.30489 0.022,0.0231 0.048,0.0472 0.088,0.0685 0.2136,0.11426 3.8653,-0.35572 4.0856,0.26545 0.095,0.26915 -3.0242,0.41053 -3.0127,0.67802 0.021,0.4871 4.433,0.14758 4.4894,0.40377 0.1057,0.47858 -2.6629,0.55201 -3.0345,0.87773 0.4135,0.16804 0.8758,0.34359 1.4416,0.51108 0.115,0.0111 0.2171,0.0111 0.2171,0.0111 -0.011,0.0139 -0.014,0.0268 -0.02,0.0417 2.1316,0.60228 5.116,0.96106 7.9495,-0.39488 1.921,-0.91948 4.4419,-1.75712 7.0258,-2.67698 -0.1511,0.39193 -0.293,0.76579 -0.3796,1.02254 -1.7026,5.0461 -10.607,10.2208 -14.6507,10.72966 -4.0437,0.50886 -6.0591,0.44683 -7.9122,0.78542 -0.3121,0.0574 -0.5074,0.16082 -0.6277,0.28757 4e-4,0.0574 0.031,0.12333 0.1361,0.17981 0.2136,0.11425 3.8631,-0.35563 4.0833,0.26554 0.096,0.26915 -3.0243,0.41071 -3.0126,0.67811 0.022,0.4871 4.4331,0.14749 4.4894,0.40358 0.1138,0.51748 -3.1309,0.56007 -3.0763,0.96115 0.011,0.0426 0.033,0.0815 0.072,0.11629 1.3437,0.34082 3.4236,0.62728 6.3544,0.36637 5.7287,-0.51025 16.882,-1.54741 21.5295,-4.76352 3.3615,-2.32607 14.3127,-22.73638 20.156,-33.92463 15.5218,7.64438 33.3723,13.82606 47.9303,15.43402 16.4364,1.81545 36.7372,5.38488 55.5968,6.18761 -0.5218,1.61685 -1.0373,3.12843 -1.6369,4.17782 -1.7872,3.1275 0.045,2.21255 -2.7844,2.65938 -2.8297,0.44673 -6.406,0.74681 -10.576,1.19364 -0.7412,0.0796 -1.2597,0.23452 -1.5975,0.43442 -0.024,0.0685 -0.027,0.1636 0.1229,0.24359 0.2137,0.11416 3.8653,-0.3535 4.0856,0.26767 0.096,0.26915 -3.0265,0.41063 -3.0147,0.67793 0.02,0.48719 4.4352,0.15212 4.4914,0.40821 0.1045,0.4772 -2.6447,0.5459 -3.0302,0.86894 0.8485,0.16249 1.8419,0.25544 2.9643,0.226 2.484,-0.0648 7.8242,-1.25743 13.1149,-2.61115 -0.3643,1.04698 -0.7373,2.00174 -1.1519,2.72735 -1.7873,3.12769 -2.4869,3.40851 -5.3168,3.85524 -2.8296,0.44692 -6.4036,0.74468 -10.5738,1.19151 -0.7032,0.075 -1.201,0.22295 -1.5404,0.40803 0.012,0.0472 0.05,0.0967 0.1318,0.14045 0.2137,0.11425 3.8653,-0.3534 4.0856,0.26776 0.095,0.26916 -3.0266,0.41063 -3.0148,0.67802 0.022,0.4871 4.4352,0.14768 4.4915,0.40377 0.1139,0.51738 -3.1308,0.55988 -3.0763,0.96097 0,0.0185 0.011,0.037 0.021,0.0546 0.8397,0.15787 1.8207,0.24406 2.9249,0.21499 5.6595,-0.14888 28.6976,-7.28365 29.5911,-7.87936 0.8936,-0.5958 4.4128,-2.68614 4.5617,-4.17559 0.1289,-1.28882 14.5837,-11.46472 18.6595,-14.31279 8.6814,-5.08823 14.4272,-13.43951 15.4868,-26.54552 1.5197,-3.3723 3.0584,-7.26476 4.395,-11.69506 1.8686,-6.19391 3.3853,-13.47553 3.7544,-21.38266 0.3694,-6.67944 0.2335,-12.46549 -0.3359,-17.53381 -0.5642,-5.0236 -1.5495,-9.29447 -2.8546,-13.00953 -1.3112,-3.73266 -2.9196,-6.82841 -4.6692,-9.50742 -1.7691,-2.70855 -3.6722,-4.97397 -5.4748,-6.96886 -1.8739,-2.07405 -3.6628,-3.89339 -5.2682,-5.69606 -1.7053,-1.91535 -3.1801,-3.7733 -4.4564,-5.86522 -1.3812,-2.26357 -2.4889,-4.73908 -3.3066,-7.62039 -0.396,-1.39511 -0.7176,-2.86771 -0.9676,-4.42355 -0.3217,-2.0009 -0.5409,-4.20355 -0.6342,-6.64406 -0.3501,-9.18706 0.7371,-16.22712 2.3412,-21.60857 1.7571,-5.89466 4.2112,-10.0423 6.3875,-12.91065 2.3986,-3.16213 4.7952,-5.191 6.2183,-6.31279 0.1388,-0.10897 0.2742,-0.21406 0.4059,-0.3159 2.3226,-1.79805 2.9372,-2.34107 2.8876,-2.50143 -0.011,-0.0296 -0.2003,-0.19147 -0.7834,-0.16898 z m -235.6819,56.41083 a 4.218712,5.2178804 0 0 1 4.2196,5.21776 4.218712,5.2178804 0 0 1 -4.2196,5.21794 4.218712,5.2178804 0 0 1 -4.1756,-4.4741 1.9821782,2.0999314 0 0 0 1.7204,1.06429 1.9821782,2.0999314 0 0 0 1.9814,-2.09978 1.9821782,2.0999314 0 0 0 -1.9814,-2.09997 1.9821782,2.0999314 0 0 0 -1.5556,0.80745 4.218712,5.2178804 0 0 1 4.0108,-3.63359 z"
       inkscape:export-filename="..\..\BIOL-4311\Seminar\Seminar-Images\My-Rat.svg"
       inkscape:export-xdpi="96"
       inkscape:export-ydpi="96" />
    <path
       id="path1-5"
       style="fill:#84c826;fill-opacity:1;stroke-width:6.11524;paint-order:markers fill stroke"
       d="m 1427.0025,227.35131 c -10.3511,12.82796 -33.8501,26.43051 -47.0393,15.78779 -13.1892,-10.64281 -11.0743,-41.50076 -0.7232,-54.32873 10.3513,-12.82787 33.2396,-13.95957 46.4289,-3.31675 13.1892,10.64281 11.6849,29.02981 1.3336,41.85769 z"
       sodipodi:nodetypes="sssss" />
  </g>
</svg>
